G75*
%MOIN*%
%OFA0B0*%
%FSLAX25Y25*%
%IPPOS*%
%LPD*%
%AMOC8*
5,1,8,0,0,1.08239X$1,22.5*
%
%ADD10C,0.01000*%
%ADD11C,0.00300*%
%ADD12C,0.00000*%
%ADD13C,0.00400*%
%ADD14C,0.00500*%
D10*
X0061453Y0072391D02*
X0061453Y0146682D01*
X0131532Y0146682D01*
X0131532Y0123847D01*
X0211847Y0123847D01*
X0211846Y0123847D02*
X0212158Y0124451D01*
X0212484Y0125047D01*
X0212825Y0125635D01*
X0213179Y0126214D01*
X0213548Y0126785D01*
X0213931Y0127346D01*
X0214327Y0127898D01*
X0214737Y0128440D01*
X0215159Y0128972D01*
X0215595Y0129494D01*
X0216043Y0130004D01*
X0216504Y0130504D01*
X0216976Y0130992D01*
X0217460Y0131469D01*
X0217956Y0131933D01*
X0218463Y0132386D01*
X0218981Y0132826D01*
X0219509Y0133253D01*
X0220048Y0133667D01*
X0220597Y0134068D01*
X0221155Y0134455D01*
X0221722Y0134828D01*
X0222299Y0135188D01*
X0222884Y0135533D01*
X0223477Y0135865D01*
X0224078Y0136181D01*
X0224687Y0136483D01*
X0225303Y0136770D01*
X0225926Y0137041D01*
X0226555Y0137298D01*
X0227190Y0137539D01*
X0227831Y0137764D01*
X0228477Y0137974D01*
X0229128Y0138168D01*
X0229784Y0138346D01*
X0230444Y0138508D01*
X0231108Y0138653D01*
X0231775Y0138783D01*
X0232445Y0138896D01*
X0233117Y0138993D01*
X0233792Y0139073D01*
X0234468Y0139137D01*
X0235146Y0139185D01*
X0235825Y0139216D01*
X0236504Y0139230D01*
X0237183Y0139228D01*
X0237863Y0139209D01*
X0238541Y0139173D01*
X0239218Y0139121D01*
X0239894Y0139053D01*
X0240569Y0138968D01*
X0241240Y0138867D01*
X0241910Y0138749D01*
X0242576Y0138615D01*
X0243238Y0138465D01*
X0243897Y0138298D01*
X0244551Y0138116D01*
X0245201Y0137918D01*
X0245846Y0137704D01*
X0246486Y0137474D01*
X0247119Y0137229D01*
X0247747Y0136968D01*
X0248368Y0136692D01*
X0248981Y0136401D01*
X0249588Y0136095D01*
X0250187Y0135775D01*
X0250778Y0135440D01*
X0251361Y0135090D01*
X0251935Y0134727D01*
X0252500Y0134349D01*
X0253056Y0133958D01*
X0253602Y0133554D01*
X0254137Y0133136D01*
X0254663Y0132706D01*
X0255178Y0132262D01*
X0255682Y0131806D01*
X0256174Y0131339D01*
X0256655Y0130859D01*
X0257125Y0130367D01*
X0257582Y0129865D01*
X0258026Y0129351D01*
X0258458Y0128827D01*
X0258877Y0128292D01*
X0259283Y0127747D01*
X0259676Y0127192D01*
X0260055Y0126628D01*
X0260420Y0126055D01*
X0260771Y0125474D01*
X0261107Y0124883D01*
X0261429Y0124285D01*
X0261737Y0123679D01*
X0262029Y0123066D01*
X0262307Y0122446D01*
X0262569Y0121819D01*
X0262816Y0121186D01*
X0263048Y0120547D01*
X0263263Y0119903D01*
X0263463Y0119254D01*
X0263647Y0118600D01*
X0263815Y0117941D01*
X0263816Y0117942D02*
X0252398Y0117942D01*
X0252205Y0118296D01*
X0252005Y0118646D01*
X0251795Y0118990D01*
X0251577Y0119330D01*
X0251351Y0119663D01*
X0251117Y0119992D01*
X0250875Y0120314D01*
X0250625Y0120630D01*
X0250367Y0120940D01*
X0250102Y0121244D01*
X0249830Y0121541D01*
X0249550Y0121832D01*
X0249264Y0122115D01*
X0248970Y0122391D01*
X0248670Y0122661D01*
X0248363Y0122922D01*
X0248050Y0123176D01*
X0247731Y0123423D01*
X0247406Y0123661D01*
X0247075Y0123891D01*
X0246739Y0124114D01*
X0246397Y0124328D01*
X0246050Y0124533D01*
X0245698Y0124730D01*
X0245342Y0124918D01*
X0244981Y0125098D01*
X0244616Y0125268D01*
X0244246Y0125430D01*
X0243873Y0125582D01*
X0243496Y0125726D01*
X0243116Y0125860D01*
X0242733Y0125985D01*
X0242346Y0126100D01*
X0241957Y0126206D01*
X0241566Y0126302D01*
X0241172Y0126388D01*
X0240776Y0126465D01*
X0240379Y0126533D01*
X0239980Y0126590D01*
X0239579Y0126638D01*
X0239178Y0126676D01*
X0238776Y0126704D01*
X0238373Y0126722D01*
X0237970Y0126730D01*
X0237567Y0126729D01*
X0237164Y0126717D01*
X0236761Y0126696D01*
X0236359Y0126665D01*
X0235958Y0126624D01*
X0235558Y0126573D01*
X0235160Y0126513D01*
X0234763Y0126443D01*
X0234368Y0126363D01*
X0233975Y0126273D01*
X0233584Y0126174D01*
X0233196Y0126065D01*
X0232810Y0125947D01*
X0232428Y0125819D01*
X0232049Y0125682D01*
X0231673Y0125536D01*
X0231301Y0125381D01*
X0230933Y0125216D01*
X0230569Y0125043D01*
X0230209Y0124861D01*
X0229854Y0124670D01*
X0229504Y0124470D01*
X0229159Y0124262D01*
X0228819Y0124046D01*
X0228484Y0123821D01*
X0228155Y0123588D01*
X0227832Y0123347D01*
X0227514Y0123098D01*
X0227203Y0122842D01*
X0226898Y0122578D01*
X0226600Y0122307D01*
X0226309Y0122028D01*
X0226024Y0121742D01*
X0225747Y0121450D01*
X0225477Y0121151D01*
X0225214Y0120845D01*
X0224959Y0120533D01*
X0224711Y0120215D01*
X0224471Y0119891D01*
X0224240Y0119561D01*
X0224016Y0119225D01*
X0223801Y0118884D01*
X0223594Y0118538D01*
X0223396Y0118187D01*
X0223206Y0117831D01*
X0223026Y0117471D01*
X0222854Y0117106D01*
X0222691Y0116738D01*
X0222537Y0116365D01*
X0222392Y0115989D01*
X0222256Y0115609D01*
X0222130Y0115226D01*
X0222013Y0114840D01*
X0221906Y0114452D01*
X0221808Y0114061D01*
X0221720Y0113667D01*
X0221642Y0113272D01*
X0221573Y0112874D01*
X0221514Y0112476D01*
X0221465Y0112076D01*
X0221425Y0111674D01*
X0221396Y0111272D01*
X0221376Y0110870D01*
X0221366Y0110467D01*
X0221366Y0110063D01*
X0221376Y0109660D01*
X0221396Y0109258D01*
X0221425Y0108856D01*
X0221465Y0108454D01*
X0221514Y0108054D01*
X0221573Y0107656D01*
X0221642Y0107258D01*
X0221720Y0106863D01*
X0221808Y0106469D01*
X0221906Y0106078D01*
X0222013Y0105690D01*
X0222130Y0105304D01*
X0222256Y0104921D01*
X0222392Y0104541D01*
X0222537Y0104165D01*
X0222691Y0103792D01*
X0222854Y0103424D01*
X0223026Y0103059D01*
X0223206Y0102699D01*
X0223396Y0102343D01*
X0223594Y0101992D01*
X0223801Y0101646D01*
X0224016Y0101305D01*
X0224240Y0100969D01*
X0224471Y0100639D01*
X0224711Y0100315D01*
X0224959Y0099997D01*
X0225214Y0099685D01*
X0225477Y0099379D01*
X0225747Y0099080D01*
X0226024Y0098788D01*
X0226309Y0098502D01*
X0226600Y0098223D01*
X0226898Y0097952D01*
X0227203Y0097688D01*
X0227514Y0097432D01*
X0227832Y0097183D01*
X0228155Y0096942D01*
X0228484Y0096709D01*
X0228819Y0096484D01*
X0229159Y0096268D01*
X0229504Y0096060D01*
X0229854Y0095860D01*
X0230209Y0095669D01*
X0230569Y0095487D01*
X0230933Y0095314D01*
X0231301Y0095149D01*
X0231673Y0094994D01*
X0232049Y0094848D01*
X0232428Y0094711D01*
X0232810Y0094583D01*
X0233196Y0094465D01*
X0233584Y0094356D01*
X0233975Y0094257D01*
X0234368Y0094167D01*
X0234763Y0094087D01*
X0235160Y0094017D01*
X0235558Y0093957D01*
X0235958Y0093906D01*
X0236359Y0093865D01*
X0236761Y0093834D01*
X0237164Y0093813D01*
X0237567Y0093801D01*
X0237970Y0093800D01*
X0238373Y0093808D01*
X0238776Y0093826D01*
X0239178Y0093854D01*
X0239579Y0093892D01*
X0239980Y0093940D01*
X0240379Y0093997D01*
X0240776Y0094065D01*
X0241172Y0094142D01*
X0241566Y0094228D01*
X0241957Y0094324D01*
X0242346Y0094430D01*
X0242733Y0094545D01*
X0243116Y0094670D01*
X0243496Y0094804D01*
X0243873Y0094948D01*
X0244246Y0095100D01*
X0244616Y0095262D01*
X0244981Y0095432D01*
X0245342Y0095612D01*
X0245698Y0095800D01*
X0246050Y0095997D01*
X0246397Y0096202D01*
X0246739Y0096416D01*
X0247075Y0096639D01*
X0247406Y0096869D01*
X0247731Y0097107D01*
X0248050Y0097354D01*
X0248363Y0097608D01*
X0248670Y0097869D01*
X0248970Y0098139D01*
X0249264Y0098415D01*
X0249550Y0098698D01*
X0249830Y0098989D01*
X0250102Y0099286D01*
X0250367Y0099590D01*
X0250625Y0099900D01*
X0250875Y0100216D01*
X0251117Y0100538D01*
X0251351Y0100867D01*
X0251577Y0101200D01*
X0251795Y0101540D01*
X0252005Y0101884D01*
X0252205Y0102234D01*
X0252398Y0102588D01*
X0252398Y0102548D02*
X0263737Y0102587D01*
X0263815Y0102587D02*
X0263639Y0101941D01*
X0263447Y0101299D01*
X0263239Y0100663D01*
X0263016Y0100031D01*
X0262778Y0099405D01*
X0262524Y0098786D01*
X0262256Y0098172D01*
X0261972Y0097566D01*
X0261674Y0096966D01*
X0261361Y0096374D01*
X0261034Y0095790D01*
X0260693Y0095214D01*
X0260337Y0094646D01*
X0259968Y0094087D01*
X0259586Y0093538D01*
X0259190Y0092998D01*
X0258781Y0092467D01*
X0258359Y0091947D01*
X0257925Y0091438D01*
X0257478Y0090939D01*
X0257019Y0090451D01*
X0256549Y0089974D01*
X0256067Y0089509D01*
X0255574Y0089056D01*
X0255070Y0088616D01*
X0254555Y0088187D01*
X0254030Y0087771D01*
X0253495Y0087369D01*
X0252950Y0086979D01*
X0252396Y0086603D01*
X0251833Y0086240D01*
X0251262Y0085892D01*
X0250682Y0085557D01*
X0250094Y0085237D01*
X0249498Y0084931D01*
X0248895Y0084640D01*
X0248285Y0084363D01*
X0247669Y0084102D01*
X0247046Y0083855D01*
X0246417Y0083624D01*
X0245783Y0083409D01*
X0245144Y0083208D01*
X0244501Y0083024D01*
X0243853Y0082855D01*
X0243201Y0082702D01*
X0242545Y0082566D01*
X0241886Y0082445D01*
X0241225Y0082340D01*
X0240561Y0082252D01*
X0239896Y0082179D01*
X0239228Y0082123D01*
X0238560Y0082083D01*
X0237891Y0082060D01*
X0237221Y0082053D01*
X0236551Y0082062D01*
X0235882Y0082088D01*
X0235214Y0082130D01*
X0234547Y0082188D01*
X0233881Y0082263D01*
X0233218Y0082354D01*
X0232557Y0082460D01*
X0231899Y0082583D01*
X0231244Y0082723D01*
X0230592Y0082878D01*
X0229945Y0083048D01*
X0229302Y0083235D01*
X0228663Y0083437D01*
X0228030Y0083655D01*
X0227402Y0083888D01*
X0226780Y0084137D01*
X0226165Y0084400D01*
X0225556Y0084679D01*
X0224954Y0084972D01*
X0224359Y0085280D01*
X0223772Y0085602D01*
X0223193Y0085939D01*
X0222623Y0086289D01*
X0222061Y0086654D01*
X0221508Y0087032D01*
X0220965Y0087423D01*
X0220431Y0087828D01*
X0219908Y0088245D01*
X0219394Y0088675D01*
X0218892Y0089118D01*
X0218400Y0089572D01*
X0217920Y0090039D01*
X0217451Y0090517D01*
X0216994Y0091006D01*
X0216549Y0091507D01*
X0216116Y0092018D01*
X0215696Y0092540D01*
X0215289Y0093071D01*
X0214895Y0093613D01*
X0214514Y0094163D01*
X0214147Y0094723D01*
X0213794Y0095292D01*
X0213454Y0095870D01*
X0213129Y0096455D01*
X0212818Y0097048D01*
X0212522Y0097649D01*
X0212240Y0098256D01*
X0211847Y0098257D02*
X0131532Y0098257D01*
X0131532Y0072391D01*
X0061453Y0072391D01*
D11*
X0073480Y0080208D02*
X0075415Y0080208D01*
X0076382Y0081175D01*
X0075415Y0082143D01*
X0073480Y0082143D01*
X0073963Y0083154D02*
X0075898Y0083154D01*
X0076382Y0083638D01*
X0076382Y0084606D01*
X0075898Y0085089D01*
X0075898Y0086101D02*
X0076382Y0086585D01*
X0076382Y0087552D01*
X0075898Y0088036D01*
X0073963Y0088036D02*
X0073480Y0087552D01*
X0073480Y0086585D01*
X0073963Y0086101D01*
X0075898Y0086101D01*
X0073963Y0085089D02*
X0073480Y0084606D01*
X0073480Y0083638D01*
X0073963Y0083154D01*
X0073519Y0100759D02*
X0073519Y0102694D01*
X0073519Y0103706D02*
X0073519Y0105157D01*
X0074003Y0105641D01*
X0074487Y0105641D01*
X0074970Y0105157D01*
X0074970Y0103706D01*
X0074970Y0105157D02*
X0075454Y0105641D01*
X0075938Y0105641D01*
X0076422Y0105157D01*
X0076422Y0103706D01*
X0073519Y0103706D01*
X0074970Y0101727D02*
X0074970Y0100759D01*
X0073519Y0100759D02*
X0076422Y0100759D01*
X0076422Y0108318D02*
X0073519Y0108318D01*
X0073519Y0110253D01*
X0073519Y0111265D02*
X0073519Y0112232D01*
X0073519Y0111748D02*
X0076422Y0111748D01*
X0076422Y0111265D02*
X0076422Y0112232D01*
X0076422Y0113229D02*
X0076422Y0115164D01*
X0076422Y0113229D02*
X0073519Y0113229D01*
X0073519Y0116175D02*
X0073519Y0118110D01*
X0073519Y0117143D02*
X0076422Y0117143D01*
X0076225Y0120523D02*
X0073322Y0120523D01*
X0073322Y0121974D01*
X0073806Y0122458D01*
X0074773Y0122458D01*
X0075257Y0121974D01*
X0075257Y0120523D01*
X0076225Y0123469D02*
X0075257Y0124437D01*
X0076225Y0125404D01*
X0073322Y0125404D01*
X0073322Y0126416D02*
X0074290Y0127383D01*
X0073322Y0128351D01*
X0076225Y0128351D01*
X0076225Y0126416D02*
X0073322Y0126416D01*
X0073322Y0123469D02*
X0076225Y0123469D01*
X0075859Y0131310D02*
X0076343Y0131794D01*
X0076343Y0132761D01*
X0075859Y0133245D01*
X0074892Y0133245D01*
X0074892Y0132278D01*
X0073924Y0131310D02*
X0075859Y0131310D01*
X0073924Y0131310D02*
X0073440Y0131794D01*
X0073440Y0132761D01*
X0073924Y0133245D01*
X0073440Y0134257D02*
X0076343Y0136192D01*
X0073440Y0136192D01*
X0073440Y0137203D02*
X0073440Y0138655D01*
X0073924Y0139138D01*
X0075859Y0139138D01*
X0076343Y0138655D01*
X0076343Y0137203D01*
X0073440Y0137203D01*
X0073440Y0134257D02*
X0076343Y0134257D01*
X0074970Y0109286D02*
X0074970Y0108318D01*
X0098928Y0098178D02*
X0098928Y0095678D01*
X0098930Y0095634D01*
X0098936Y0095591D01*
X0098945Y0095549D01*
X0098958Y0095507D01*
X0098975Y0095467D01*
X0098995Y0095428D01*
X0099018Y0095391D01*
X0099045Y0095357D01*
X0099074Y0095324D01*
X0099107Y0095295D01*
X0099141Y0095268D01*
X0099178Y0095245D01*
X0099217Y0095225D01*
X0099257Y0095208D01*
X0099299Y0095195D01*
X0099341Y0095186D01*
X0099384Y0095180D01*
X0099428Y0095178D01*
X0105428Y0095178D01*
X0105472Y0095180D01*
X0105515Y0095186D01*
X0105557Y0095195D01*
X0105599Y0095208D01*
X0105639Y0095225D01*
X0105678Y0095245D01*
X0105715Y0095268D01*
X0105749Y0095295D01*
X0105782Y0095324D01*
X0105811Y0095357D01*
X0105838Y0095391D01*
X0105861Y0095428D01*
X0105881Y0095467D01*
X0105898Y0095507D01*
X0105911Y0095549D01*
X0105920Y0095591D01*
X0105926Y0095634D01*
X0105928Y0095678D01*
X0105928Y0098178D01*
X0105926Y0098222D01*
X0105920Y0098265D01*
X0105911Y0098307D01*
X0105898Y0098349D01*
X0105881Y0098389D01*
X0105861Y0098428D01*
X0105838Y0098465D01*
X0105811Y0098499D01*
X0105782Y0098532D01*
X0105749Y0098561D01*
X0105715Y0098588D01*
X0105678Y0098611D01*
X0105639Y0098631D01*
X0105599Y0098648D01*
X0105557Y0098661D01*
X0105515Y0098670D01*
X0105472Y0098676D01*
X0105428Y0098678D01*
X0099428Y0098678D01*
X0099384Y0098676D01*
X0099341Y0098670D01*
X0099299Y0098661D01*
X0099257Y0098648D01*
X0099217Y0098631D01*
X0099178Y0098611D01*
X0099141Y0098588D01*
X0099107Y0098561D01*
X0099074Y0098532D01*
X0099045Y0098499D01*
X0099018Y0098465D01*
X0098995Y0098428D01*
X0098975Y0098389D01*
X0098958Y0098349D01*
X0098945Y0098307D01*
X0098936Y0098265D01*
X0098930Y0098222D01*
X0098928Y0098178D01*
X0115639Y0103617D02*
X0118107Y0103617D01*
X0116873Y0102383D02*
X0116873Y0104852D01*
X0143898Y0108818D02*
X0143898Y0111318D01*
X0143900Y0111362D01*
X0143906Y0111405D01*
X0143915Y0111447D01*
X0143928Y0111489D01*
X0143945Y0111529D01*
X0143965Y0111568D01*
X0143988Y0111605D01*
X0144015Y0111639D01*
X0144044Y0111672D01*
X0144077Y0111701D01*
X0144111Y0111728D01*
X0144148Y0111751D01*
X0144187Y0111771D01*
X0144227Y0111788D01*
X0144269Y0111801D01*
X0144311Y0111810D01*
X0144354Y0111816D01*
X0144398Y0111818D01*
X0150398Y0111818D01*
X0150442Y0111816D01*
X0150485Y0111810D01*
X0150527Y0111801D01*
X0150569Y0111788D01*
X0150609Y0111771D01*
X0150648Y0111751D01*
X0150685Y0111728D01*
X0150719Y0111701D01*
X0150752Y0111672D01*
X0150781Y0111639D01*
X0150808Y0111605D01*
X0150831Y0111568D01*
X0150851Y0111529D01*
X0150868Y0111489D01*
X0150881Y0111447D01*
X0150890Y0111405D01*
X0150896Y0111362D01*
X0150898Y0111318D01*
X0150898Y0108818D01*
X0150896Y0108774D01*
X0150890Y0108731D01*
X0150881Y0108689D01*
X0150868Y0108647D01*
X0150851Y0108607D01*
X0150831Y0108568D01*
X0150808Y0108531D01*
X0150781Y0108497D01*
X0150752Y0108464D01*
X0150719Y0108435D01*
X0150685Y0108408D01*
X0150648Y0108385D01*
X0150609Y0108365D01*
X0150569Y0108348D01*
X0150527Y0108335D01*
X0150485Y0108326D01*
X0150442Y0108320D01*
X0150398Y0108318D01*
X0144398Y0108318D01*
X0144354Y0108320D01*
X0144311Y0108326D01*
X0144269Y0108335D01*
X0144227Y0108348D01*
X0144187Y0108365D01*
X0144148Y0108385D01*
X0144111Y0108408D01*
X0144077Y0108435D01*
X0144044Y0108464D01*
X0144015Y0108497D01*
X0143988Y0108531D01*
X0143965Y0108568D01*
X0143945Y0108607D01*
X0143928Y0108647D01*
X0143915Y0108689D01*
X0143906Y0108731D01*
X0143900Y0108774D01*
X0143898Y0108818D01*
X0162993Y0108621D02*
X0162993Y0111121D01*
X0162995Y0111165D01*
X0163001Y0111208D01*
X0163010Y0111250D01*
X0163023Y0111292D01*
X0163040Y0111332D01*
X0163060Y0111371D01*
X0163083Y0111408D01*
X0163110Y0111442D01*
X0163139Y0111475D01*
X0163172Y0111504D01*
X0163206Y0111531D01*
X0163243Y0111554D01*
X0163282Y0111574D01*
X0163322Y0111591D01*
X0163364Y0111604D01*
X0163406Y0111613D01*
X0163449Y0111619D01*
X0163493Y0111621D01*
X0168743Y0111621D01*
X0169993Y0110371D01*
X0169993Y0109371D01*
X0168743Y0108121D01*
X0163493Y0108121D01*
X0163449Y0108123D01*
X0163406Y0108129D01*
X0163364Y0108138D01*
X0163322Y0108151D01*
X0163282Y0108168D01*
X0163243Y0108188D01*
X0163206Y0108211D01*
X0163172Y0108238D01*
X0163139Y0108267D01*
X0163110Y0108300D01*
X0163083Y0108334D01*
X0163060Y0108371D01*
X0163040Y0108410D01*
X0163023Y0108450D01*
X0163010Y0108492D01*
X0163001Y0108534D01*
X0162995Y0108577D01*
X0162993Y0108621D01*
D12*
X0118146Y0092351D02*
X0118148Y0092499D01*
X0118154Y0092647D01*
X0118164Y0092795D01*
X0118178Y0092942D01*
X0118196Y0093089D01*
X0118217Y0093235D01*
X0118243Y0093381D01*
X0118273Y0093526D01*
X0118306Y0093670D01*
X0118344Y0093813D01*
X0118385Y0093955D01*
X0118430Y0094096D01*
X0118478Y0094236D01*
X0118531Y0094375D01*
X0118587Y0094512D01*
X0118647Y0094647D01*
X0118710Y0094781D01*
X0118777Y0094913D01*
X0118848Y0095043D01*
X0118922Y0095171D01*
X0118999Y0095297D01*
X0119080Y0095421D01*
X0119164Y0095543D01*
X0119251Y0095662D01*
X0119342Y0095779D01*
X0119436Y0095894D01*
X0119532Y0096006D01*
X0119632Y0096116D01*
X0119734Y0096222D01*
X0119840Y0096326D01*
X0119948Y0096427D01*
X0120059Y0096525D01*
X0120172Y0096621D01*
X0120288Y0096713D01*
X0120406Y0096802D01*
X0120527Y0096887D01*
X0120650Y0096970D01*
X0120775Y0097049D01*
X0120902Y0097125D01*
X0121031Y0097197D01*
X0121162Y0097266D01*
X0121295Y0097331D01*
X0121430Y0097392D01*
X0121566Y0097450D01*
X0121703Y0097505D01*
X0121842Y0097555D01*
X0121983Y0097602D01*
X0122124Y0097645D01*
X0122267Y0097685D01*
X0122411Y0097720D01*
X0122555Y0097752D01*
X0122701Y0097779D01*
X0122847Y0097803D01*
X0122994Y0097823D01*
X0123141Y0097839D01*
X0123288Y0097851D01*
X0123436Y0097859D01*
X0123584Y0097863D01*
X0123732Y0097863D01*
X0123880Y0097859D01*
X0124028Y0097851D01*
X0124175Y0097839D01*
X0124322Y0097823D01*
X0124469Y0097803D01*
X0124615Y0097779D01*
X0124761Y0097752D01*
X0124905Y0097720D01*
X0125049Y0097685D01*
X0125192Y0097645D01*
X0125333Y0097602D01*
X0125474Y0097555D01*
X0125613Y0097505D01*
X0125750Y0097450D01*
X0125886Y0097392D01*
X0126021Y0097331D01*
X0126154Y0097266D01*
X0126285Y0097197D01*
X0126414Y0097125D01*
X0126541Y0097049D01*
X0126666Y0096970D01*
X0126789Y0096887D01*
X0126910Y0096802D01*
X0127028Y0096713D01*
X0127144Y0096621D01*
X0127257Y0096525D01*
X0127368Y0096427D01*
X0127476Y0096326D01*
X0127582Y0096222D01*
X0127684Y0096116D01*
X0127784Y0096006D01*
X0127880Y0095894D01*
X0127974Y0095779D01*
X0128065Y0095662D01*
X0128152Y0095543D01*
X0128236Y0095421D01*
X0128317Y0095297D01*
X0128394Y0095171D01*
X0128468Y0095043D01*
X0128539Y0094913D01*
X0128606Y0094781D01*
X0128669Y0094647D01*
X0128729Y0094512D01*
X0128785Y0094375D01*
X0128838Y0094236D01*
X0128886Y0094096D01*
X0128931Y0093955D01*
X0128972Y0093813D01*
X0129010Y0093670D01*
X0129043Y0093526D01*
X0129073Y0093381D01*
X0129099Y0093235D01*
X0129120Y0093089D01*
X0129138Y0092942D01*
X0129152Y0092795D01*
X0129162Y0092647D01*
X0129168Y0092499D01*
X0129170Y0092351D01*
X0129168Y0092203D01*
X0129162Y0092055D01*
X0129152Y0091907D01*
X0129138Y0091760D01*
X0129120Y0091613D01*
X0129099Y0091467D01*
X0129073Y0091321D01*
X0129043Y0091176D01*
X0129010Y0091032D01*
X0128972Y0090889D01*
X0128931Y0090747D01*
X0128886Y0090606D01*
X0128838Y0090466D01*
X0128785Y0090327D01*
X0128729Y0090190D01*
X0128669Y0090055D01*
X0128606Y0089921D01*
X0128539Y0089789D01*
X0128468Y0089659D01*
X0128394Y0089531D01*
X0128317Y0089405D01*
X0128236Y0089281D01*
X0128152Y0089159D01*
X0128065Y0089040D01*
X0127974Y0088923D01*
X0127880Y0088808D01*
X0127784Y0088696D01*
X0127684Y0088586D01*
X0127582Y0088480D01*
X0127476Y0088376D01*
X0127368Y0088275D01*
X0127257Y0088177D01*
X0127144Y0088081D01*
X0127028Y0087989D01*
X0126910Y0087900D01*
X0126789Y0087815D01*
X0126666Y0087732D01*
X0126541Y0087653D01*
X0126414Y0087577D01*
X0126285Y0087505D01*
X0126154Y0087436D01*
X0126021Y0087371D01*
X0125886Y0087310D01*
X0125750Y0087252D01*
X0125613Y0087197D01*
X0125474Y0087147D01*
X0125333Y0087100D01*
X0125192Y0087057D01*
X0125049Y0087017D01*
X0124905Y0086982D01*
X0124761Y0086950D01*
X0124615Y0086923D01*
X0124469Y0086899D01*
X0124322Y0086879D01*
X0124175Y0086863D01*
X0124028Y0086851D01*
X0123880Y0086843D01*
X0123732Y0086839D01*
X0123584Y0086839D01*
X0123436Y0086843D01*
X0123288Y0086851D01*
X0123141Y0086863D01*
X0122994Y0086879D01*
X0122847Y0086899D01*
X0122701Y0086923D01*
X0122555Y0086950D01*
X0122411Y0086982D01*
X0122267Y0087017D01*
X0122124Y0087057D01*
X0121983Y0087100D01*
X0121842Y0087147D01*
X0121703Y0087197D01*
X0121566Y0087252D01*
X0121430Y0087310D01*
X0121295Y0087371D01*
X0121162Y0087436D01*
X0121031Y0087505D01*
X0120902Y0087577D01*
X0120775Y0087653D01*
X0120650Y0087732D01*
X0120527Y0087815D01*
X0120406Y0087900D01*
X0120288Y0087989D01*
X0120172Y0088081D01*
X0120059Y0088177D01*
X0119948Y0088275D01*
X0119840Y0088376D01*
X0119734Y0088480D01*
X0119632Y0088586D01*
X0119532Y0088696D01*
X0119436Y0088808D01*
X0119342Y0088923D01*
X0119251Y0089040D01*
X0119164Y0089159D01*
X0119080Y0089281D01*
X0118999Y0089405D01*
X0118922Y0089531D01*
X0118848Y0089659D01*
X0118777Y0089789D01*
X0118710Y0089921D01*
X0118647Y0090055D01*
X0118587Y0090190D01*
X0118531Y0090327D01*
X0118478Y0090466D01*
X0118430Y0090606D01*
X0118385Y0090747D01*
X0118344Y0090889D01*
X0118306Y0091032D01*
X0118273Y0091176D01*
X0118243Y0091321D01*
X0118217Y0091467D01*
X0118196Y0091613D01*
X0118178Y0091760D01*
X0118164Y0091907D01*
X0118154Y0092055D01*
X0118148Y0092203D01*
X0118146Y0092351D01*
X0080745Y0092351D02*
X0080747Y0092499D01*
X0080753Y0092647D01*
X0080763Y0092795D01*
X0080777Y0092942D01*
X0080795Y0093089D01*
X0080816Y0093235D01*
X0080842Y0093381D01*
X0080872Y0093526D01*
X0080905Y0093670D01*
X0080943Y0093813D01*
X0080984Y0093955D01*
X0081029Y0094096D01*
X0081077Y0094236D01*
X0081130Y0094375D01*
X0081186Y0094512D01*
X0081246Y0094647D01*
X0081309Y0094781D01*
X0081376Y0094913D01*
X0081447Y0095043D01*
X0081521Y0095171D01*
X0081598Y0095297D01*
X0081679Y0095421D01*
X0081763Y0095543D01*
X0081850Y0095662D01*
X0081941Y0095779D01*
X0082035Y0095894D01*
X0082131Y0096006D01*
X0082231Y0096116D01*
X0082333Y0096222D01*
X0082439Y0096326D01*
X0082547Y0096427D01*
X0082658Y0096525D01*
X0082771Y0096621D01*
X0082887Y0096713D01*
X0083005Y0096802D01*
X0083126Y0096887D01*
X0083249Y0096970D01*
X0083374Y0097049D01*
X0083501Y0097125D01*
X0083630Y0097197D01*
X0083761Y0097266D01*
X0083894Y0097331D01*
X0084029Y0097392D01*
X0084165Y0097450D01*
X0084302Y0097505D01*
X0084441Y0097555D01*
X0084582Y0097602D01*
X0084723Y0097645D01*
X0084866Y0097685D01*
X0085010Y0097720D01*
X0085154Y0097752D01*
X0085300Y0097779D01*
X0085446Y0097803D01*
X0085593Y0097823D01*
X0085740Y0097839D01*
X0085887Y0097851D01*
X0086035Y0097859D01*
X0086183Y0097863D01*
X0086331Y0097863D01*
X0086479Y0097859D01*
X0086627Y0097851D01*
X0086774Y0097839D01*
X0086921Y0097823D01*
X0087068Y0097803D01*
X0087214Y0097779D01*
X0087360Y0097752D01*
X0087504Y0097720D01*
X0087648Y0097685D01*
X0087791Y0097645D01*
X0087932Y0097602D01*
X0088073Y0097555D01*
X0088212Y0097505D01*
X0088349Y0097450D01*
X0088485Y0097392D01*
X0088620Y0097331D01*
X0088753Y0097266D01*
X0088884Y0097197D01*
X0089013Y0097125D01*
X0089140Y0097049D01*
X0089265Y0096970D01*
X0089388Y0096887D01*
X0089509Y0096802D01*
X0089627Y0096713D01*
X0089743Y0096621D01*
X0089856Y0096525D01*
X0089967Y0096427D01*
X0090075Y0096326D01*
X0090181Y0096222D01*
X0090283Y0096116D01*
X0090383Y0096006D01*
X0090479Y0095894D01*
X0090573Y0095779D01*
X0090664Y0095662D01*
X0090751Y0095543D01*
X0090835Y0095421D01*
X0090916Y0095297D01*
X0090993Y0095171D01*
X0091067Y0095043D01*
X0091138Y0094913D01*
X0091205Y0094781D01*
X0091268Y0094647D01*
X0091328Y0094512D01*
X0091384Y0094375D01*
X0091437Y0094236D01*
X0091485Y0094096D01*
X0091530Y0093955D01*
X0091571Y0093813D01*
X0091609Y0093670D01*
X0091642Y0093526D01*
X0091672Y0093381D01*
X0091698Y0093235D01*
X0091719Y0093089D01*
X0091737Y0092942D01*
X0091751Y0092795D01*
X0091761Y0092647D01*
X0091767Y0092499D01*
X0091769Y0092351D01*
X0091767Y0092203D01*
X0091761Y0092055D01*
X0091751Y0091907D01*
X0091737Y0091760D01*
X0091719Y0091613D01*
X0091698Y0091467D01*
X0091672Y0091321D01*
X0091642Y0091176D01*
X0091609Y0091032D01*
X0091571Y0090889D01*
X0091530Y0090747D01*
X0091485Y0090606D01*
X0091437Y0090466D01*
X0091384Y0090327D01*
X0091328Y0090190D01*
X0091268Y0090055D01*
X0091205Y0089921D01*
X0091138Y0089789D01*
X0091067Y0089659D01*
X0090993Y0089531D01*
X0090916Y0089405D01*
X0090835Y0089281D01*
X0090751Y0089159D01*
X0090664Y0089040D01*
X0090573Y0088923D01*
X0090479Y0088808D01*
X0090383Y0088696D01*
X0090283Y0088586D01*
X0090181Y0088480D01*
X0090075Y0088376D01*
X0089967Y0088275D01*
X0089856Y0088177D01*
X0089743Y0088081D01*
X0089627Y0087989D01*
X0089509Y0087900D01*
X0089388Y0087815D01*
X0089265Y0087732D01*
X0089140Y0087653D01*
X0089013Y0087577D01*
X0088884Y0087505D01*
X0088753Y0087436D01*
X0088620Y0087371D01*
X0088485Y0087310D01*
X0088349Y0087252D01*
X0088212Y0087197D01*
X0088073Y0087147D01*
X0087932Y0087100D01*
X0087791Y0087057D01*
X0087648Y0087017D01*
X0087504Y0086982D01*
X0087360Y0086950D01*
X0087214Y0086923D01*
X0087068Y0086899D01*
X0086921Y0086879D01*
X0086774Y0086863D01*
X0086627Y0086851D01*
X0086479Y0086843D01*
X0086331Y0086839D01*
X0086183Y0086839D01*
X0086035Y0086843D01*
X0085887Y0086851D01*
X0085740Y0086863D01*
X0085593Y0086879D01*
X0085446Y0086899D01*
X0085300Y0086923D01*
X0085154Y0086950D01*
X0085010Y0086982D01*
X0084866Y0087017D01*
X0084723Y0087057D01*
X0084582Y0087100D01*
X0084441Y0087147D01*
X0084302Y0087197D01*
X0084165Y0087252D01*
X0084029Y0087310D01*
X0083894Y0087371D01*
X0083761Y0087436D01*
X0083630Y0087505D01*
X0083501Y0087577D01*
X0083374Y0087653D01*
X0083249Y0087732D01*
X0083126Y0087815D01*
X0083005Y0087900D01*
X0082887Y0087989D01*
X0082771Y0088081D01*
X0082658Y0088177D01*
X0082547Y0088275D01*
X0082439Y0088376D01*
X0082333Y0088480D01*
X0082231Y0088586D01*
X0082131Y0088696D01*
X0082035Y0088808D01*
X0081941Y0088923D01*
X0081850Y0089040D01*
X0081763Y0089159D01*
X0081679Y0089281D01*
X0081598Y0089405D01*
X0081521Y0089531D01*
X0081447Y0089659D01*
X0081376Y0089789D01*
X0081309Y0089921D01*
X0081246Y0090055D01*
X0081186Y0090190D01*
X0081130Y0090327D01*
X0081077Y0090466D01*
X0081029Y0090606D01*
X0080984Y0090747D01*
X0080943Y0090889D01*
X0080905Y0091032D01*
X0080872Y0091176D01*
X0080842Y0091321D01*
X0080816Y0091467D01*
X0080795Y0091613D01*
X0080777Y0091760D01*
X0080763Y0091907D01*
X0080753Y0092055D01*
X0080747Y0092203D01*
X0080745Y0092351D01*
X0080745Y0127784D02*
X0080747Y0127932D01*
X0080753Y0128080D01*
X0080763Y0128228D01*
X0080777Y0128375D01*
X0080795Y0128522D01*
X0080816Y0128668D01*
X0080842Y0128814D01*
X0080872Y0128959D01*
X0080905Y0129103D01*
X0080943Y0129246D01*
X0080984Y0129388D01*
X0081029Y0129529D01*
X0081077Y0129669D01*
X0081130Y0129808D01*
X0081186Y0129945D01*
X0081246Y0130080D01*
X0081309Y0130214D01*
X0081376Y0130346D01*
X0081447Y0130476D01*
X0081521Y0130604D01*
X0081598Y0130730D01*
X0081679Y0130854D01*
X0081763Y0130976D01*
X0081850Y0131095D01*
X0081941Y0131212D01*
X0082035Y0131327D01*
X0082131Y0131439D01*
X0082231Y0131549D01*
X0082333Y0131655D01*
X0082439Y0131759D01*
X0082547Y0131860D01*
X0082658Y0131958D01*
X0082771Y0132054D01*
X0082887Y0132146D01*
X0083005Y0132235D01*
X0083126Y0132320D01*
X0083249Y0132403D01*
X0083374Y0132482D01*
X0083501Y0132558D01*
X0083630Y0132630D01*
X0083761Y0132699D01*
X0083894Y0132764D01*
X0084029Y0132825D01*
X0084165Y0132883D01*
X0084302Y0132938D01*
X0084441Y0132988D01*
X0084582Y0133035D01*
X0084723Y0133078D01*
X0084866Y0133118D01*
X0085010Y0133153D01*
X0085154Y0133185D01*
X0085300Y0133212D01*
X0085446Y0133236D01*
X0085593Y0133256D01*
X0085740Y0133272D01*
X0085887Y0133284D01*
X0086035Y0133292D01*
X0086183Y0133296D01*
X0086331Y0133296D01*
X0086479Y0133292D01*
X0086627Y0133284D01*
X0086774Y0133272D01*
X0086921Y0133256D01*
X0087068Y0133236D01*
X0087214Y0133212D01*
X0087360Y0133185D01*
X0087504Y0133153D01*
X0087648Y0133118D01*
X0087791Y0133078D01*
X0087932Y0133035D01*
X0088073Y0132988D01*
X0088212Y0132938D01*
X0088349Y0132883D01*
X0088485Y0132825D01*
X0088620Y0132764D01*
X0088753Y0132699D01*
X0088884Y0132630D01*
X0089013Y0132558D01*
X0089140Y0132482D01*
X0089265Y0132403D01*
X0089388Y0132320D01*
X0089509Y0132235D01*
X0089627Y0132146D01*
X0089743Y0132054D01*
X0089856Y0131958D01*
X0089967Y0131860D01*
X0090075Y0131759D01*
X0090181Y0131655D01*
X0090283Y0131549D01*
X0090383Y0131439D01*
X0090479Y0131327D01*
X0090573Y0131212D01*
X0090664Y0131095D01*
X0090751Y0130976D01*
X0090835Y0130854D01*
X0090916Y0130730D01*
X0090993Y0130604D01*
X0091067Y0130476D01*
X0091138Y0130346D01*
X0091205Y0130214D01*
X0091268Y0130080D01*
X0091328Y0129945D01*
X0091384Y0129808D01*
X0091437Y0129669D01*
X0091485Y0129529D01*
X0091530Y0129388D01*
X0091571Y0129246D01*
X0091609Y0129103D01*
X0091642Y0128959D01*
X0091672Y0128814D01*
X0091698Y0128668D01*
X0091719Y0128522D01*
X0091737Y0128375D01*
X0091751Y0128228D01*
X0091761Y0128080D01*
X0091767Y0127932D01*
X0091769Y0127784D01*
X0091767Y0127636D01*
X0091761Y0127488D01*
X0091751Y0127340D01*
X0091737Y0127193D01*
X0091719Y0127046D01*
X0091698Y0126900D01*
X0091672Y0126754D01*
X0091642Y0126609D01*
X0091609Y0126465D01*
X0091571Y0126322D01*
X0091530Y0126180D01*
X0091485Y0126039D01*
X0091437Y0125899D01*
X0091384Y0125760D01*
X0091328Y0125623D01*
X0091268Y0125488D01*
X0091205Y0125354D01*
X0091138Y0125222D01*
X0091067Y0125092D01*
X0090993Y0124964D01*
X0090916Y0124838D01*
X0090835Y0124714D01*
X0090751Y0124592D01*
X0090664Y0124473D01*
X0090573Y0124356D01*
X0090479Y0124241D01*
X0090383Y0124129D01*
X0090283Y0124019D01*
X0090181Y0123913D01*
X0090075Y0123809D01*
X0089967Y0123708D01*
X0089856Y0123610D01*
X0089743Y0123514D01*
X0089627Y0123422D01*
X0089509Y0123333D01*
X0089388Y0123248D01*
X0089265Y0123165D01*
X0089140Y0123086D01*
X0089013Y0123010D01*
X0088884Y0122938D01*
X0088753Y0122869D01*
X0088620Y0122804D01*
X0088485Y0122743D01*
X0088349Y0122685D01*
X0088212Y0122630D01*
X0088073Y0122580D01*
X0087932Y0122533D01*
X0087791Y0122490D01*
X0087648Y0122450D01*
X0087504Y0122415D01*
X0087360Y0122383D01*
X0087214Y0122356D01*
X0087068Y0122332D01*
X0086921Y0122312D01*
X0086774Y0122296D01*
X0086627Y0122284D01*
X0086479Y0122276D01*
X0086331Y0122272D01*
X0086183Y0122272D01*
X0086035Y0122276D01*
X0085887Y0122284D01*
X0085740Y0122296D01*
X0085593Y0122312D01*
X0085446Y0122332D01*
X0085300Y0122356D01*
X0085154Y0122383D01*
X0085010Y0122415D01*
X0084866Y0122450D01*
X0084723Y0122490D01*
X0084582Y0122533D01*
X0084441Y0122580D01*
X0084302Y0122630D01*
X0084165Y0122685D01*
X0084029Y0122743D01*
X0083894Y0122804D01*
X0083761Y0122869D01*
X0083630Y0122938D01*
X0083501Y0123010D01*
X0083374Y0123086D01*
X0083249Y0123165D01*
X0083126Y0123248D01*
X0083005Y0123333D01*
X0082887Y0123422D01*
X0082771Y0123514D01*
X0082658Y0123610D01*
X0082547Y0123708D01*
X0082439Y0123809D01*
X0082333Y0123913D01*
X0082231Y0124019D01*
X0082131Y0124129D01*
X0082035Y0124241D01*
X0081941Y0124356D01*
X0081850Y0124473D01*
X0081763Y0124592D01*
X0081679Y0124714D01*
X0081598Y0124838D01*
X0081521Y0124964D01*
X0081447Y0125092D01*
X0081376Y0125222D01*
X0081309Y0125354D01*
X0081246Y0125488D01*
X0081186Y0125623D01*
X0081130Y0125760D01*
X0081077Y0125899D01*
X0081029Y0126039D01*
X0080984Y0126180D01*
X0080943Y0126322D01*
X0080905Y0126465D01*
X0080872Y0126609D01*
X0080842Y0126754D01*
X0080816Y0126900D01*
X0080795Y0127046D01*
X0080777Y0127193D01*
X0080763Y0127340D01*
X0080753Y0127488D01*
X0080747Y0127636D01*
X0080745Y0127784D01*
X0118146Y0127784D02*
X0118148Y0127932D01*
X0118154Y0128080D01*
X0118164Y0128228D01*
X0118178Y0128375D01*
X0118196Y0128522D01*
X0118217Y0128668D01*
X0118243Y0128814D01*
X0118273Y0128959D01*
X0118306Y0129103D01*
X0118344Y0129246D01*
X0118385Y0129388D01*
X0118430Y0129529D01*
X0118478Y0129669D01*
X0118531Y0129808D01*
X0118587Y0129945D01*
X0118647Y0130080D01*
X0118710Y0130214D01*
X0118777Y0130346D01*
X0118848Y0130476D01*
X0118922Y0130604D01*
X0118999Y0130730D01*
X0119080Y0130854D01*
X0119164Y0130976D01*
X0119251Y0131095D01*
X0119342Y0131212D01*
X0119436Y0131327D01*
X0119532Y0131439D01*
X0119632Y0131549D01*
X0119734Y0131655D01*
X0119840Y0131759D01*
X0119948Y0131860D01*
X0120059Y0131958D01*
X0120172Y0132054D01*
X0120288Y0132146D01*
X0120406Y0132235D01*
X0120527Y0132320D01*
X0120650Y0132403D01*
X0120775Y0132482D01*
X0120902Y0132558D01*
X0121031Y0132630D01*
X0121162Y0132699D01*
X0121295Y0132764D01*
X0121430Y0132825D01*
X0121566Y0132883D01*
X0121703Y0132938D01*
X0121842Y0132988D01*
X0121983Y0133035D01*
X0122124Y0133078D01*
X0122267Y0133118D01*
X0122411Y0133153D01*
X0122555Y0133185D01*
X0122701Y0133212D01*
X0122847Y0133236D01*
X0122994Y0133256D01*
X0123141Y0133272D01*
X0123288Y0133284D01*
X0123436Y0133292D01*
X0123584Y0133296D01*
X0123732Y0133296D01*
X0123880Y0133292D01*
X0124028Y0133284D01*
X0124175Y0133272D01*
X0124322Y0133256D01*
X0124469Y0133236D01*
X0124615Y0133212D01*
X0124761Y0133185D01*
X0124905Y0133153D01*
X0125049Y0133118D01*
X0125192Y0133078D01*
X0125333Y0133035D01*
X0125474Y0132988D01*
X0125613Y0132938D01*
X0125750Y0132883D01*
X0125886Y0132825D01*
X0126021Y0132764D01*
X0126154Y0132699D01*
X0126285Y0132630D01*
X0126414Y0132558D01*
X0126541Y0132482D01*
X0126666Y0132403D01*
X0126789Y0132320D01*
X0126910Y0132235D01*
X0127028Y0132146D01*
X0127144Y0132054D01*
X0127257Y0131958D01*
X0127368Y0131860D01*
X0127476Y0131759D01*
X0127582Y0131655D01*
X0127684Y0131549D01*
X0127784Y0131439D01*
X0127880Y0131327D01*
X0127974Y0131212D01*
X0128065Y0131095D01*
X0128152Y0130976D01*
X0128236Y0130854D01*
X0128317Y0130730D01*
X0128394Y0130604D01*
X0128468Y0130476D01*
X0128539Y0130346D01*
X0128606Y0130214D01*
X0128669Y0130080D01*
X0128729Y0129945D01*
X0128785Y0129808D01*
X0128838Y0129669D01*
X0128886Y0129529D01*
X0128931Y0129388D01*
X0128972Y0129246D01*
X0129010Y0129103D01*
X0129043Y0128959D01*
X0129073Y0128814D01*
X0129099Y0128668D01*
X0129120Y0128522D01*
X0129138Y0128375D01*
X0129152Y0128228D01*
X0129162Y0128080D01*
X0129168Y0127932D01*
X0129170Y0127784D01*
X0129168Y0127636D01*
X0129162Y0127488D01*
X0129152Y0127340D01*
X0129138Y0127193D01*
X0129120Y0127046D01*
X0129099Y0126900D01*
X0129073Y0126754D01*
X0129043Y0126609D01*
X0129010Y0126465D01*
X0128972Y0126322D01*
X0128931Y0126180D01*
X0128886Y0126039D01*
X0128838Y0125899D01*
X0128785Y0125760D01*
X0128729Y0125623D01*
X0128669Y0125488D01*
X0128606Y0125354D01*
X0128539Y0125222D01*
X0128468Y0125092D01*
X0128394Y0124964D01*
X0128317Y0124838D01*
X0128236Y0124714D01*
X0128152Y0124592D01*
X0128065Y0124473D01*
X0127974Y0124356D01*
X0127880Y0124241D01*
X0127784Y0124129D01*
X0127684Y0124019D01*
X0127582Y0123913D01*
X0127476Y0123809D01*
X0127368Y0123708D01*
X0127257Y0123610D01*
X0127144Y0123514D01*
X0127028Y0123422D01*
X0126910Y0123333D01*
X0126789Y0123248D01*
X0126666Y0123165D01*
X0126541Y0123086D01*
X0126414Y0123010D01*
X0126285Y0122938D01*
X0126154Y0122869D01*
X0126021Y0122804D01*
X0125886Y0122743D01*
X0125750Y0122685D01*
X0125613Y0122630D01*
X0125474Y0122580D01*
X0125333Y0122533D01*
X0125192Y0122490D01*
X0125049Y0122450D01*
X0124905Y0122415D01*
X0124761Y0122383D01*
X0124615Y0122356D01*
X0124469Y0122332D01*
X0124322Y0122312D01*
X0124175Y0122296D01*
X0124028Y0122284D01*
X0123880Y0122276D01*
X0123732Y0122272D01*
X0123584Y0122272D01*
X0123436Y0122276D01*
X0123288Y0122284D01*
X0123141Y0122296D01*
X0122994Y0122312D01*
X0122847Y0122332D01*
X0122701Y0122356D01*
X0122555Y0122383D01*
X0122411Y0122415D01*
X0122267Y0122450D01*
X0122124Y0122490D01*
X0121983Y0122533D01*
X0121842Y0122580D01*
X0121703Y0122630D01*
X0121566Y0122685D01*
X0121430Y0122743D01*
X0121295Y0122804D01*
X0121162Y0122869D01*
X0121031Y0122938D01*
X0120902Y0123010D01*
X0120775Y0123086D01*
X0120650Y0123165D01*
X0120527Y0123248D01*
X0120406Y0123333D01*
X0120288Y0123422D01*
X0120172Y0123514D01*
X0120059Y0123610D01*
X0119948Y0123708D01*
X0119840Y0123809D01*
X0119734Y0123913D01*
X0119632Y0124019D01*
X0119532Y0124129D01*
X0119436Y0124241D01*
X0119342Y0124356D01*
X0119251Y0124473D01*
X0119164Y0124592D01*
X0119080Y0124714D01*
X0118999Y0124838D01*
X0118922Y0124964D01*
X0118848Y0125092D01*
X0118777Y0125222D01*
X0118710Y0125354D01*
X0118647Y0125488D01*
X0118587Y0125623D01*
X0118531Y0125760D01*
X0118478Y0125899D01*
X0118430Y0126039D01*
X0118385Y0126180D01*
X0118344Y0126322D01*
X0118306Y0126465D01*
X0118273Y0126609D01*
X0118243Y0126754D01*
X0118217Y0126900D01*
X0118196Y0127046D01*
X0118178Y0127193D01*
X0118164Y0127340D01*
X0118154Y0127488D01*
X0118148Y0127636D01*
X0118146Y0127784D01*
D13*
X0115966Y0126174D02*
X0114415Y0124622D01*
X0116483Y0124622D01*
X0115966Y0123071D02*
X0115966Y0126174D01*
X0113261Y0125656D02*
X0112743Y0126174D01*
X0111709Y0126174D01*
X0111192Y0125656D01*
X0111192Y0123588D01*
X0111709Y0123071D01*
X0112743Y0123071D01*
X0113261Y0123588D01*
X0110814Y0122934D02*
X0110814Y0133934D01*
X0093314Y0133934D01*
X0093314Y0122934D01*
X0110814Y0122934D01*
X0116373Y0117313D02*
X0116373Y0114244D01*
X0131394Y0111328D02*
X0135998Y0111328D01*
X0135998Y0112862D02*
X0135998Y0109793D01*
X0135998Y0108258D02*
X0131394Y0108258D01*
X0132928Y0106724D01*
X0131394Y0105189D01*
X0135998Y0105189D01*
X0132928Y0109793D02*
X0131394Y0111328D01*
X0142598Y0112768D02*
X0142598Y0115870D01*
X0144150Y0115870D01*
X0144667Y0115353D01*
X0144667Y0114319D01*
X0144150Y0113802D01*
X0142598Y0113802D01*
X0143633Y0113802D02*
X0144667Y0112768D01*
X0145821Y0113285D02*
X0146338Y0112768D01*
X0147372Y0112768D01*
X0147889Y0113285D01*
X0147889Y0113802D01*
X0147372Y0114319D01*
X0146855Y0114319D01*
X0147372Y0114319D02*
X0147889Y0114836D01*
X0147889Y0115353D01*
X0147372Y0115870D01*
X0146338Y0115870D01*
X0145821Y0115353D01*
X0159193Y0115674D02*
X0159193Y0112571D01*
X0160744Y0112571D01*
X0161261Y0113088D01*
X0161261Y0115156D01*
X0160744Y0115674D01*
X0159193Y0115674D01*
X0162416Y0115156D02*
X0162933Y0115674D01*
X0163967Y0115674D01*
X0164484Y0115156D01*
X0164484Y0114639D01*
X0162416Y0112571D01*
X0164484Y0112571D01*
X0129327Y0087764D02*
X0129327Y0084661D01*
X0128293Y0084661D02*
X0130361Y0084661D01*
X0128293Y0086730D02*
X0129327Y0087764D01*
X0127139Y0087764D02*
X0126104Y0087764D01*
X0126621Y0087764D02*
X0126621Y0085179D01*
X0126104Y0084661D01*
X0125587Y0084661D01*
X0125070Y0085179D01*
X0116208Y0088076D02*
X0115691Y0087559D01*
X0114656Y0087559D01*
X0114139Y0088076D01*
X0112985Y0088076D02*
X0112468Y0087559D01*
X0111434Y0087559D01*
X0110917Y0088076D01*
X0110917Y0090145D01*
X0111434Y0090662D01*
X0112468Y0090662D01*
X0112985Y0090145D01*
X0114139Y0090145D02*
X0114656Y0090662D01*
X0115691Y0090662D01*
X0116208Y0090145D01*
X0116208Y0089627D01*
X0115691Y0089110D01*
X0116208Y0088593D01*
X0116208Y0088076D01*
X0115691Y0089110D02*
X0115174Y0089110D01*
X0111060Y0093572D02*
X0111060Y0095124D01*
X0110543Y0095641D01*
X0108475Y0095641D01*
X0107958Y0095124D01*
X0107958Y0093572D01*
X0111060Y0093572D01*
X0111060Y0096795D02*
X0111060Y0098863D01*
X0111060Y0097829D02*
X0107958Y0097829D01*
X0108992Y0096795D01*
X0098480Y0095415D02*
X0096412Y0095415D01*
X0097446Y0095415D02*
X0097446Y0098518D01*
X0096412Y0097484D01*
X0095257Y0098001D02*
X0094740Y0098518D01*
X0093706Y0098518D01*
X0093189Y0098001D01*
X0093189Y0095932D01*
X0093706Y0095415D01*
X0094740Y0095415D01*
X0095257Y0095932D01*
X0085482Y0098407D02*
X0082379Y0098407D01*
X0082379Y0099959D01*
X0082896Y0100476D01*
X0083930Y0100476D01*
X0084448Y0099959D01*
X0084448Y0098407D01*
X0084448Y0099442D02*
X0085482Y0100476D01*
X0085482Y0101630D02*
X0085482Y0103699D01*
X0085482Y0102664D02*
X0082379Y0102664D01*
X0083413Y0101630D01*
X0084343Y0115023D02*
X0084343Y0116574D01*
X0083826Y0117091D01*
X0082792Y0117091D01*
X0082275Y0116574D01*
X0082275Y0115023D01*
X0085377Y0115023D01*
X0084343Y0116057D02*
X0085377Y0117091D01*
X0085377Y0118246D02*
X0083309Y0120314D01*
X0082792Y0120314D01*
X0082275Y0119797D01*
X0082275Y0118763D01*
X0082792Y0118246D01*
X0085377Y0118246D02*
X0085377Y0120314D01*
X0092527Y0119831D02*
X0095629Y0119831D01*
X0095629Y0118797D02*
X0095629Y0120865D01*
X0093561Y0118797D02*
X0092527Y0119831D01*
X0093044Y0117643D02*
X0095112Y0117643D01*
X0095629Y0117126D01*
X0095629Y0116091D01*
X0095112Y0115574D01*
X0093044Y0115574D01*
X0092527Y0116091D01*
X0092527Y0117126D01*
X0093044Y0117643D01*
X0094595Y0116608D02*
X0095629Y0117643D01*
X0097320Y0141315D02*
X0097837Y0141315D01*
X0098354Y0141832D01*
X0098354Y0144418D01*
X0097837Y0144418D02*
X0098871Y0144418D01*
X0100025Y0143900D02*
X0100542Y0144418D01*
X0101576Y0144418D01*
X0102094Y0143900D01*
X0102094Y0143383D01*
X0100025Y0141315D01*
X0102094Y0141315D01*
X0097320Y0141315D02*
X0096802Y0141832D01*
X0059777Y0107699D02*
X0059260Y0108216D01*
X0058743Y0108216D01*
X0058226Y0107699D01*
X0058226Y0107182D01*
X0058226Y0107699D02*
X0057709Y0108216D01*
X0057191Y0108216D01*
X0056674Y0107699D01*
X0056674Y0106665D01*
X0057191Y0106148D01*
X0056674Y0104994D02*
X0056674Y0103959D01*
X0056674Y0104477D02*
X0059260Y0104477D01*
X0059777Y0103959D01*
X0059777Y0103442D01*
X0059260Y0102925D01*
X0059260Y0106148D02*
X0059777Y0106665D01*
X0059777Y0107699D01*
X0096409Y0082147D02*
X0096926Y0081630D01*
X0097443Y0081630D01*
X0097960Y0082147D01*
X0097960Y0084733D01*
X0097443Y0084733D02*
X0098477Y0084733D01*
X0099631Y0083181D02*
X0101700Y0083181D01*
X0101183Y0081630D02*
X0101183Y0084733D01*
X0099631Y0083181D01*
D14*
X0096965Y0084359D02*
X0096965Y0074359D01*
X0076965Y0074359D01*
X0076965Y0084359D01*
X0096965Y0084359D01*
X0099142Y0086702D02*
X0099142Y0091702D01*
X0110142Y0091702D01*
X0110142Y0086702D01*
X0099142Y0086702D01*
X0106808Y0084162D02*
X0126808Y0084162D01*
X0126808Y0074162D01*
X0106808Y0074162D01*
X0106808Y0084162D01*
X0114938Y0098296D02*
X0114938Y0121918D01*
X0130686Y0121918D01*
X0130686Y0098296D01*
X0114938Y0098296D01*
X0112906Y0105085D02*
X0112906Y0114085D01*
X0111906Y0111085D02*
X0107906Y0111085D01*
X0110906Y0110585D01*
X0109406Y0109085D01*
X0108406Y0110585D01*
X0108906Y0110585D01*
X0109906Y0110085D01*
X0109406Y0110085D01*
X0109406Y0109585D02*
X0108906Y0110585D01*
X0110406Y0110585D01*
X0109906Y0110085D01*
X0109406Y0109585D01*
X0109406Y0108585D02*
X0107906Y0111085D01*
X0107406Y0111085D01*
X0111406Y0110585D01*
X0109406Y0108585D01*
X0109406Y0108085D02*
X0107406Y0111085D01*
X0106906Y0111085D01*
X0109406Y0108085D01*
X0111906Y0111085D01*
X0105906Y0114085D02*
X0105906Y0105085D01*
X0100833Y0106176D02*
X0100833Y0103176D01*
X0097333Y0103176D01*
X0095833Y0108176D02*
X0095833Y0109676D01*
X0091089Y0109515D02*
X0091089Y0098515D01*
X0086089Y0098515D01*
X0086089Y0109515D01*
X0091089Y0109515D01*
X0091089Y0110296D02*
X0086089Y0110296D01*
X0086089Y0121296D01*
X0091089Y0121296D01*
X0091089Y0110296D01*
X0097333Y0114676D02*
X0100833Y0114676D01*
X0100833Y0111676D01*
X0103814Y0127434D02*
X0103814Y0129434D01*
X0104814Y0128434D02*
X0102814Y0128434D01*
X0097005Y0134713D02*
X0077005Y0134713D01*
X0077005Y0144713D01*
X0097005Y0144713D01*
X0097005Y0134713D01*
X0072477Y0140225D02*
X0072477Y0080225D01*
X0062477Y0080225D01*
X0062477Y0140225D01*
X0072477Y0140225D01*
M02*
