%
M48
M72
T01C0.01200
T02C0.03500
T03C0.11024
%
T01
X116203Y119746
X104503Y114646
X93103Y117946
X100903Y125746
X74503Y126046
X71203Y128746
X94303Y101146
X102403Y100246
X104203Y93346
X113503Y94846
X152503Y110146
T02
X67477Y85225
X67477Y95225
X67477Y105225
X67477Y115225
X67477Y125225
X67477Y135225
X82005Y139713
X92005Y139713
X81965Y79359
X91965Y79359
X111808Y79162
X121808Y79162
T03
X123658Y127784
X86257Y92351
X123658Y92351
X86257Y127784
M30
