%
M48
M72
T01C0.01500
T02C0.02756
T03C0.03200
T04C0.03543
T05C0.03937
T06C0.04000
T07C0.04331
T08C0.05118
T09C0.05512
T10C0.05906
T11C0.07480
T12C0.09055
T13C0.11024
%
T01
X224304Y298810
X191804Y386310
X280804Y413310
X305304Y417810
X344804Y458310
X370804Y408810
X361804Y399810
X423304Y425310
X497804Y190310
T02
X157674Y397259
X127359Y397259
X102556Y350014
X72241Y350014
T03
X76493Y369700
X86493Y369700
X86493Y395290
X76493Y395290
X76493Y420881
X86493Y420881
X238973Y244778
X238973Y234778
X447635Y232810
X447635Y242810
T04
X443855Y195064
X433855Y195064
X423855Y195064
X262753Y195064
X252753Y195064
X242753Y195064
X83461Y198440
X83461Y190566
X83461Y182692
X83461Y206314
X83461Y214188
X83461Y222062
X83461Y229936
X83461Y237810
X83461Y245684
X83461Y253558
X83461Y261432
X83461Y269306
X85430Y314581
X93304Y314581
X77556Y314581
X83461Y153164
X83461Y145290
X83461Y137416
X83461Y113794
X83461Y105920
X83461Y98046
X596178Y418912
X606178Y418912
X601178Y269306
X601178Y261432
X601178Y253558
X601178Y245684
X601178Y237810
X601178Y229936
X601178Y222062
X601178Y214188
X601178Y206314
X601178Y198440
X601178Y190566
X601178Y182692
X601178Y153164
X601178Y145290
X601178Y137416
X601178Y113794
X601178Y105920
X601178Y98046
T05
X566729Y428755
X537201Y428755
X204524Y438597
X194682Y438597
T06
X252910Y403125
X252910Y393125
X252910Y383125
X252910Y373125
X252910Y363125
X252910Y353125
X252910Y343125
X252910Y333125
X252910Y313125
X252910Y303125
X252910Y293125
X252910Y283125
X252910Y273125
X252910Y263125
X252910Y253125
X262910Y253125
X422910Y263625
X422910Y273625
X422910Y283625
X422910Y293625
X442910Y293125
X442910Y303125
X442910Y313125
X442910Y323125
X442910Y333125
X442910Y349125
X442910Y359125
X442910Y369125
X442910Y379125
X442910Y389125
X442910Y399125
X442910Y409125
X442910Y419125
X442910Y429125
X442910Y439125
X422910Y399125
X422910Y389125
X422910Y379125
X422910Y369125
X422910Y359125
X422910Y349125
X422910Y339125
X422910Y329125
X442910Y283125
X442910Y273125
X442910Y263125
T07
X406296Y263597
X406296Y273597
X406296Y283597
X406296Y293597
X406296Y369227
X406296Y379227
X406296Y389227
X406296Y399227
X410390Y432692
X400390Y432692
X420390Y432692
X379052Y432692
X369052Y432692
X359052Y432692
X337713Y432692
X327713Y432692
X317713Y432692
X294879Y432692
X284879Y432692
X274879Y432692
X264879Y432692
X254879Y432692
X244879Y432692
T08
X296060Y394739
X306060Y394739
X316060Y394739
X326060Y394739
X336060Y394739
X346060Y394739
X356060Y394739
X366060Y394739
X376060Y394739
X386060Y394739
X386060Y384739
X386060Y374739
X386060Y364739
X386060Y354739
X386060Y344739
X386060Y334739
X386060Y324739
X386060Y314739
X386060Y304739
X376060Y304739
X366060Y304739
X366060Y314739
X376060Y314739
X376060Y324739
X366060Y324739
X366060Y334739
X376060Y334739
X376060Y344739
X376060Y354739
X366060Y354739
X366060Y344739
X356060Y344739
X356060Y354739
X356060Y364739
X366060Y364739
X376060Y364739
X376060Y374739
X366060Y374739
X366060Y384739
X376060Y384739
X356060Y384739
X356060Y374739
X346060Y374739
X336060Y374739
X336060Y384739
X346060Y384739
X326060Y384739
X316060Y384739
X316060Y374739
X326060Y374739
X326060Y364739
X316060Y364739
X316060Y354739
X326060Y354739
X326060Y344739
X316060Y344739
X316060Y334739
X326060Y334739
X336060Y334739
X346060Y334739
X356060Y334739
X356060Y324739
X356060Y314739
X356060Y304739
X346060Y304739
X336060Y304739
X336060Y314739
X346060Y314739
X346060Y324739
X336060Y324739
X326060Y324739
X316060Y324739
X316060Y314739
X326060Y314739
X326060Y304739
X316060Y304739
X306060Y304739
X296060Y304739
X296060Y314739
X306060Y314739
X306060Y324739
X296060Y324739
X296060Y334739
X306060Y334739
X306060Y344739
X306060Y354739
X296060Y354739
X296060Y344739
X296060Y364739
X306060Y364739
X306060Y374739
X296060Y374739
X296060Y384739
X306060Y384739
X336060Y364739
X346060Y364739
X346060Y354739
X346060Y344739
X336060Y344739
X336060Y354739
X156296Y422849
X156296Y442534
X109052Y442534
X109052Y422849
X107083Y62613
X107083Y42928
X154327Y42928
X154327Y62613
X532280Y62613
X532280Y42928
X579524Y42928
X579524Y62613
T09
X555902Y70487
X555902Y35054
X130705Y35054
X130705Y70487
X132674Y414975
X132674Y450408
T10
X244879Y452377
X254879Y452377
X264879Y452377
X274879Y452377
X284879Y452377
X294879Y452377
X317713Y452377
X327713Y452377
X337713Y452377
X359052Y452377
X369052Y452377
X379052Y452377
X400390Y452377
X410390Y452377
X420390Y452377
X594288Y377574
X604131Y377574
X604131Y361826
X594288Y361826
X594288Y346077
X604131Y346077
X549997Y155448
X549997Y145448
X549997Y135448
X549997Y116077
X549997Y106077
X549997Y96077
X138579Y95763
X138579Y105763
X138579Y115763
X138579Y137101
X138579Y147101
X138579Y157101
T11
X134642Y187081
X134642Y217081
X197635Y208735
X197635Y238735
X134642Y349089
X134642Y379089
X197635Y370743
X197635Y400743
X488973Y398774
X488973Y368774
X551965Y377121
X551965Y347121
X488973Y236766
X488973Y206766
X551965Y215113
X551965Y185113
T12
X599209Y329345
X599209Y394306
T13
X89367Y31117
X195666Y38991
X195666Y161038
X490942Y161038
X490942Y38991
X597241Y31117
X597241Y444503
X89367Y444503
M30
