G75*
%MOIN*%
%OFA0B0*%
%FSLAX25Y25*%
%IPPOS*%
%LPD*%
%AMOC8*
5,1,8,0,0,1.08239X$1,22.5*
%
%ADD10C,0.01000*%
%ADD11C,0.06299*%
%ADD12R,0.07677X0.07677*%
%ADD13C,0.07677*%
%ADD14C,0.00000*%
%ADD15C,0.11220*%
%ADD16C,0.08858*%
%ADD17R,0.06299X0.06299*%
%ADD18C,0.07000*%
%ADD19R,0.08858X0.08858*%
%ADD20C,0.08858*%
%ADD21R,0.06600X0.06600*%
%ADD22C,0.06600*%
%ADD23OC8,0.07677*%
%ADD24C,0.07400*%
%ADD25R,0.07400X0.07400*%
%ADD26R,0.06496X0.06496*%
%ADD27C,0.06496*%
%ADD28R,0.05937X0.05937*%
%ADD29C,0.05937*%
%ADD30C,0.04756*%
%ADD31C,0.03100*%
%ADD32C,0.05906*%
D10*
X0059839Y0021274D02*
X0059839Y0446471D01*
X0059845Y0446947D01*
X0059862Y0447422D01*
X0059891Y0447897D01*
X0059931Y0448371D01*
X0059983Y0448844D01*
X0060046Y0449315D01*
X0060120Y0449785D01*
X0060206Y0450253D01*
X0060303Y0450719D01*
X0060411Y0451182D01*
X0060530Y0451642D01*
X0060661Y0452100D01*
X0060802Y0452554D01*
X0060955Y0453005D01*
X0061118Y0453451D01*
X0061292Y0453894D01*
X0061477Y0454332D01*
X0061672Y0454766D01*
X0061878Y0455195D01*
X0062094Y0455619D01*
X0062320Y0456038D01*
X0062556Y0456451D01*
X0062802Y0456858D01*
X0063058Y0457259D01*
X0063324Y0457653D01*
X0063599Y0458042D01*
X0063883Y0458423D01*
X0064176Y0458797D01*
X0064478Y0459165D01*
X0064790Y0459525D01*
X0065109Y0459877D01*
X0065437Y0460221D01*
X0065774Y0460558D01*
X0066118Y0460886D01*
X0066470Y0461205D01*
X0066830Y0461517D01*
X0067198Y0461819D01*
X0067572Y0462112D01*
X0067953Y0462396D01*
X0068342Y0462671D01*
X0068736Y0462937D01*
X0069137Y0463193D01*
X0069544Y0463439D01*
X0069957Y0463675D01*
X0070376Y0463901D01*
X0070800Y0464117D01*
X0071229Y0464323D01*
X0071663Y0464518D01*
X0072101Y0464703D01*
X0072544Y0464877D01*
X0072990Y0465040D01*
X0073441Y0465193D01*
X0073895Y0465334D01*
X0074353Y0465465D01*
X0074813Y0465584D01*
X0075276Y0465692D01*
X0075742Y0465789D01*
X0076210Y0465875D01*
X0076680Y0465949D01*
X0077151Y0466012D01*
X0077624Y0466064D01*
X0078098Y0466104D01*
X0078573Y0466133D01*
X0079048Y0466150D01*
X0079524Y0466156D01*
X0603146Y0466156D01*
X0603146Y0466157D02*
X0603670Y0466198D01*
X0604195Y0466227D01*
X0604720Y0466242D01*
X0605246Y0466246D01*
X0605771Y0466236D01*
X0606296Y0466214D01*
X0606820Y0466179D01*
X0607343Y0466132D01*
X0607865Y0466071D01*
X0608386Y0465999D01*
X0608904Y0465913D01*
X0609420Y0465815D01*
X0609934Y0465705D01*
X0610445Y0465583D01*
X0610953Y0465448D01*
X0611457Y0465300D01*
X0611958Y0465141D01*
X0612455Y0464970D01*
X0612947Y0464786D01*
X0613435Y0464591D01*
X0613918Y0464384D01*
X0614396Y0464166D01*
X0614868Y0463936D01*
X0615335Y0463694D01*
X0615796Y0463442D01*
X0616250Y0463178D01*
X0616698Y0462904D01*
X0617139Y0462618D01*
X0617574Y0462323D01*
X0618001Y0462016D01*
X0618420Y0461700D01*
X0618832Y0461373D01*
X0619235Y0461037D01*
X0619631Y0460691D01*
X0620018Y0460336D01*
X0620396Y0459971D01*
X0620765Y0459597D01*
X0621125Y0459214D01*
X0621476Y0458823D01*
X0621817Y0458424D01*
X0622149Y0458016D01*
X0622470Y0457601D01*
X0622782Y0457177D01*
X0623083Y0456747D01*
X0623374Y0456309D01*
X0623654Y0455864D01*
X0623923Y0455413D01*
X0624181Y0454955D01*
X0624428Y0454492D01*
X0624664Y0454022D01*
X0624888Y0453547D01*
X0625101Y0453067D01*
X0625302Y0452581D01*
X0625491Y0452091D01*
X0625668Y0451596D01*
X0625834Y0451098D01*
X0625987Y0450595D01*
X0626128Y0450089D01*
X0626257Y0449580D01*
X0626374Y0449067D01*
X0626478Y0448552D01*
X0626569Y0448035D01*
X0626648Y0447515D01*
X0626715Y0446994D01*
X0626769Y0446472D01*
X0626768Y0446471D02*
X0626768Y0021274D01*
X0626769Y0021274D02*
X0626715Y0020752D01*
X0626648Y0020231D01*
X0626569Y0019711D01*
X0626478Y0019194D01*
X0626374Y0018679D01*
X0626257Y0018166D01*
X0626128Y0017657D01*
X0625987Y0017151D01*
X0625834Y0016648D01*
X0625668Y0016150D01*
X0625491Y0015655D01*
X0625302Y0015165D01*
X0625101Y0014679D01*
X0624888Y0014199D01*
X0624664Y0013724D01*
X0624428Y0013254D01*
X0624181Y0012791D01*
X0623923Y0012333D01*
X0623654Y0011882D01*
X0623374Y0011437D01*
X0623083Y0010999D01*
X0622782Y0010569D01*
X0622470Y0010145D01*
X0622149Y0009730D01*
X0621817Y0009322D01*
X0621476Y0008923D01*
X0621125Y0008532D01*
X0620765Y0008149D01*
X0620396Y0007775D01*
X0620018Y0007410D01*
X0619631Y0007055D01*
X0619235Y0006709D01*
X0618832Y0006373D01*
X0618420Y0006046D01*
X0618001Y0005730D01*
X0617574Y0005423D01*
X0617139Y0005128D01*
X0616698Y0004842D01*
X0616250Y0004568D01*
X0615796Y0004304D01*
X0615335Y0004052D01*
X0614868Y0003810D01*
X0614396Y0003580D01*
X0613918Y0003362D01*
X0613435Y0003155D01*
X0612947Y0002960D01*
X0612455Y0002776D01*
X0611958Y0002605D01*
X0611457Y0002446D01*
X0610953Y0002298D01*
X0610445Y0002163D01*
X0609934Y0002041D01*
X0609420Y0001931D01*
X0608904Y0001833D01*
X0608386Y0001747D01*
X0607865Y0001675D01*
X0607343Y0001614D01*
X0606820Y0001567D01*
X0606296Y0001532D01*
X0605771Y0001510D01*
X0605246Y0001500D01*
X0604720Y0001504D01*
X0604195Y0001519D01*
X0603670Y0001548D01*
X0603146Y0001589D01*
X0526375Y0001589D01*
X0525899Y0001595D01*
X0525424Y0001612D01*
X0524949Y0001641D01*
X0524475Y0001681D01*
X0524002Y0001733D01*
X0523531Y0001796D01*
X0523061Y0001870D01*
X0522593Y0001956D01*
X0522127Y0002053D01*
X0521664Y0002161D01*
X0521204Y0002280D01*
X0520746Y0002411D01*
X0520292Y0002552D01*
X0519841Y0002705D01*
X0519395Y0002868D01*
X0518952Y0003042D01*
X0518514Y0003227D01*
X0518080Y0003422D01*
X0517651Y0003628D01*
X0517227Y0003844D01*
X0516808Y0004070D01*
X0516395Y0004306D01*
X0515988Y0004552D01*
X0515587Y0004808D01*
X0515193Y0005074D01*
X0514804Y0005349D01*
X0514423Y0005633D01*
X0514049Y0005926D01*
X0513681Y0006228D01*
X0513321Y0006540D01*
X0512969Y0006859D01*
X0512625Y0007187D01*
X0512288Y0007524D01*
X0511960Y0007868D01*
X0511641Y0008220D01*
X0511329Y0008580D01*
X0511027Y0008948D01*
X0510734Y0009322D01*
X0510450Y0009703D01*
X0510175Y0010092D01*
X0509909Y0010486D01*
X0509653Y0010887D01*
X0509407Y0011294D01*
X0509171Y0011707D01*
X0508945Y0012126D01*
X0508729Y0012550D01*
X0508523Y0012979D01*
X0508328Y0013413D01*
X0508143Y0013851D01*
X0507969Y0014294D01*
X0507806Y0014740D01*
X0507653Y0015191D01*
X0507512Y0015645D01*
X0507381Y0016103D01*
X0507262Y0016563D01*
X0507154Y0017026D01*
X0507057Y0017492D01*
X0506971Y0017960D01*
X0506897Y0018430D01*
X0506834Y0018901D01*
X0506782Y0019374D01*
X0506742Y0019848D01*
X0506713Y0020323D01*
X0506696Y0020798D01*
X0506690Y0021274D01*
X0506690Y0174818D01*
X0506688Y0175008D01*
X0506681Y0175198D01*
X0506669Y0175388D01*
X0506653Y0175578D01*
X0506633Y0175767D01*
X0506607Y0175956D01*
X0506578Y0176144D01*
X0506543Y0176331D01*
X0506504Y0176517D01*
X0506461Y0176702D01*
X0506413Y0176887D01*
X0506361Y0177070D01*
X0506305Y0177251D01*
X0506244Y0177431D01*
X0506178Y0177610D01*
X0506109Y0177787D01*
X0506035Y0177963D01*
X0505957Y0178136D01*
X0505874Y0178308D01*
X0505788Y0178477D01*
X0505698Y0178645D01*
X0505603Y0178810D01*
X0505505Y0178973D01*
X0505402Y0179133D01*
X0505296Y0179291D01*
X0505186Y0179446D01*
X0505073Y0179599D01*
X0504955Y0179749D01*
X0504834Y0179895D01*
X0504710Y0180039D01*
X0504582Y0180180D01*
X0504451Y0180318D01*
X0504316Y0180453D01*
X0504178Y0180584D01*
X0504037Y0180712D01*
X0503893Y0180836D01*
X0503747Y0180957D01*
X0503597Y0181075D01*
X0503444Y0181188D01*
X0503289Y0181298D01*
X0503131Y0181404D01*
X0502971Y0181507D01*
X0502808Y0181605D01*
X0502643Y0181700D01*
X0502475Y0181790D01*
X0502306Y0181876D01*
X0502134Y0181959D01*
X0501961Y0182037D01*
X0501785Y0182111D01*
X0501608Y0182180D01*
X0501429Y0182246D01*
X0501249Y0182307D01*
X0501068Y0182363D01*
X0500885Y0182415D01*
X0500700Y0182463D01*
X0500515Y0182506D01*
X0500329Y0182545D01*
X0500142Y0182580D01*
X0499954Y0182609D01*
X0499765Y0182635D01*
X0499576Y0182655D01*
X0499386Y0182671D01*
X0499196Y0182683D01*
X0499006Y0182690D01*
X0498816Y0182692D01*
X0187792Y0182692D01*
X0187602Y0182690D01*
X0187412Y0182683D01*
X0187222Y0182671D01*
X0187032Y0182655D01*
X0186843Y0182635D01*
X0186654Y0182609D01*
X0186466Y0182580D01*
X0186279Y0182545D01*
X0186093Y0182506D01*
X0185908Y0182463D01*
X0185723Y0182415D01*
X0185540Y0182363D01*
X0185359Y0182307D01*
X0185179Y0182246D01*
X0185000Y0182180D01*
X0184823Y0182111D01*
X0184647Y0182037D01*
X0184474Y0181959D01*
X0184302Y0181876D01*
X0184133Y0181790D01*
X0183965Y0181700D01*
X0183800Y0181605D01*
X0183637Y0181507D01*
X0183477Y0181404D01*
X0183319Y0181298D01*
X0183164Y0181188D01*
X0183011Y0181075D01*
X0182861Y0180957D01*
X0182715Y0180836D01*
X0182571Y0180712D01*
X0182430Y0180584D01*
X0182292Y0180453D01*
X0182157Y0180318D01*
X0182026Y0180180D01*
X0181898Y0180039D01*
X0181774Y0179895D01*
X0181653Y0179749D01*
X0181535Y0179599D01*
X0181422Y0179446D01*
X0181312Y0179291D01*
X0181206Y0179133D01*
X0181103Y0178973D01*
X0181005Y0178810D01*
X0180910Y0178645D01*
X0180820Y0178477D01*
X0180734Y0178308D01*
X0180651Y0178136D01*
X0180573Y0177963D01*
X0180499Y0177787D01*
X0180430Y0177610D01*
X0180364Y0177431D01*
X0180303Y0177251D01*
X0180247Y0177070D01*
X0180195Y0176887D01*
X0180147Y0176702D01*
X0180104Y0176517D01*
X0180065Y0176331D01*
X0180030Y0176144D01*
X0180001Y0175956D01*
X0179975Y0175767D01*
X0179955Y0175578D01*
X0179939Y0175388D01*
X0179927Y0175198D01*
X0179920Y0175008D01*
X0179918Y0174818D01*
X0179918Y0021274D01*
X0179912Y0020798D01*
X0179895Y0020323D01*
X0179866Y0019848D01*
X0179826Y0019374D01*
X0179774Y0018901D01*
X0179711Y0018430D01*
X0179637Y0017960D01*
X0179551Y0017492D01*
X0179454Y0017026D01*
X0179346Y0016563D01*
X0179227Y0016103D01*
X0179096Y0015645D01*
X0178955Y0015191D01*
X0178802Y0014740D01*
X0178639Y0014294D01*
X0178465Y0013851D01*
X0178280Y0013413D01*
X0178085Y0012979D01*
X0177879Y0012550D01*
X0177663Y0012126D01*
X0177437Y0011707D01*
X0177201Y0011294D01*
X0176955Y0010887D01*
X0176699Y0010486D01*
X0176433Y0010092D01*
X0176158Y0009703D01*
X0175874Y0009322D01*
X0175581Y0008948D01*
X0175279Y0008580D01*
X0174967Y0008220D01*
X0174648Y0007868D01*
X0174320Y0007524D01*
X0173983Y0007187D01*
X0173639Y0006859D01*
X0173287Y0006540D01*
X0172927Y0006228D01*
X0172559Y0005926D01*
X0172185Y0005633D01*
X0171804Y0005349D01*
X0171415Y0005074D01*
X0171021Y0004808D01*
X0170620Y0004552D01*
X0170213Y0004306D01*
X0169800Y0004070D01*
X0169381Y0003844D01*
X0168957Y0003628D01*
X0168528Y0003422D01*
X0168094Y0003227D01*
X0167656Y0003042D01*
X0167213Y0002868D01*
X0166767Y0002705D01*
X0166316Y0002552D01*
X0165862Y0002411D01*
X0165404Y0002280D01*
X0164944Y0002161D01*
X0164481Y0002053D01*
X0164015Y0001956D01*
X0163547Y0001870D01*
X0163077Y0001796D01*
X0162606Y0001733D01*
X0162133Y0001681D01*
X0161659Y0001641D01*
X0161184Y0001612D01*
X0160709Y0001595D01*
X0160233Y0001589D01*
X0079524Y0001589D01*
X0079048Y0001595D01*
X0078573Y0001612D01*
X0078098Y0001641D01*
X0077624Y0001681D01*
X0077151Y0001733D01*
X0076680Y0001796D01*
X0076210Y0001870D01*
X0075742Y0001956D01*
X0075276Y0002053D01*
X0074813Y0002161D01*
X0074353Y0002280D01*
X0073895Y0002411D01*
X0073441Y0002552D01*
X0072990Y0002705D01*
X0072544Y0002868D01*
X0072101Y0003042D01*
X0071663Y0003227D01*
X0071229Y0003422D01*
X0070800Y0003628D01*
X0070376Y0003844D01*
X0069957Y0004070D01*
X0069544Y0004306D01*
X0069137Y0004552D01*
X0068736Y0004808D01*
X0068342Y0005074D01*
X0067953Y0005349D01*
X0067572Y0005633D01*
X0067198Y0005926D01*
X0066830Y0006228D01*
X0066470Y0006540D01*
X0066118Y0006859D01*
X0065774Y0007187D01*
X0065437Y0007524D01*
X0065109Y0007868D01*
X0064790Y0008220D01*
X0064478Y0008580D01*
X0064176Y0008948D01*
X0063883Y0009322D01*
X0063599Y0009703D01*
X0063324Y0010092D01*
X0063058Y0010486D01*
X0062802Y0010887D01*
X0062556Y0011294D01*
X0062320Y0011707D01*
X0062094Y0012126D01*
X0061878Y0012550D01*
X0061672Y0012979D01*
X0061477Y0013413D01*
X0061292Y0013851D01*
X0061118Y0014294D01*
X0060955Y0014740D01*
X0060802Y0015191D01*
X0060661Y0015645D01*
X0060530Y0016103D01*
X0060411Y0016563D01*
X0060303Y0017026D01*
X0060206Y0017492D01*
X0060120Y0017960D01*
X0060046Y0018430D01*
X0059983Y0018901D01*
X0059931Y0019374D01*
X0059891Y0019848D01*
X0059862Y0020323D01*
X0059845Y0020798D01*
X0059839Y0021274D01*
X0095804Y0095810D02*
X0088054Y0103560D01*
X0083804Y0099310D01*
X0083804Y0098310D01*
X0083461Y0098046D01*
X0088054Y0103560D02*
X0088304Y0103810D01*
X0088304Y0132810D01*
X0083804Y0137310D01*
X0083461Y0137416D01*
X0083304Y0137810D01*
X0078804Y0142310D01*
X0078804Y0177810D01*
X0087304Y0177810D01*
X0104304Y0194810D01*
X0242304Y0194810D01*
X0242753Y0195064D01*
X0249804Y0184810D02*
X0166304Y0184810D01*
X0138804Y0157310D01*
X0138579Y0157101D01*
X0140304Y0158310D01*
X0149304Y0149310D01*
X0149304Y0134810D01*
X0138804Y0124310D01*
X0138804Y0115810D01*
X0138579Y0115763D01*
X0127804Y0117810D02*
X0138304Y0128310D01*
X0138304Y0136810D01*
X0138579Y0137101D01*
X0138579Y0147101D02*
X0138304Y0147310D01*
X0089304Y0147310D01*
X0083804Y0152810D01*
X0083461Y0153164D01*
X0078804Y0177810D02*
X0078804Y0192810D01*
X0083304Y0197310D01*
X0083304Y0198310D01*
X0083461Y0198440D01*
X0083804Y0190810D02*
X0083461Y0190566D01*
X0083804Y0190810D02*
X0196304Y0303310D01*
X0252804Y0303310D01*
X0252910Y0303125D01*
X0252804Y0312810D02*
X0252910Y0313125D01*
X0252804Y0312810D02*
X0182304Y0312810D01*
X0083804Y0214310D01*
X0083461Y0214188D01*
X0127804Y0117810D02*
X0127804Y0095810D01*
X0138304Y0095810D01*
X0138579Y0095763D01*
X0127804Y0095810D02*
X0095804Y0095810D01*
X0249804Y0184810D02*
X0259804Y0194810D01*
X0262304Y0194810D01*
X0262753Y0195064D01*
X0262804Y0195310D01*
X0416804Y0195310D01*
X0421804Y0200310D01*
X0438804Y0200310D01*
X0443804Y0195310D01*
X0443855Y0195064D01*
X0431804Y0189810D02*
X0492804Y0189810D01*
X0496804Y0193810D01*
X0511804Y0193810D01*
X0549804Y0155810D01*
X0549997Y0155448D01*
X0549997Y0145448D02*
X0550304Y0145310D01*
X0553304Y0145310D01*
X0560804Y0137810D01*
X0596304Y0137810D01*
X0596304Y0231810D01*
X0600804Y0236310D01*
X0600804Y0237810D01*
X0601178Y0237810D01*
X0606304Y0236310D02*
X0606304Y0248310D01*
X0601304Y0253310D01*
X0601178Y0253558D01*
X0601304Y0260310D02*
X0601178Y0261432D01*
X0601304Y0261310D01*
X0601304Y0260310D01*
X0570304Y0229310D01*
X0480304Y0229310D01*
X0461804Y0247810D01*
X0335304Y0247810D01*
X0300304Y0282810D01*
X0253304Y0282810D01*
X0252910Y0283125D01*
X0291304Y0304810D02*
X0253304Y0342810D01*
X0252910Y0343125D01*
X0252910Y0373125D02*
X0253304Y0373310D01*
X0274804Y0373310D01*
X0295804Y0394310D01*
X0296060Y0394739D01*
X0282304Y0405310D02*
X0265304Y0422310D01*
X0265304Y0432310D01*
X0264879Y0432692D01*
X0256804Y0427810D02*
X0249804Y0427810D01*
X0245304Y0432310D01*
X0244879Y0432692D01*
X0256804Y0427810D02*
X0281304Y0403310D01*
X0385304Y0403310D01*
X0391804Y0396810D01*
X0391804Y0346810D01*
X0442804Y0295810D01*
X0442804Y0293310D01*
X0442910Y0293125D01*
X0442910Y0313125D02*
X0442804Y0313310D01*
X0428304Y0313310D01*
X0393804Y0347810D01*
X0393804Y0397810D01*
X0386304Y0405310D01*
X0282304Y0405310D01*
X0281304Y0400310D02*
X0361304Y0400310D01*
X0361804Y0399810D01*
X0370804Y0408810D02*
X0385804Y0408810D01*
X0397304Y0397310D01*
X0397304Y0347310D01*
X0420804Y0323810D01*
X0425304Y0323810D01*
X0428304Y0326810D01*
X0428304Y0373310D01*
X0422804Y0378810D01*
X0422910Y0379125D01*
X0422304Y0378810D01*
X0406304Y0378810D01*
X0406296Y0379227D01*
X0401304Y0373810D02*
X0405804Y0369310D01*
X0406296Y0369227D01*
X0406804Y0369310D01*
X0422804Y0369310D01*
X0422910Y0369125D01*
X0428304Y0376310D02*
X0428304Y0401310D01*
X0401804Y0427810D01*
X0390804Y0427810D01*
X0376804Y0441810D01*
X0282304Y0441810D01*
X0275304Y0448810D01*
X0275304Y0452310D01*
X0274879Y0452377D01*
X0262304Y0462810D02*
X0255304Y0455810D01*
X0255304Y0452810D01*
X0254879Y0452377D01*
X0262304Y0462810D02*
X0340304Y0462810D01*
X0344804Y0458310D01*
X0346304Y0452810D02*
X0337804Y0452810D01*
X0337713Y0452377D01*
X0346304Y0452810D02*
X0356304Y0462810D01*
X0552304Y0462810D01*
X0595804Y0419310D01*
X0596178Y0418912D01*
X0442804Y0361810D02*
X0442804Y0359310D01*
X0442910Y0359125D01*
X0442804Y0361810D02*
X0428304Y0376310D01*
X0422804Y0359310D02*
X0409304Y0359310D01*
X0399304Y0369310D01*
X0399304Y0398310D01*
X0386804Y0410810D01*
X0383804Y0410810D01*
X0364304Y0430310D01*
X0364304Y0436310D01*
X0362804Y0437810D01*
X0218804Y0437810D01*
X0152804Y0371810D01*
X0133804Y0371810D01*
X0077804Y0315810D01*
X0077804Y0314810D01*
X0077556Y0314581D01*
X0072241Y0350014D02*
X0072304Y0350310D01*
X0080804Y0350310D01*
X0127304Y0396810D01*
X0127359Y0397259D01*
X0094304Y0410310D02*
X0188304Y0410310D01*
X0217804Y0439810D01*
X0368804Y0439810D01*
X0374304Y0434310D01*
X0374304Y0426310D01*
X0401304Y0399310D01*
X0401304Y0373810D01*
X0422804Y0359310D02*
X0422910Y0359125D01*
X0317304Y0429810D02*
X0305304Y0417810D01*
X0317304Y0429810D02*
X0317304Y0432310D01*
X0317713Y0432692D01*
X0281304Y0400310D02*
X0272804Y0408810D01*
X0250804Y0408810D01*
X0228304Y0386310D01*
X0191804Y0386310D01*
X0187804Y0423310D02*
X0156304Y0423310D01*
X0156296Y0422849D01*
X0187804Y0423310D02*
X0202804Y0438310D01*
X0204304Y0438310D01*
X0204524Y0438597D01*
X0094304Y0410310D02*
X0079304Y0395310D01*
X0076804Y0395310D01*
X0076493Y0395290D01*
X0238973Y0234778D02*
X0239304Y0234810D01*
X0439304Y0234810D01*
X0447304Y0242810D01*
X0447635Y0242810D01*
X0426804Y0194810D02*
X0431804Y0189810D01*
X0426804Y0194810D02*
X0424304Y0194810D01*
X0423855Y0195064D01*
X0497804Y0190310D02*
X0526804Y0161310D01*
X0526804Y0048310D01*
X0531804Y0043310D01*
X0532280Y0042928D01*
X0601178Y0098046D02*
X0601304Y0098310D01*
X0608304Y0105310D01*
X0608304Y0253310D01*
X0601304Y0260310D01*
X0606304Y0236310D02*
X0601304Y0231310D01*
X0601304Y0230310D01*
X0601178Y0229936D01*
X0601178Y0153164D02*
X0601304Y0152810D01*
X0606304Y0147810D01*
X0606304Y0135810D01*
X0601304Y0130810D01*
X0601304Y0116310D01*
X0601178Y0113794D01*
X0601304Y0113810D01*
X0601304Y0116310D01*
X0550304Y0116310D01*
X0549997Y0116077D01*
X0596304Y0137810D02*
X0600804Y0137810D01*
X0601178Y0137416D01*
X0296060Y0304739D02*
X0295804Y0304810D01*
X0291304Y0304810D01*
D11*
X0093304Y0314581D03*
X0085430Y0314581D03*
X0077556Y0314581D03*
X0083461Y0269306D03*
X0083461Y0261432D03*
X0083461Y0253558D03*
X0083461Y0245684D03*
X0083461Y0237810D03*
X0083461Y0229936D03*
X0083461Y0222062D03*
X0083461Y0214188D03*
X0083461Y0206314D03*
X0083461Y0198440D03*
X0083461Y0190566D03*
X0083461Y0153164D03*
X0083461Y0145290D03*
X0083461Y0137416D03*
X0083461Y0113794D03*
X0083461Y0105920D03*
X0083461Y0098046D03*
X0601178Y0098046D03*
X0601178Y0105920D03*
X0601178Y0113794D03*
X0601178Y0137416D03*
X0601178Y0145290D03*
X0601178Y0153164D03*
X0601178Y0182692D03*
X0601178Y0190566D03*
X0601178Y0198440D03*
X0601178Y0206314D03*
X0601178Y0214188D03*
X0601178Y0222062D03*
X0601178Y0229936D03*
X0601178Y0237810D03*
X0601178Y0245684D03*
X0601178Y0253558D03*
X0601178Y0261432D03*
D12*
X0532280Y0062613D03*
X0107083Y0062613D03*
X0109052Y0442534D03*
D13*
X0109052Y0422849D03*
X0156296Y0422849D03*
X0156296Y0442534D03*
X0154327Y0062613D03*
X0154327Y0042928D03*
X0107083Y0042928D03*
X0532280Y0042928D03*
X0579524Y0042928D03*
X0579524Y0062613D03*
D14*
X0553146Y0070487D02*
X0553148Y0070592D01*
X0553154Y0070697D01*
X0553164Y0070801D01*
X0553178Y0070905D01*
X0553196Y0071009D01*
X0553218Y0071111D01*
X0553243Y0071213D01*
X0553273Y0071314D01*
X0553306Y0071413D01*
X0553343Y0071511D01*
X0553384Y0071608D01*
X0553429Y0071703D01*
X0553477Y0071796D01*
X0553528Y0071888D01*
X0553584Y0071977D01*
X0553642Y0072064D01*
X0553704Y0072149D01*
X0553768Y0072232D01*
X0553836Y0072312D01*
X0553907Y0072389D01*
X0553981Y0072463D01*
X0554058Y0072535D01*
X0554137Y0072604D01*
X0554219Y0072669D01*
X0554303Y0072732D01*
X0554390Y0072791D01*
X0554479Y0072847D01*
X0554570Y0072900D01*
X0554663Y0072949D01*
X0554757Y0072994D01*
X0554853Y0073036D01*
X0554951Y0073074D01*
X0555050Y0073108D01*
X0555151Y0073139D01*
X0555252Y0073165D01*
X0555355Y0073188D01*
X0555458Y0073207D01*
X0555562Y0073222D01*
X0555666Y0073233D01*
X0555771Y0073240D01*
X0555876Y0073243D01*
X0555981Y0073242D01*
X0556086Y0073237D01*
X0556190Y0073228D01*
X0556294Y0073215D01*
X0556398Y0073198D01*
X0556501Y0073177D01*
X0556603Y0073152D01*
X0556704Y0073124D01*
X0556803Y0073091D01*
X0556902Y0073055D01*
X0556999Y0073015D01*
X0557094Y0072972D01*
X0557188Y0072924D01*
X0557280Y0072874D01*
X0557370Y0072820D01*
X0557458Y0072762D01*
X0557543Y0072701D01*
X0557626Y0072637D01*
X0557707Y0072570D01*
X0557785Y0072500D01*
X0557860Y0072426D01*
X0557932Y0072351D01*
X0558002Y0072272D01*
X0558068Y0072191D01*
X0558132Y0072107D01*
X0558192Y0072021D01*
X0558248Y0071933D01*
X0558302Y0071842D01*
X0558352Y0071750D01*
X0558398Y0071656D01*
X0558441Y0071560D01*
X0558480Y0071462D01*
X0558515Y0071364D01*
X0558546Y0071263D01*
X0558574Y0071162D01*
X0558598Y0071060D01*
X0558618Y0070957D01*
X0558634Y0070853D01*
X0558646Y0070749D01*
X0558654Y0070644D01*
X0558658Y0070539D01*
X0558658Y0070435D01*
X0558654Y0070330D01*
X0558646Y0070225D01*
X0558634Y0070121D01*
X0558618Y0070017D01*
X0558598Y0069914D01*
X0558574Y0069812D01*
X0558546Y0069711D01*
X0558515Y0069610D01*
X0558480Y0069512D01*
X0558441Y0069414D01*
X0558398Y0069318D01*
X0558352Y0069224D01*
X0558302Y0069132D01*
X0558248Y0069041D01*
X0558192Y0068953D01*
X0558132Y0068867D01*
X0558068Y0068783D01*
X0558002Y0068702D01*
X0557932Y0068623D01*
X0557860Y0068548D01*
X0557785Y0068474D01*
X0557707Y0068404D01*
X0557626Y0068337D01*
X0557543Y0068273D01*
X0557458Y0068212D01*
X0557370Y0068154D01*
X0557280Y0068100D01*
X0557188Y0068050D01*
X0557094Y0068002D01*
X0556999Y0067959D01*
X0556902Y0067919D01*
X0556803Y0067883D01*
X0556704Y0067850D01*
X0556603Y0067822D01*
X0556501Y0067797D01*
X0556398Y0067776D01*
X0556294Y0067759D01*
X0556190Y0067746D01*
X0556086Y0067737D01*
X0555981Y0067732D01*
X0555876Y0067731D01*
X0555771Y0067734D01*
X0555666Y0067741D01*
X0555562Y0067752D01*
X0555458Y0067767D01*
X0555355Y0067786D01*
X0555252Y0067809D01*
X0555151Y0067835D01*
X0555050Y0067866D01*
X0554951Y0067900D01*
X0554853Y0067938D01*
X0554757Y0067980D01*
X0554663Y0068025D01*
X0554570Y0068074D01*
X0554479Y0068127D01*
X0554390Y0068183D01*
X0554303Y0068242D01*
X0554219Y0068305D01*
X0554137Y0068370D01*
X0554058Y0068439D01*
X0553981Y0068511D01*
X0553907Y0068585D01*
X0553836Y0068662D01*
X0553768Y0068742D01*
X0553704Y0068825D01*
X0553642Y0068910D01*
X0553584Y0068997D01*
X0553528Y0069086D01*
X0553477Y0069178D01*
X0553429Y0069271D01*
X0553384Y0069366D01*
X0553343Y0069463D01*
X0553306Y0069561D01*
X0553273Y0069660D01*
X0553243Y0069761D01*
X0553218Y0069863D01*
X0553196Y0069965D01*
X0553178Y0070069D01*
X0553164Y0070173D01*
X0553154Y0070277D01*
X0553148Y0070382D01*
X0553146Y0070487D01*
X0553146Y0035054D02*
X0553148Y0035159D01*
X0553154Y0035264D01*
X0553164Y0035368D01*
X0553178Y0035472D01*
X0553196Y0035576D01*
X0553218Y0035678D01*
X0553243Y0035780D01*
X0553273Y0035881D01*
X0553306Y0035980D01*
X0553343Y0036078D01*
X0553384Y0036175D01*
X0553429Y0036270D01*
X0553477Y0036363D01*
X0553528Y0036455D01*
X0553584Y0036544D01*
X0553642Y0036631D01*
X0553704Y0036716D01*
X0553768Y0036799D01*
X0553836Y0036879D01*
X0553907Y0036956D01*
X0553981Y0037030D01*
X0554058Y0037102D01*
X0554137Y0037171D01*
X0554219Y0037236D01*
X0554303Y0037299D01*
X0554390Y0037358D01*
X0554479Y0037414D01*
X0554570Y0037467D01*
X0554663Y0037516D01*
X0554757Y0037561D01*
X0554853Y0037603D01*
X0554951Y0037641D01*
X0555050Y0037675D01*
X0555151Y0037706D01*
X0555252Y0037732D01*
X0555355Y0037755D01*
X0555458Y0037774D01*
X0555562Y0037789D01*
X0555666Y0037800D01*
X0555771Y0037807D01*
X0555876Y0037810D01*
X0555981Y0037809D01*
X0556086Y0037804D01*
X0556190Y0037795D01*
X0556294Y0037782D01*
X0556398Y0037765D01*
X0556501Y0037744D01*
X0556603Y0037719D01*
X0556704Y0037691D01*
X0556803Y0037658D01*
X0556902Y0037622D01*
X0556999Y0037582D01*
X0557094Y0037539D01*
X0557188Y0037491D01*
X0557280Y0037441D01*
X0557370Y0037387D01*
X0557458Y0037329D01*
X0557543Y0037268D01*
X0557626Y0037204D01*
X0557707Y0037137D01*
X0557785Y0037067D01*
X0557860Y0036993D01*
X0557932Y0036918D01*
X0558002Y0036839D01*
X0558068Y0036758D01*
X0558132Y0036674D01*
X0558192Y0036588D01*
X0558248Y0036500D01*
X0558302Y0036409D01*
X0558352Y0036317D01*
X0558398Y0036223D01*
X0558441Y0036127D01*
X0558480Y0036029D01*
X0558515Y0035931D01*
X0558546Y0035830D01*
X0558574Y0035729D01*
X0558598Y0035627D01*
X0558618Y0035524D01*
X0558634Y0035420D01*
X0558646Y0035316D01*
X0558654Y0035211D01*
X0558658Y0035106D01*
X0558658Y0035002D01*
X0558654Y0034897D01*
X0558646Y0034792D01*
X0558634Y0034688D01*
X0558618Y0034584D01*
X0558598Y0034481D01*
X0558574Y0034379D01*
X0558546Y0034278D01*
X0558515Y0034177D01*
X0558480Y0034079D01*
X0558441Y0033981D01*
X0558398Y0033885D01*
X0558352Y0033791D01*
X0558302Y0033699D01*
X0558248Y0033608D01*
X0558192Y0033520D01*
X0558132Y0033434D01*
X0558068Y0033350D01*
X0558002Y0033269D01*
X0557932Y0033190D01*
X0557860Y0033115D01*
X0557785Y0033041D01*
X0557707Y0032971D01*
X0557626Y0032904D01*
X0557543Y0032840D01*
X0557458Y0032779D01*
X0557370Y0032721D01*
X0557280Y0032667D01*
X0557188Y0032617D01*
X0557094Y0032569D01*
X0556999Y0032526D01*
X0556902Y0032486D01*
X0556803Y0032450D01*
X0556704Y0032417D01*
X0556603Y0032389D01*
X0556501Y0032364D01*
X0556398Y0032343D01*
X0556294Y0032326D01*
X0556190Y0032313D01*
X0556086Y0032304D01*
X0555981Y0032299D01*
X0555876Y0032298D01*
X0555771Y0032301D01*
X0555666Y0032308D01*
X0555562Y0032319D01*
X0555458Y0032334D01*
X0555355Y0032353D01*
X0555252Y0032376D01*
X0555151Y0032402D01*
X0555050Y0032433D01*
X0554951Y0032467D01*
X0554853Y0032505D01*
X0554757Y0032547D01*
X0554663Y0032592D01*
X0554570Y0032641D01*
X0554479Y0032694D01*
X0554390Y0032750D01*
X0554303Y0032809D01*
X0554219Y0032872D01*
X0554137Y0032937D01*
X0554058Y0033006D01*
X0553981Y0033078D01*
X0553907Y0033152D01*
X0553836Y0033229D01*
X0553768Y0033309D01*
X0553704Y0033392D01*
X0553642Y0033477D01*
X0553584Y0033564D01*
X0553528Y0033653D01*
X0553477Y0033745D01*
X0553429Y0033838D01*
X0553384Y0033933D01*
X0553343Y0034030D01*
X0553306Y0034128D01*
X0553273Y0034227D01*
X0553243Y0034328D01*
X0553218Y0034430D01*
X0553196Y0034532D01*
X0553178Y0034636D01*
X0553164Y0034740D01*
X0553154Y0034844D01*
X0553148Y0034949D01*
X0553146Y0035054D01*
X0591729Y0031117D02*
X0591731Y0031265D01*
X0591737Y0031413D01*
X0591747Y0031561D01*
X0591761Y0031708D01*
X0591779Y0031855D01*
X0591800Y0032001D01*
X0591826Y0032147D01*
X0591856Y0032292D01*
X0591889Y0032436D01*
X0591927Y0032579D01*
X0591968Y0032721D01*
X0592013Y0032862D01*
X0592061Y0033002D01*
X0592114Y0033141D01*
X0592170Y0033278D01*
X0592230Y0033413D01*
X0592293Y0033547D01*
X0592360Y0033679D01*
X0592431Y0033809D01*
X0592505Y0033937D01*
X0592582Y0034063D01*
X0592663Y0034187D01*
X0592747Y0034309D01*
X0592834Y0034428D01*
X0592925Y0034545D01*
X0593019Y0034660D01*
X0593115Y0034772D01*
X0593215Y0034882D01*
X0593317Y0034988D01*
X0593423Y0035092D01*
X0593531Y0035193D01*
X0593642Y0035291D01*
X0593755Y0035387D01*
X0593871Y0035479D01*
X0593989Y0035568D01*
X0594110Y0035653D01*
X0594233Y0035736D01*
X0594358Y0035815D01*
X0594485Y0035891D01*
X0594614Y0035963D01*
X0594745Y0036032D01*
X0594878Y0036097D01*
X0595013Y0036158D01*
X0595149Y0036216D01*
X0595286Y0036271D01*
X0595425Y0036321D01*
X0595566Y0036368D01*
X0595707Y0036411D01*
X0595850Y0036451D01*
X0595994Y0036486D01*
X0596138Y0036518D01*
X0596284Y0036545D01*
X0596430Y0036569D01*
X0596577Y0036589D01*
X0596724Y0036605D01*
X0596871Y0036617D01*
X0597019Y0036625D01*
X0597167Y0036629D01*
X0597315Y0036629D01*
X0597463Y0036625D01*
X0597611Y0036617D01*
X0597758Y0036605D01*
X0597905Y0036589D01*
X0598052Y0036569D01*
X0598198Y0036545D01*
X0598344Y0036518D01*
X0598488Y0036486D01*
X0598632Y0036451D01*
X0598775Y0036411D01*
X0598916Y0036368D01*
X0599057Y0036321D01*
X0599196Y0036271D01*
X0599333Y0036216D01*
X0599469Y0036158D01*
X0599604Y0036097D01*
X0599737Y0036032D01*
X0599868Y0035963D01*
X0599997Y0035891D01*
X0600124Y0035815D01*
X0600249Y0035736D01*
X0600372Y0035653D01*
X0600493Y0035568D01*
X0600611Y0035479D01*
X0600727Y0035387D01*
X0600840Y0035291D01*
X0600951Y0035193D01*
X0601059Y0035092D01*
X0601165Y0034988D01*
X0601267Y0034882D01*
X0601367Y0034772D01*
X0601463Y0034660D01*
X0601557Y0034545D01*
X0601648Y0034428D01*
X0601735Y0034309D01*
X0601819Y0034187D01*
X0601900Y0034063D01*
X0601977Y0033937D01*
X0602051Y0033809D01*
X0602122Y0033679D01*
X0602189Y0033547D01*
X0602252Y0033413D01*
X0602312Y0033278D01*
X0602368Y0033141D01*
X0602421Y0033002D01*
X0602469Y0032862D01*
X0602514Y0032721D01*
X0602555Y0032579D01*
X0602593Y0032436D01*
X0602626Y0032292D01*
X0602656Y0032147D01*
X0602682Y0032001D01*
X0602703Y0031855D01*
X0602721Y0031708D01*
X0602735Y0031561D01*
X0602745Y0031413D01*
X0602751Y0031265D01*
X0602753Y0031117D01*
X0602751Y0030969D01*
X0602745Y0030821D01*
X0602735Y0030673D01*
X0602721Y0030526D01*
X0602703Y0030379D01*
X0602682Y0030233D01*
X0602656Y0030087D01*
X0602626Y0029942D01*
X0602593Y0029798D01*
X0602555Y0029655D01*
X0602514Y0029513D01*
X0602469Y0029372D01*
X0602421Y0029232D01*
X0602368Y0029093D01*
X0602312Y0028956D01*
X0602252Y0028821D01*
X0602189Y0028687D01*
X0602122Y0028555D01*
X0602051Y0028425D01*
X0601977Y0028297D01*
X0601900Y0028171D01*
X0601819Y0028047D01*
X0601735Y0027925D01*
X0601648Y0027806D01*
X0601557Y0027689D01*
X0601463Y0027574D01*
X0601367Y0027462D01*
X0601267Y0027352D01*
X0601165Y0027246D01*
X0601059Y0027142D01*
X0600951Y0027041D01*
X0600840Y0026943D01*
X0600727Y0026847D01*
X0600611Y0026755D01*
X0600493Y0026666D01*
X0600372Y0026581D01*
X0600249Y0026498D01*
X0600124Y0026419D01*
X0599997Y0026343D01*
X0599868Y0026271D01*
X0599737Y0026202D01*
X0599604Y0026137D01*
X0599469Y0026076D01*
X0599333Y0026018D01*
X0599196Y0025963D01*
X0599057Y0025913D01*
X0598916Y0025866D01*
X0598775Y0025823D01*
X0598632Y0025783D01*
X0598488Y0025748D01*
X0598344Y0025716D01*
X0598198Y0025689D01*
X0598052Y0025665D01*
X0597905Y0025645D01*
X0597758Y0025629D01*
X0597611Y0025617D01*
X0597463Y0025609D01*
X0597315Y0025605D01*
X0597167Y0025605D01*
X0597019Y0025609D01*
X0596871Y0025617D01*
X0596724Y0025629D01*
X0596577Y0025645D01*
X0596430Y0025665D01*
X0596284Y0025689D01*
X0596138Y0025716D01*
X0595994Y0025748D01*
X0595850Y0025783D01*
X0595707Y0025823D01*
X0595566Y0025866D01*
X0595425Y0025913D01*
X0595286Y0025963D01*
X0595149Y0026018D01*
X0595013Y0026076D01*
X0594878Y0026137D01*
X0594745Y0026202D01*
X0594614Y0026271D01*
X0594485Y0026343D01*
X0594358Y0026419D01*
X0594233Y0026498D01*
X0594110Y0026581D01*
X0593989Y0026666D01*
X0593871Y0026755D01*
X0593755Y0026847D01*
X0593642Y0026943D01*
X0593531Y0027041D01*
X0593423Y0027142D01*
X0593317Y0027246D01*
X0593215Y0027352D01*
X0593115Y0027462D01*
X0593019Y0027574D01*
X0592925Y0027689D01*
X0592834Y0027806D01*
X0592747Y0027925D01*
X0592663Y0028047D01*
X0592582Y0028171D01*
X0592505Y0028297D01*
X0592431Y0028425D01*
X0592360Y0028555D01*
X0592293Y0028687D01*
X0592230Y0028821D01*
X0592170Y0028956D01*
X0592114Y0029093D01*
X0592061Y0029232D01*
X0592013Y0029372D01*
X0591968Y0029513D01*
X0591927Y0029655D01*
X0591889Y0029798D01*
X0591856Y0029942D01*
X0591826Y0030087D01*
X0591800Y0030233D01*
X0591779Y0030379D01*
X0591761Y0030526D01*
X0591747Y0030673D01*
X0591737Y0030821D01*
X0591731Y0030969D01*
X0591729Y0031117D01*
X0485430Y0038991D02*
X0485432Y0039139D01*
X0485438Y0039287D01*
X0485448Y0039435D01*
X0485462Y0039582D01*
X0485480Y0039729D01*
X0485501Y0039875D01*
X0485527Y0040021D01*
X0485557Y0040166D01*
X0485590Y0040310D01*
X0485628Y0040453D01*
X0485669Y0040595D01*
X0485714Y0040736D01*
X0485762Y0040876D01*
X0485815Y0041015D01*
X0485871Y0041152D01*
X0485931Y0041287D01*
X0485994Y0041421D01*
X0486061Y0041553D01*
X0486132Y0041683D01*
X0486206Y0041811D01*
X0486283Y0041937D01*
X0486364Y0042061D01*
X0486448Y0042183D01*
X0486535Y0042302D01*
X0486626Y0042419D01*
X0486720Y0042534D01*
X0486816Y0042646D01*
X0486916Y0042756D01*
X0487018Y0042862D01*
X0487124Y0042966D01*
X0487232Y0043067D01*
X0487343Y0043165D01*
X0487456Y0043261D01*
X0487572Y0043353D01*
X0487690Y0043442D01*
X0487811Y0043527D01*
X0487934Y0043610D01*
X0488059Y0043689D01*
X0488186Y0043765D01*
X0488315Y0043837D01*
X0488446Y0043906D01*
X0488579Y0043971D01*
X0488714Y0044032D01*
X0488850Y0044090D01*
X0488987Y0044145D01*
X0489126Y0044195D01*
X0489267Y0044242D01*
X0489408Y0044285D01*
X0489551Y0044325D01*
X0489695Y0044360D01*
X0489839Y0044392D01*
X0489985Y0044419D01*
X0490131Y0044443D01*
X0490278Y0044463D01*
X0490425Y0044479D01*
X0490572Y0044491D01*
X0490720Y0044499D01*
X0490868Y0044503D01*
X0491016Y0044503D01*
X0491164Y0044499D01*
X0491312Y0044491D01*
X0491459Y0044479D01*
X0491606Y0044463D01*
X0491753Y0044443D01*
X0491899Y0044419D01*
X0492045Y0044392D01*
X0492189Y0044360D01*
X0492333Y0044325D01*
X0492476Y0044285D01*
X0492617Y0044242D01*
X0492758Y0044195D01*
X0492897Y0044145D01*
X0493034Y0044090D01*
X0493170Y0044032D01*
X0493305Y0043971D01*
X0493438Y0043906D01*
X0493569Y0043837D01*
X0493698Y0043765D01*
X0493825Y0043689D01*
X0493950Y0043610D01*
X0494073Y0043527D01*
X0494194Y0043442D01*
X0494312Y0043353D01*
X0494428Y0043261D01*
X0494541Y0043165D01*
X0494652Y0043067D01*
X0494760Y0042966D01*
X0494866Y0042862D01*
X0494968Y0042756D01*
X0495068Y0042646D01*
X0495164Y0042534D01*
X0495258Y0042419D01*
X0495349Y0042302D01*
X0495436Y0042183D01*
X0495520Y0042061D01*
X0495601Y0041937D01*
X0495678Y0041811D01*
X0495752Y0041683D01*
X0495823Y0041553D01*
X0495890Y0041421D01*
X0495953Y0041287D01*
X0496013Y0041152D01*
X0496069Y0041015D01*
X0496122Y0040876D01*
X0496170Y0040736D01*
X0496215Y0040595D01*
X0496256Y0040453D01*
X0496294Y0040310D01*
X0496327Y0040166D01*
X0496357Y0040021D01*
X0496383Y0039875D01*
X0496404Y0039729D01*
X0496422Y0039582D01*
X0496436Y0039435D01*
X0496446Y0039287D01*
X0496452Y0039139D01*
X0496454Y0038991D01*
X0496452Y0038843D01*
X0496446Y0038695D01*
X0496436Y0038547D01*
X0496422Y0038400D01*
X0496404Y0038253D01*
X0496383Y0038107D01*
X0496357Y0037961D01*
X0496327Y0037816D01*
X0496294Y0037672D01*
X0496256Y0037529D01*
X0496215Y0037387D01*
X0496170Y0037246D01*
X0496122Y0037106D01*
X0496069Y0036967D01*
X0496013Y0036830D01*
X0495953Y0036695D01*
X0495890Y0036561D01*
X0495823Y0036429D01*
X0495752Y0036299D01*
X0495678Y0036171D01*
X0495601Y0036045D01*
X0495520Y0035921D01*
X0495436Y0035799D01*
X0495349Y0035680D01*
X0495258Y0035563D01*
X0495164Y0035448D01*
X0495068Y0035336D01*
X0494968Y0035226D01*
X0494866Y0035120D01*
X0494760Y0035016D01*
X0494652Y0034915D01*
X0494541Y0034817D01*
X0494428Y0034721D01*
X0494312Y0034629D01*
X0494194Y0034540D01*
X0494073Y0034455D01*
X0493950Y0034372D01*
X0493825Y0034293D01*
X0493698Y0034217D01*
X0493569Y0034145D01*
X0493438Y0034076D01*
X0493305Y0034011D01*
X0493170Y0033950D01*
X0493034Y0033892D01*
X0492897Y0033837D01*
X0492758Y0033787D01*
X0492617Y0033740D01*
X0492476Y0033697D01*
X0492333Y0033657D01*
X0492189Y0033622D01*
X0492045Y0033590D01*
X0491899Y0033563D01*
X0491753Y0033539D01*
X0491606Y0033519D01*
X0491459Y0033503D01*
X0491312Y0033491D01*
X0491164Y0033483D01*
X0491016Y0033479D01*
X0490868Y0033479D01*
X0490720Y0033483D01*
X0490572Y0033491D01*
X0490425Y0033503D01*
X0490278Y0033519D01*
X0490131Y0033539D01*
X0489985Y0033563D01*
X0489839Y0033590D01*
X0489695Y0033622D01*
X0489551Y0033657D01*
X0489408Y0033697D01*
X0489267Y0033740D01*
X0489126Y0033787D01*
X0488987Y0033837D01*
X0488850Y0033892D01*
X0488714Y0033950D01*
X0488579Y0034011D01*
X0488446Y0034076D01*
X0488315Y0034145D01*
X0488186Y0034217D01*
X0488059Y0034293D01*
X0487934Y0034372D01*
X0487811Y0034455D01*
X0487690Y0034540D01*
X0487572Y0034629D01*
X0487456Y0034721D01*
X0487343Y0034817D01*
X0487232Y0034915D01*
X0487124Y0035016D01*
X0487018Y0035120D01*
X0486916Y0035226D01*
X0486816Y0035336D01*
X0486720Y0035448D01*
X0486626Y0035563D01*
X0486535Y0035680D01*
X0486448Y0035799D01*
X0486364Y0035921D01*
X0486283Y0036045D01*
X0486206Y0036171D01*
X0486132Y0036299D01*
X0486061Y0036429D01*
X0485994Y0036561D01*
X0485931Y0036695D01*
X0485871Y0036830D01*
X0485815Y0036967D01*
X0485762Y0037106D01*
X0485714Y0037246D01*
X0485669Y0037387D01*
X0485628Y0037529D01*
X0485590Y0037672D01*
X0485557Y0037816D01*
X0485527Y0037961D01*
X0485501Y0038107D01*
X0485480Y0038253D01*
X0485462Y0038400D01*
X0485448Y0038547D01*
X0485438Y0038695D01*
X0485432Y0038843D01*
X0485430Y0038991D01*
X0485430Y0161038D02*
X0485432Y0161186D01*
X0485438Y0161334D01*
X0485448Y0161482D01*
X0485462Y0161629D01*
X0485480Y0161776D01*
X0485501Y0161922D01*
X0485527Y0162068D01*
X0485557Y0162213D01*
X0485590Y0162357D01*
X0485628Y0162500D01*
X0485669Y0162642D01*
X0485714Y0162783D01*
X0485762Y0162923D01*
X0485815Y0163062D01*
X0485871Y0163199D01*
X0485931Y0163334D01*
X0485994Y0163468D01*
X0486061Y0163600D01*
X0486132Y0163730D01*
X0486206Y0163858D01*
X0486283Y0163984D01*
X0486364Y0164108D01*
X0486448Y0164230D01*
X0486535Y0164349D01*
X0486626Y0164466D01*
X0486720Y0164581D01*
X0486816Y0164693D01*
X0486916Y0164803D01*
X0487018Y0164909D01*
X0487124Y0165013D01*
X0487232Y0165114D01*
X0487343Y0165212D01*
X0487456Y0165308D01*
X0487572Y0165400D01*
X0487690Y0165489D01*
X0487811Y0165574D01*
X0487934Y0165657D01*
X0488059Y0165736D01*
X0488186Y0165812D01*
X0488315Y0165884D01*
X0488446Y0165953D01*
X0488579Y0166018D01*
X0488714Y0166079D01*
X0488850Y0166137D01*
X0488987Y0166192D01*
X0489126Y0166242D01*
X0489267Y0166289D01*
X0489408Y0166332D01*
X0489551Y0166372D01*
X0489695Y0166407D01*
X0489839Y0166439D01*
X0489985Y0166466D01*
X0490131Y0166490D01*
X0490278Y0166510D01*
X0490425Y0166526D01*
X0490572Y0166538D01*
X0490720Y0166546D01*
X0490868Y0166550D01*
X0491016Y0166550D01*
X0491164Y0166546D01*
X0491312Y0166538D01*
X0491459Y0166526D01*
X0491606Y0166510D01*
X0491753Y0166490D01*
X0491899Y0166466D01*
X0492045Y0166439D01*
X0492189Y0166407D01*
X0492333Y0166372D01*
X0492476Y0166332D01*
X0492617Y0166289D01*
X0492758Y0166242D01*
X0492897Y0166192D01*
X0493034Y0166137D01*
X0493170Y0166079D01*
X0493305Y0166018D01*
X0493438Y0165953D01*
X0493569Y0165884D01*
X0493698Y0165812D01*
X0493825Y0165736D01*
X0493950Y0165657D01*
X0494073Y0165574D01*
X0494194Y0165489D01*
X0494312Y0165400D01*
X0494428Y0165308D01*
X0494541Y0165212D01*
X0494652Y0165114D01*
X0494760Y0165013D01*
X0494866Y0164909D01*
X0494968Y0164803D01*
X0495068Y0164693D01*
X0495164Y0164581D01*
X0495258Y0164466D01*
X0495349Y0164349D01*
X0495436Y0164230D01*
X0495520Y0164108D01*
X0495601Y0163984D01*
X0495678Y0163858D01*
X0495752Y0163730D01*
X0495823Y0163600D01*
X0495890Y0163468D01*
X0495953Y0163334D01*
X0496013Y0163199D01*
X0496069Y0163062D01*
X0496122Y0162923D01*
X0496170Y0162783D01*
X0496215Y0162642D01*
X0496256Y0162500D01*
X0496294Y0162357D01*
X0496327Y0162213D01*
X0496357Y0162068D01*
X0496383Y0161922D01*
X0496404Y0161776D01*
X0496422Y0161629D01*
X0496436Y0161482D01*
X0496446Y0161334D01*
X0496452Y0161186D01*
X0496454Y0161038D01*
X0496452Y0160890D01*
X0496446Y0160742D01*
X0496436Y0160594D01*
X0496422Y0160447D01*
X0496404Y0160300D01*
X0496383Y0160154D01*
X0496357Y0160008D01*
X0496327Y0159863D01*
X0496294Y0159719D01*
X0496256Y0159576D01*
X0496215Y0159434D01*
X0496170Y0159293D01*
X0496122Y0159153D01*
X0496069Y0159014D01*
X0496013Y0158877D01*
X0495953Y0158742D01*
X0495890Y0158608D01*
X0495823Y0158476D01*
X0495752Y0158346D01*
X0495678Y0158218D01*
X0495601Y0158092D01*
X0495520Y0157968D01*
X0495436Y0157846D01*
X0495349Y0157727D01*
X0495258Y0157610D01*
X0495164Y0157495D01*
X0495068Y0157383D01*
X0494968Y0157273D01*
X0494866Y0157167D01*
X0494760Y0157063D01*
X0494652Y0156962D01*
X0494541Y0156864D01*
X0494428Y0156768D01*
X0494312Y0156676D01*
X0494194Y0156587D01*
X0494073Y0156502D01*
X0493950Y0156419D01*
X0493825Y0156340D01*
X0493698Y0156264D01*
X0493569Y0156192D01*
X0493438Y0156123D01*
X0493305Y0156058D01*
X0493170Y0155997D01*
X0493034Y0155939D01*
X0492897Y0155884D01*
X0492758Y0155834D01*
X0492617Y0155787D01*
X0492476Y0155744D01*
X0492333Y0155704D01*
X0492189Y0155669D01*
X0492045Y0155637D01*
X0491899Y0155610D01*
X0491753Y0155586D01*
X0491606Y0155566D01*
X0491459Y0155550D01*
X0491312Y0155538D01*
X0491164Y0155530D01*
X0491016Y0155526D01*
X0490868Y0155526D01*
X0490720Y0155530D01*
X0490572Y0155538D01*
X0490425Y0155550D01*
X0490278Y0155566D01*
X0490131Y0155586D01*
X0489985Y0155610D01*
X0489839Y0155637D01*
X0489695Y0155669D01*
X0489551Y0155704D01*
X0489408Y0155744D01*
X0489267Y0155787D01*
X0489126Y0155834D01*
X0488987Y0155884D01*
X0488850Y0155939D01*
X0488714Y0155997D01*
X0488579Y0156058D01*
X0488446Y0156123D01*
X0488315Y0156192D01*
X0488186Y0156264D01*
X0488059Y0156340D01*
X0487934Y0156419D01*
X0487811Y0156502D01*
X0487690Y0156587D01*
X0487572Y0156676D01*
X0487456Y0156768D01*
X0487343Y0156864D01*
X0487232Y0156962D01*
X0487124Y0157063D01*
X0487018Y0157167D01*
X0486916Y0157273D01*
X0486816Y0157383D01*
X0486720Y0157495D01*
X0486626Y0157610D01*
X0486535Y0157727D01*
X0486448Y0157846D01*
X0486364Y0157968D01*
X0486283Y0158092D01*
X0486206Y0158218D01*
X0486132Y0158346D01*
X0486061Y0158476D01*
X0485994Y0158608D01*
X0485931Y0158742D01*
X0485871Y0158877D01*
X0485815Y0159014D01*
X0485762Y0159153D01*
X0485714Y0159293D01*
X0485669Y0159434D01*
X0485628Y0159576D01*
X0485590Y0159719D01*
X0485557Y0159863D01*
X0485527Y0160008D01*
X0485501Y0160154D01*
X0485480Y0160300D01*
X0485462Y0160447D01*
X0485448Y0160594D01*
X0485438Y0160742D01*
X0485432Y0160890D01*
X0485430Y0161038D01*
X0594681Y0329345D02*
X0594683Y0329479D01*
X0594689Y0329613D01*
X0594699Y0329747D01*
X0594713Y0329881D01*
X0594731Y0330014D01*
X0594752Y0330146D01*
X0594778Y0330278D01*
X0594808Y0330409D01*
X0594841Y0330539D01*
X0594878Y0330667D01*
X0594920Y0330795D01*
X0594964Y0330922D01*
X0595013Y0331047D01*
X0595065Y0331170D01*
X0595121Y0331292D01*
X0595181Y0331413D01*
X0595244Y0331531D01*
X0595310Y0331648D01*
X0595380Y0331762D01*
X0595453Y0331875D01*
X0595530Y0331985D01*
X0595610Y0332093D01*
X0595693Y0332198D01*
X0595779Y0332301D01*
X0595868Y0332401D01*
X0595960Y0332499D01*
X0596055Y0332594D01*
X0596153Y0332686D01*
X0596253Y0332775D01*
X0596356Y0332861D01*
X0596461Y0332944D01*
X0596569Y0333024D01*
X0596679Y0333101D01*
X0596792Y0333174D01*
X0596906Y0333244D01*
X0597023Y0333310D01*
X0597141Y0333373D01*
X0597262Y0333433D01*
X0597384Y0333489D01*
X0597507Y0333541D01*
X0597632Y0333590D01*
X0597759Y0333634D01*
X0597887Y0333676D01*
X0598015Y0333713D01*
X0598145Y0333746D01*
X0598276Y0333776D01*
X0598408Y0333802D01*
X0598540Y0333823D01*
X0598673Y0333841D01*
X0598807Y0333855D01*
X0598941Y0333865D01*
X0599075Y0333871D01*
X0599209Y0333873D01*
X0599343Y0333871D01*
X0599477Y0333865D01*
X0599611Y0333855D01*
X0599745Y0333841D01*
X0599878Y0333823D01*
X0600010Y0333802D01*
X0600142Y0333776D01*
X0600273Y0333746D01*
X0600403Y0333713D01*
X0600531Y0333676D01*
X0600659Y0333634D01*
X0600786Y0333590D01*
X0600911Y0333541D01*
X0601034Y0333489D01*
X0601156Y0333433D01*
X0601277Y0333373D01*
X0601395Y0333310D01*
X0601512Y0333244D01*
X0601626Y0333174D01*
X0601739Y0333101D01*
X0601849Y0333024D01*
X0601957Y0332944D01*
X0602062Y0332861D01*
X0602165Y0332775D01*
X0602265Y0332686D01*
X0602363Y0332594D01*
X0602458Y0332499D01*
X0602550Y0332401D01*
X0602639Y0332301D01*
X0602725Y0332198D01*
X0602808Y0332093D01*
X0602888Y0331985D01*
X0602965Y0331875D01*
X0603038Y0331762D01*
X0603108Y0331648D01*
X0603174Y0331531D01*
X0603237Y0331413D01*
X0603297Y0331292D01*
X0603353Y0331170D01*
X0603405Y0331047D01*
X0603454Y0330922D01*
X0603498Y0330795D01*
X0603540Y0330667D01*
X0603577Y0330539D01*
X0603610Y0330409D01*
X0603640Y0330278D01*
X0603666Y0330146D01*
X0603687Y0330014D01*
X0603705Y0329881D01*
X0603719Y0329747D01*
X0603729Y0329613D01*
X0603735Y0329479D01*
X0603737Y0329345D01*
X0603735Y0329211D01*
X0603729Y0329077D01*
X0603719Y0328943D01*
X0603705Y0328809D01*
X0603687Y0328676D01*
X0603666Y0328544D01*
X0603640Y0328412D01*
X0603610Y0328281D01*
X0603577Y0328151D01*
X0603540Y0328023D01*
X0603498Y0327895D01*
X0603454Y0327768D01*
X0603405Y0327643D01*
X0603353Y0327520D01*
X0603297Y0327398D01*
X0603237Y0327277D01*
X0603174Y0327159D01*
X0603108Y0327042D01*
X0603038Y0326928D01*
X0602965Y0326815D01*
X0602888Y0326705D01*
X0602808Y0326597D01*
X0602725Y0326492D01*
X0602639Y0326389D01*
X0602550Y0326289D01*
X0602458Y0326191D01*
X0602363Y0326096D01*
X0602265Y0326004D01*
X0602165Y0325915D01*
X0602062Y0325829D01*
X0601957Y0325746D01*
X0601849Y0325666D01*
X0601739Y0325589D01*
X0601626Y0325516D01*
X0601512Y0325446D01*
X0601395Y0325380D01*
X0601277Y0325317D01*
X0601156Y0325257D01*
X0601034Y0325201D01*
X0600911Y0325149D01*
X0600786Y0325100D01*
X0600659Y0325056D01*
X0600531Y0325014D01*
X0600403Y0324977D01*
X0600273Y0324944D01*
X0600142Y0324914D01*
X0600010Y0324888D01*
X0599878Y0324867D01*
X0599745Y0324849D01*
X0599611Y0324835D01*
X0599477Y0324825D01*
X0599343Y0324819D01*
X0599209Y0324817D01*
X0599075Y0324819D01*
X0598941Y0324825D01*
X0598807Y0324835D01*
X0598673Y0324849D01*
X0598540Y0324867D01*
X0598408Y0324888D01*
X0598276Y0324914D01*
X0598145Y0324944D01*
X0598015Y0324977D01*
X0597887Y0325014D01*
X0597759Y0325056D01*
X0597632Y0325100D01*
X0597507Y0325149D01*
X0597384Y0325201D01*
X0597262Y0325257D01*
X0597141Y0325317D01*
X0597023Y0325380D01*
X0596906Y0325446D01*
X0596792Y0325516D01*
X0596679Y0325589D01*
X0596569Y0325666D01*
X0596461Y0325746D01*
X0596356Y0325829D01*
X0596253Y0325915D01*
X0596153Y0326004D01*
X0596055Y0326096D01*
X0595960Y0326191D01*
X0595868Y0326289D01*
X0595779Y0326389D01*
X0595693Y0326492D01*
X0595610Y0326597D01*
X0595530Y0326705D01*
X0595453Y0326815D01*
X0595380Y0326928D01*
X0595310Y0327042D01*
X0595244Y0327159D01*
X0595181Y0327277D01*
X0595121Y0327398D01*
X0595065Y0327520D01*
X0595013Y0327643D01*
X0594964Y0327768D01*
X0594920Y0327895D01*
X0594878Y0328023D01*
X0594841Y0328151D01*
X0594808Y0328281D01*
X0594778Y0328412D01*
X0594752Y0328544D01*
X0594731Y0328676D01*
X0594713Y0328809D01*
X0594699Y0328943D01*
X0594689Y0329077D01*
X0594683Y0329211D01*
X0594681Y0329345D01*
X0594681Y0394306D02*
X0594683Y0394440D01*
X0594689Y0394574D01*
X0594699Y0394708D01*
X0594713Y0394842D01*
X0594731Y0394975D01*
X0594752Y0395107D01*
X0594778Y0395239D01*
X0594808Y0395370D01*
X0594841Y0395500D01*
X0594878Y0395628D01*
X0594920Y0395756D01*
X0594964Y0395883D01*
X0595013Y0396008D01*
X0595065Y0396131D01*
X0595121Y0396253D01*
X0595181Y0396374D01*
X0595244Y0396492D01*
X0595310Y0396609D01*
X0595380Y0396723D01*
X0595453Y0396836D01*
X0595530Y0396946D01*
X0595610Y0397054D01*
X0595693Y0397159D01*
X0595779Y0397262D01*
X0595868Y0397362D01*
X0595960Y0397460D01*
X0596055Y0397555D01*
X0596153Y0397647D01*
X0596253Y0397736D01*
X0596356Y0397822D01*
X0596461Y0397905D01*
X0596569Y0397985D01*
X0596679Y0398062D01*
X0596792Y0398135D01*
X0596906Y0398205D01*
X0597023Y0398271D01*
X0597141Y0398334D01*
X0597262Y0398394D01*
X0597384Y0398450D01*
X0597507Y0398502D01*
X0597632Y0398551D01*
X0597759Y0398595D01*
X0597887Y0398637D01*
X0598015Y0398674D01*
X0598145Y0398707D01*
X0598276Y0398737D01*
X0598408Y0398763D01*
X0598540Y0398784D01*
X0598673Y0398802D01*
X0598807Y0398816D01*
X0598941Y0398826D01*
X0599075Y0398832D01*
X0599209Y0398834D01*
X0599343Y0398832D01*
X0599477Y0398826D01*
X0599611Y0398816D01*
X0599745Y0398802D01*
X0599878Y0398784D01*
X0600010Y0398763D01*
X0600142Y0398737D01*
X0600273Y0398707D01*
X0600403Y0398674D01*
X0600531Y0398637D01*
X0600659Y0398595D01*
X0600786Y0398551D01*
X0600911Y0398502D01*
X0601034Y0398450D01*
X0601156Y0398394D01*
X0601277Y0398334D01*
X0601395Y0398271D01*
X0601512Y0398205D01*
X0601626Y0398135D01*
X0601739Y0398062D01*
X0601849Y0397985D01*
X0601957Y0397905D01*
X0602062Y0397822D01*
X0602165Y0397736D01*
X0602265Y0397647D01*
X0602363Y0397555D01*
X0602458Y0397460D01*
X0602550Y0397362D01*
X0602639Y0397262D01*
X0602725Y0397159D01*
X0602808Y0397054D01*
X0602888Y0396946D01*
X0602965Y0396836D01*
X0603038Y0396723D01*
X0603108Y0396609D01*
X0603174Y0396492D01*
X0603237Y0396374D01*
X0603297Y0396253D01*
X0603353Y0396131D01*
X0603405Y0396008D01*
X0603454Y0395883D01*
X0603498Y0395756D01*
X0603540Y0395628D01*
X0603577Y0395500D01*
X0603610Y0395370D01*
X0603640Y0395239D01*
X0603666Y0395107D01*
X0603687Y0394975D01*
X0603705Y0394842D01*
X0603719Y0394708D01*
X0603729Y0394574D01*
X0603735Y0394440D01*
X0603737Y0394306D01*
X0603735Y0394172D01*
X0603729Y0394038D01*
X0603719Y0393904D01*
X0603705Y0393770D01*
X0603687Y0393637D01*
X0603666Y0393505D01*
X0603640Y0393373D01*
X0603610Y0393242D01*
X0603577Y0393112D01*
X0603540Y0392984D01*
X0603498Y0392856D01*
X0603454Y0392729D01*
X0603405Y0392604D01*
X0603353Y0392481D01*
X0603297Y0392359D01*
X0603237Y0392238D01*
X0603174Y0392120D01*
X0603108Y0392003D01*
X0603038Y0391889D01*
X0602965Y0391776D01*
X0602888Y0391666D01*
X0602808Y0391558D01*
X0602725Y0391453D01*
X0602639Y0391350D01*
X0602550Y0391250D01*
X0602458Y0391152D01*
X0602363Y0391057D01*
X0602265Y0390965D01*
X0602165Y0390876D01*
X0602062Y0390790D01*
X0601957Y0390707D01*
X0601849Y0390627D01*
X0601739Y0390550D01*
X0601626Y0390477D01*
X0601512Y0390407D01*
X0601395Y0390341D01*
X0601277Y0390278D01*
X0601156Y0390218D01*
X0601034Y0390162D01*
X0600911Y0390110D01*
X0600786Y0390061D01*
X0600659Y0390017D01*
X0600531Y0389975D01*
X0600403Y0389938D01*
X0600273Y0389905D01*
X0600142Y0389875D01*
X0600010Y0389849D01*
X0599878Y0389828D01*
X0599745Y0389810D01*
X0599611Y0389796D01*
X0599477Y0389786D01*
X0599343Y0389780D01*
X0599209Y0389778D01*
X0599075Y0389780D01*
X0598941Y0389786D01*
X0598807Y0389796D01*
X0598673Y0389810D01*
X0598540Y0389828D01*
X0598408Y0389849D01*
X0598276Y0389875D01*
X0598145Y0389905D01*
X0598015Y0389938D01*
X0597887Y0389975D01*
X0597759Y0390017D01*
X0597632Y0390061D01*
X0597507Y0390110D01*
X0597384Y0390162D01*
X0597262Y0390218D01*
X0597141Y0390278D01*
X0597023Y0390341D01*
X0596906Y0390407D01*
X0596792Y0390477D01*
X0596679Y0390550D01*
X0596569Y0390627D01*
X0596461Y0390707D01*
X0596356Y0390790D01*
X0596253Y0390876D01*
X0596153Y0390965D01*
X0596055Y0391057D01*
X0595960Y0391152D01*
X0595868Y0391250D01*
X0595779Y0391350D01*
X0595693Y0391453D01*
X0595610Y0391558D01*
X0595530Y0391666D01*
X0595453Y0391776D01*
X0595380Y0391889D01*
X0595310Y0392003D01*
X0595244Y0392120D01*
X0595181Y0392238D01*
X0595121Y0392359D01*
X0595065Y0392481D01*
X0595013Y0392604D01*
X0594964Y0392729D01*
X0594920Y0392856D01*
X0594878Y0392984D01*
X0594841Y0393112D01*
X0594808Y0393242D01*
X0594778Y0393373D01*
X0594752Y0393505D01*
X0594731Y0393637D01*
X0594713Y0393770D01*
X0594699Y0393904D01*
X0594689Y0394038D01*
X0594683Y0394172D01*
X0594681Y0394306D01*
X0591729Y0444503D02*
X0591731Y0444651D01*
X0591737Y0444799D01*
X0591747Y0444947D01*
X0591761Y0445094D01*
X0591779Y0445241D01*
X0591800Y0445387D01*
X0591826Y0445533D01*
X0591856Y0445678D01*
X0591889Y0445822D01*
X0591927Y0445965D01*
X0591968Y0446107D01*
X0592013Y0446248D01*
X0592061Y0446388D01*
X0592114Y0446527D01*
X0592170Y0446664D01*
X0592230Y0446799D01*
X0592293Y0446933D01*
X0592360Y0447065D01*
X0592431Y0447195D01*
X0592505Y0447323D01*
X0592582Y0447449D01*
X0592663Y0447573D01*
X0592747Y0447695D01*
X0592834Y0447814D01*
X0592925Y0447931D01*
X0593019Y0448046D01*
X0593115Y0448158D01*
X0593215Y0448268D01*
X0593317Y0448374D01*
X0593423Y0448478D01*
X0593531Y0448579D01*
X0593642Y0448677D01*
X0593755Y0448773D01*
X0593871Y0448865D01*
X0593989Y0448954D01*
X0594110Y0449039D01*
X0594233Y0449122D01*
X0594358Y0449201D01*
X0594485Y0449277D01*
X0594614Y0449349D01*
X0594745Y0449418D01*
X0594878Y0449483D01*
X0595013Y0449544D01*
X0595149Y0449602D01*
X0595286Y0449657D01*
X0595425Y0449707D01*
X0595566Y0449754D01*
X0595707Y0449797D01*
X0595850Y0449837D01*
X0595994Y0449872D01*
X0596138Y0449904D01*
X0596284Y0449931D01*
X0596430Y0449955D01*
X0596577Y0449975D01*
X0596724Y0449991D01*
X0596871Y0450003D01*
X0597019Y0450011D01*
X0597167Y0450015D01*
X0597315Y0450015D01*
X0597463Y0450011D01*
X0597611Y0450003D01*
X0597758Y0449991D01*
X0597905Y0449975D01*
X0598052Y0449955D01*
X0598198Y0449931D01*
X0598344Y0449904D01*
X0598488Y0449872D01*
X0598632Y0449837D01*
X0598775Y0449797D01*
X0598916Y0449754D01*
X0599057Y0449707D01*
X0599196Y0449657D01*
X0599333Y0449602D01*
X0599469Y0449544D01*
X0599604Y0449483D01*
X0599737Y0449418D01*
X0599868Y0449349D01*
X0599997Y0449277D01*
X0600124Y0449201D01*
X0600249Y0449122D01*
X0600372Y0449039D01*
X0600493Y0448954D01*
X0600611Y0448865D01*
X0600727Y0448773D01*
X0600840Y0448677D01*
X0600951Y0448579D01*
X0601059Y0448478D01*
X0601165Y0448374D01*
X0601267Y0448268D01*
X0601367Y0448158D01*
X0601463Y0448046D01*
X0601557Y0447931D01*
X0601648Y0447814D01*
X0601735Y0447695D01*
X0601819Y0447573D01*
X0601900Y0447449D01*
X0601977Y0447323D01*
X0602051Y0447195D01*
X0602122Y0447065D01*
X0602189Y0446933D01*
X0602252Y0446799D01*
X0602312Y0446664D01*
X0602368Y0446527D01*
X0602421Y0446388D01*
X0602469Y0446248D01*
X0602514Y0446107D01*
X0602555Y0445965D01*
X0602593Y0445822D01*
X0602626Y0445678D01*
X0602656Y0445533D01*
X0602682Y0445387D01*
X0602703Y0445241D01*
X0602721Y0445094D01*
X0602735Y0444947D01*
X0602745Y0444799D01*
X0602751Y0444651D01*
X0602753Y0444503D01*
X0602751Y0444355D01*
X0602745Y0444207D01*
X0602735Y0444059D01*
X0602721Y0443912D01*
X0602703Y0443765D01*
X0602682Y0443619D01*
X0602656Y0443473D01*
X0602626Y0443328D01*
X0602593Y0443184D01*
X0602555Y0443041D01*
X0602514Y0442899D01*
X0602469Y0442758D01*
X0602421Y0442618D01*
X0602368Y0442479D01*
X0602312Y0442342D01*
X0602252Y0442207D01*
X0602189Y0442073D01*
X0602122Y0441941D01*
X0602051Y0441811D01*
X0601977Y0441683D01*
X0601900Y0441557D01*
X0601819Y0441433D01*
X0601735Y0441311D01*
X0601648Y0441192D01*
X0601557Y0441075D01*
X0601463Y0440960D01*
X0601367Y0440848D01*
X0601267Y0440738D01*
X0601165Y0440632D01*
X0601059Y0440528D01*
X0600951Y0440427D01*
X0600840Y0440329D01*
X0600727Y0440233D01*
X0600611Y0440141D01*
X0600493Y0440052D01*
X0600372Y0439967D01*
X0600249Y0439884D01*
X0600124Y0439805D01*
X0599997Y0439729D01*
X0599868Y0439657D01*
X0599737Y0439588D01*
X0599604Y0439523D01*
X0599469Y0439462D01*
X0599333Y0439404D01*
X0599196Y0439349D01*
X0599057Y0439299D01*
X0598916Y0439252D01*
X0598775Y0439209D01*
X0598632Y0439169D01*
X0598488Y0439134D01*
X0598344Y0439102D01*
X0598198Y0439075D01*
X0598052Y0439051D01*
X0597905Y0439031D01*
X0597758Y0439015D01*
X0597611Y0439003D01*
X0597463Y0438995D01*
X0597315Y0438991D01*
X0597167Y0438991D01*
X0597019Y0438995D01*
X0596871Y0439003D01*
X0596724Y0439015D01*
X0596577Y0439031D01*
X0596430Y0439051D01*
X0596284Y0439075D01*
X0596138Y0439102D01*
X0595994Y0439134D01*
X0595850Y0439169D01*
X0595707Y0439209D01*
X0595566Y0439252D01*
X0595425Y0439299D01*
X0595286Y0439349D01*
X0595149Y0439404D01*
X0595013Y0439462D01*
X0594878Y0439523D01*
X0594745Y0439588D01*
X0594614Y0439657D01*
X0594485Y0439729D01*
X0594358Y0439805D01*
X0594233Y0439884D01*
X0594110Y0439967D01*
X0593989Y0440052D01*
X0593871Y0440141D01*
X0593755Y0440233D01*
X0593642Y0440329D01*
X0593531Y0440427D01*
X0593423Y0440528D01*
X0593317Y0440632D01*
X0593215Y0440738D01*
X0593115Y0440848D01*
X0593019Y0440960D01*
X0592925Y0441075D01*
X0592834Y0441192D01*
X0592747Y0441311D01*
X0592663Y0441433D01*
X0592582Y0441557D01*
X0592505Y0441683D01*
X0592431Y0441811D01*
X0592360Y0441941D01*
X0592293Y0442073D01*
X0592230Y0442207D01*
X0592170Y0442342D01*
X0592114Y0442479D01*
X0592061Y0442618D01*
X0592013Y0442758D01*
X0591968Y0442899D01*
X0591927Y0443041D01*
X0591889Y0443184D01*
X0591856Y0443328D01*
X0591826Y0443473D01*
X0591800Y0443619D01*
X0591779Y0443765D01*
X0591761Y0443912D01*
X0591747Y0444059D01*
X0591737Y0444207D01*
X0591731Y0444355D01*
X0591729Y0444503D01*
X0190154Y0161038D02*
X0190156Y0161186D01*
X0190162Y0161334D01*
X0190172Y0161482D01*
X0190186Y0161629D01*
X0190204Y0161776D01*
X0190225Y0161922D01*
X0190251Y0162068D01*
X0190281Y0162213D01*
X0190314Y0162357D01*
X0190352Y0162500D01*
X0190393Y0162642D01*
X0190438Y0162783D01*
X0190486Y0162923D01*
X0190539Y0163062D01*
X0190595Y0163199D01*
X0190655Y0163334D01*
X0190718Y0163468D01*
X0190785Y0163600D01*
X0190856Y0163730D01*
X0190930Y0163858D01*
X0191007Y0163984D01*
X0191088Y0164108D01*
X0191172Y0164230D01*
X0191259Y0164349D01*
X0191350Y0164466D01*
X0191444Y0164581D01*
X0191540Y0164693D01*
X0191640Y0164803D01*
X0191742Y0164909D01*
X0191848Y0165013D01*
X0191956Y0165114D01*
X0192067Y0165212D01*
X0192180Y0165308D01*
X0192296Y0165400D01*
X0192414Y0165489D01*
X0192535Y0165574D01*
X0192658Y0165657D01*
X0192783Y0165736D01*
X0192910Y0165812D01*
X0193039Y0165884D01*
X0193170Y0165953D01*
X0193303Y0166018D01*
X0193438Y0166079D01*
X0193574Y0166137D01*
X0193711Y0166192D01*
X0193850Y0166242D01*
X0193991Y0166289D01*
X0194132Y0166332D01*
X0194275Y0166372D01*
X0194419Y0166407D01*
X0194563Y0166439D01*
X0194709Y0166466D01*
X0194855Y0166490D01*
X0195002Y0166510D01*
X0195149Y0166526D01*
X0195296Y0166538D01*
X0195444Y0166546D01*
X0195592Y0166550D01*
X0195740Y0166550D01*
X0195888Y0166546D01*
X0196036Y0166538D01*
X0196183Y0166526D01*
X0196330Y0166510D01*
X0196477Y0166490D01*
X0196623Y0166466D01*
X0196769Y0166439D01*
X0196913Y0166407D01*
X0197057Y0166372D01*
X0197200Y0166332D01*
X0197341Y0166289D01*
X0197482Y0166242D01*
X0197621Y0166192D01*
X0197758Y0166137D01*
X0197894Y0166079D01*
X0198029Y0166018D01*
X0198162Y0165953D01*
X0198293Y0165884D01*
X0198422Y0165812D01*
X0198549Y0165736D01*
X0198674Y0165657D01*
X0198797Y0165574D01*
X0198918Y0165489D01*
X0199036Y0165400D01*
X0199152Y0165308D01*
X0199265Y0165212D01*
X0199376Y0165114D01*
X0199484Y0165013D01*
X0199590Y0164909D01*
X0199692Y0164803D01*
X0199792Y0164693D01*
X0199888Y0164581D01*
X0199982Y0164466D01*
X0200073Y0164349D01*
X0200160Y0164230D01*
X0200244Y0164108D01*
X0200325Y0163984D01*
X0200402Y0163858D01*
X0200476Y0163730D01*
X0200547Y0163600D01*
X0200614Y0163468D01*
X0200677Y0163334D01*
X0200737Y0163199D01*
X0200793Y0163062D01*
X0200846Y0162923D01*
X0200894Y0162783D01*
X0200939Y0162642D01*
X0200980Y0162500D01*
X0201018Y0162357D01*
X0201051Y0162213D01*
X0201081Y0162068D01*
X0201107Y0161922D01*
X0201128Y0161776D01*
X0201146Y0161629D01*
X0201160Y0161482D01*
X0201170Y0161334D01*
X0201176Y0161186D01*
X0201178Y0161038D01*
X0201176Y0160890D01*
X0201170Y0160742D01*
X0201160Y0160594D01*
X0201146Y0160447D01*
X0201128Y0160300D01*
X0201107Y0160154D01*
X0201081Y0160008D01*
X0201051Y0159863D01*
X0201018Y0159719D01*
X0200980Y0159576D01*
X0200939Y0159434D01*
X0200894Y0159293D01*
X0200846Y0159153D01*
X0200793Y0159014D01*
X0200737Y0158877D01*
X0200677Y0158742D01*
X0200614Y0158608D01*
X0200547Y0158476D01*
X0200476Y0158346D01*
X0200402Y0158218D01*
X0200325Y0158092D01*
X0200244Y0157968D01*
X0200160Y0157846D01*
X0200073Y0157727D01*
X0199982Y0157610D01*
X0199888Y0157495D01*
X0199792Y0157383D01*
X0199692Y0157273D01*
X0199590Y0157167D01*
X0199484Y0157063D01*
X0199376Y0156962D01*
X0199265Y0156864D01*
X0199152Y0156768D01*
X0199036Y0156676D01*
X0198918Y0156587D01*
X0198797Y0156502D01*
X0198674Y0156419D01*
X0198549Y0156340D01*
X0198422Y0156264D01*
X0198293Y0156192D01*
X0198162Y0156123D01*
X0198029Y0156058D01*
X0197894Y0155997D01*
X0197758Y0155939D01*
X0197621Y0155884D01*
X0197482Y0155834D01*
X0197341Y0155787D01*
X0197200Y0155744D01*
X0197057Y0155704D01*
X0196913Y0155669D01*
X0196769Y0155637D01*
X0196623Y0155610D01*
X0196477Y0155586D01*
X0196330Y0155566D01*
X0196183Y0155550D01*
X0196036Y0155538D01*
X0195888Y0155530D01*
X0195740Y0155526D01*
X0195592Y0155526D01*
X0195444Y0155530D01*
X0195296Y0155538D01*
X0195149Y0155550D01*
X0195002Y0155566D01*
X0194855Y0155586D01*
X0194709Y0155610D01*
X0194563Y0155637D01*
X0194419Y0155669D01*
X0194275Y0155704D01*
X0194132Y0155744D01*
X0193991Y0155787D01*
X0193850Y0155834D01*
X0193711Y0155884D01*
X0193574Y0155939D01*
X0193438Y0155997D01*
X0193303Y0156058D01*
X0193170Y0156123D01*
X0193039Y0156192D01*
X0192910Y0156264D01*
X0192783Y0156340D01*
X0192658Y0156419D01*
X0192535Y0156502D01*
X0192414Y0156587D01*
X0192296Y0156676D01*
X0192180Y0156768D01*
X0192067Y0156864D01*
X0191956Y0156962D01*
X0191848Y0157063D01*
X0191742Y0157167D01*
X0191640Y0157273D01*
X0191540Y0157383D01*
X0191444Y0157495D01*
X0191350Y0157610D01*
X0191259Y0157727D01*
X0191172Y0157846D01*
X0191088Y0157968D01*
X0191007Y0158092D01*
X0190930Y0158218D01*
X0190856Y0158346D01*
X0190785Y0158476D01*
X0190718Y0158608D01*
X0190655Y0158742D01*
X0190595Y0158877D01*
X0190539Y0159014D01*
X0190486Y0159153D01*
X0190438Y0159293D01*
X0190393Y0159434D01*
X0190352Y0159576D01*
X0190314Y0159719D01*
X0190281Y0159863D01*
X0190251Y0160008D01*
X0190225Y0160154D01*
X0190204Y0160300D01*
X0190186Y0160447D01*
X0190172Y0160594D01*
X0190162Y0160742D01*
X0190156Y0160890D01*
X0190154Y0161038D01*
X0127949Y0070487D02*
X0127951Y0070592D01*
X0127957Y0070697D01*
X0127967Y0070801D01*
X0127981Y0070905D01*
X0127999Y0071009D01*
X0128021Y0071111D01*
X0128046Y0071213D01*
X0128076Y0071314D01*
X0128109Y0071413D01*
X0128146Y0071511D01*
X0128187Y0071608D01*
X0128232Y0071703D01*
X0128280Y0071796D01*
X0128331Y0071888D01*
X0128387Y0071977D01*
X0128445Y0072064D01*
X0128507Y0072149D01*
X0128571Y0072232D01*
X0128639Y0072312D01*
X0128710Y0072389D01*
X0128784Y0072463D01*
X0128861Y0072535D01*
X0128940Y0072604D01*
X0129022Y0072669D01*
X0129106Y0072732D01*
X0129193Y0072791D01*
X0129282Y0072847D01*
X0129373Y0072900D01*
X0129466Y0072949D01*
X0129560Y0072994D01*
X0129656Y0073036D01*
X0129754Y0073074D01*
X0129853Y0073108D01*
X0129954Y0073139D01*
X0130055Y0073165D01*
X0130158Y0073188D01*
X0130261Y0073207D01*
X0130365Y0073222D01*
X0130469Y0073233D01*
X0130574Y0073240D01*
X0130679Y0073243D01*
X0130784Y0073242D01*
X0130889Y0073237D01*
X0130993Y0073228D01*
X0131097Y0073215D01*
X0131201Y0073198D01*
X0131304Y0073177D01*
X0131406Y0073152D01*
X0131507Y0073124D01*
X0131606Y0073091D01*
X0131705Y0073055D01*
X0131802Y0073015D01*
X0131897Y0072972D01*
X0131991Y0072924D01*
X0132083Y0072874D01*
X0132173Y0072820D01*
X0132261Y0072762D01*
X0132346Y0072701D01*
X0132429Y0072637D01*
X0132510Y0072570D01*
X0132588Y0072500D01*
X0132663Y0072426D01*
X0132735Y0072351D01*
X0132805Y0072272D01*
X0132871Y0072191D01*
X0132935Y0072107D01*
X0132995Y0072021D01*
X0133051Y0071933D01*
X0133105Y0071842D01*
X0133155Y0071750D01*
X0133201Y0071656D01*
X0133244Y0071560D01*
X0133283Y0071462D01*
X0133318Y0071364D01*
X0133349Y0071263D01*
X0133377Y0071162D01*
X0133401Y0071060D01*
X0133421Y0070957D01*
X0133437Y0070853D01*
X0133449Y0070749D01*
X0133457Y0070644D01*
X0133461Y0070539D01*
X0133461Y0070435D01*
X0133457Y0070330D01*
X0133449Y0070225D01*
X0133437Y0070121D01*
X0133421Y0070017D01*
X0133401Y0069914D01*
X0133377Y0069812D01*
X0133349Y0069711D01*
X0133318Y0069610D01*
X0133283Y0069512D01*
X0133244Y0069414D01*
X0133201Y0069318D01*
X0133155Y0069224D01*
X0133105Y0069132D01*
X0133051Y0069041D01*
X0132995Y0068953D01*
X0132935Y0068867D01*
X0132871Y0068783D01*
X0132805Y0068702D01*
X0132735Y0068623D01*
X0132663Y0068548D01*
X0132588Y0068474D01*
X0132510Y0068404D01*
X0132429Y0068337D01*
X0132346Y0068273D01*
X0132261Y0068212D01*
X0132173Y0068154D01*
X0132083Y0068100D01*
X0131991Y0068050D01*
X0131897Y0068002D01*
X0131802Y0067959D01*
X0131705Y0067919D01*
X0131606Y0067883D01*
X0131507Y0067850D01*
X0131406Y0067822D01*
X0131304Y0067797D01*
X0131201Y0067776D01*
X0131097Y0067759D01*
X0130993Y0067746D01*
X0130889Y0067737D01*
X0130784Y0067732D01*
X0130679Y0067731D01*
X0130574Y0067734D01*
X0130469Y0067741D01*
X0130365Y0067752D01*
X0130261Y0067767D01*
X0130158Y0067786D01*
X0130055Y0067809D01*
X0129954Y0067835D01*
X0129853Y0067866D01*
X0129754Y0067900D01*
X0129656Y0067938D01*
X0129560Y0067980D01*
X0129466Y0068025D01*
X0129373Y0068074D01*
X0129282Y0068127D01*
X0129193Y0068183D01*
X0129106Y0068242D01*
X0129022Y0068305D01*
X0128940Y0068370D01*
X0128861Y0068439D01*
X0128784Y0068511D01*
X0128710Y0068585D01*
X0128639Y0068662D01*
X0128571Y0068742D01*
X0128507Y0068825D01*
X0128445Y0068910D01*
X0128387Y0068997D01*
X0128331Y0069086D01*
X0128280Y0069178D01*
X0128232Y0069271D01*
X0128187Y0069366D01*
X0128146Y0069463D01*
X0128109Y0069561D01*
X0128076Y0069660D01*
X0128046Y0069761D01*
X0128021Y0069863D01*
X0127999Y0069965D01*
X0127981Y0070069D01*
X0127967Y0070173D01*
X0127957Y0070277D01*
X0127951Y0070382D01*
X0127949Y0070487D01*
X0127949Y0035054D02*
X0127951Y0035159D01*
X0127957Y0035264D01*
X0127967Y0035368D01*
X0127981Y0035472D01*
X0127999Y0035576D01*
X0128021Y0035678D01*
X0128046Y0035780D01*
X0128076Y0035881D01*
X0128109Y0035980D01*
X0128146Y0036078D01*
X0128187Y0036175D01*
X0128232Y0036270D01*
X0128280Y0036363D01*
X0128331Y0036455D01*
X0128387Y0036544D01*
X0128445Y0036631D01*
X0128507Y0036716D01*
X0128571Y0036799D01*
X0128639Y0036879D01*
X0128710Y0036956D01*
X0128784Y0037030D01*
X0128861Y0037102D01*
X0128940Y0037171D01*
X0129022Y0037236D01*
X0129106Y0037299D01*
X0129193Y0037358D01*
X0129282Y0037414D01*
X0129373Y0037467D01*
X0129466Y0037516D01*
X0129560Y0037561D01*
X0129656Y0037603D01*
X0129754Y0037641D01*
X0129853Y0037675D01*
X0129954Y0037706D01*
X0130055Y0037732D01*
X0130158Y0037755D01*
X0130261Y0037774D01*
X0130365Y0037789D01*
X0130469Y0037800D01*
X0130574Y0037807D01*
X0130679Y0037810D01*
X0130784Y0037809D01*
X0130889Y0037804D01*
X0130993Y0037795D01*
X0131097Y0037782D01*
X0131201Y0037765D01*
X0131304Y0037744D01*
X0131406Y0037719D01*
X0131507Y0037691D01*
X0131606Y0037658D01*
X0131705Y0037622D01*
X0131802Y0037582D01*
X0131897Y0037539D01*
X0131991Y0037491D01*
X0132083Y0037441D01*
X0132173Y0037387D01*
X0132261Y0037329D01*
X0132346Y0037268D01*
X0132429Y0037204D01*
X0132510Y0037137D01*
X0132588Y0037067D01*
X0132663Y0036993D01*
X0132735Y0036918D01*
X0132805Y0036839D01*
X0132871Y0036758D01*
X0132935Y0036674D01*
X0132995Y0036588D01*
X0133051Y0036500D01*
X0133105Y0036409D01*
X0133155Y0036317D01*
X0133201Y0036223D01*
X0133244Y0036127D01*
X0133283Y0036029D01*
X0133318Y0035931D01*
X0133349Y0035830D01*
X0133377Y0035729D01*
X0133401Y0035627D01*
X0133421Y0035524D01*
X0133437Y0035420D01*
X0133449Y0035316D01*
X0133457Y0035211D01*
X0133461Y0035106D01*
X0133461Y0035002D01*
X0133457Y0034897D01*
X0133449Y0034792D01*
X0133437Y0034688D01*
X0133421Y0034584D01*
X0133401Y0034481D01*
X0133377Y0034379D01*
X0133349Y0034278D01*
X0133318Y0034177D01*
X0133283Y0034079D01*
X0133244Y0033981D01*
X0133201Y0033885D01*
X0133155Y0033791D01*
X0133105Y0033699D01*
X0133051Y0033608D01*
X0132995Y0033520D01*
X0132935Y0033434D01*
X0132871Y0033350D01*
X0132805Y0033269D01*
X0132735Y0033190D01*
X0132663Y0033115D01*
X0132588Y0033041D01*
X0132510Y0032971D01*
X0132429Y0032904D01*
X0132346Y0032840D01*
X0132261Y0032779D01*
X0132173Y0032721D01*
X0132083Y0032667D01*
X0131991Y0032617D01*
X0131897Y0032569D01*
X0131802Y0032526D01*
X0131705Y0032486D01*
X0131606Y0032450D01*
X0131507Y0032417D01*
X0131406Y0032389D01*
X0131304Y0032364D01*
X0131201Y0032343D01*
X0131097Y0032326D01*
X0130993Y0032313D01*
X0130889Y0032304D01*
X0130784Y0032299D01*
X0130679Y0032298D01*
X0130574Y0032301D01*
X0130469Y0032308D01*
X0130365Y0032319D01*
X0130261Y0032334D01*
X0130158Y0032353D01*
X0130055Y0032376D01*
X0129954Y0032402D01*
X0129853Y0032433D01*
X0129754Y0032467D01*
X0129656Y0032505D01*
X0129560Y0032547D01*
X0129466Y0032592D01*
X0129373Y0032641D01*
X0129282Y0032694D01*
X0129193Y0032750D01*
X0129106Y0032809D01*
X0129022Y0032872D01*
X0128940Y0032937D01*
X0128861Y0033006D01*
X0128784Y0033078D01*
X0128710Y0033152D01*
X0128639Y0033229D01*
X0128571Y0033309D01*
X0128507Y0033392D01*
X0128445Y0033477D01*
X0128387Y0033564D01*
X0128331Y0033653D01*
X0128280Y0033745D01*
X0128232Y0033838D01*
X0128187Y0033933D01*
X0128146Y0034030D01*
X0128109Y0034128D01*
X0128076Y0034227D01*
X0128046Y0034328D01*
X0128021Y0034430D01*
X0127999Y0034532D01*
X0127981Y0034636D01*
X0127967Y0034740D01*
X0127957Y0034844D01*
X0127951Y0034949D01*
X0127949Y0035054D01*
X0083855Y0031117D02*
X0083857Y0031265D01*
X0083863Y0031413D01*
X0083873Y0031561D01*
X0083887Y0031708D01*
X0083905Y0031855D01*
X0083926Y0032001D01*
X0083952Y0032147D01*
X0083982Y0032292D01*
X0084015Y0032436D01*
X0084053Y0032579D01*
X0084094Y0032721D01*
X0084139Y0032862D01*
X0084187Y0033002D01*
X0084240Y0033141D01*
X0084296Y0033278D01*
X0084356Y0033413D01*
X0084419Y0033547D01*
X0084486Y0033679D01*
X0084557Y0033809D01*
X0084631Y0033937D01*
X0084708Y0034063D01*
X0084789Y0034187D01*
X0084873Y0034309D01*
X0084960Y0034428D01*
X0085051Y0034545D01*
X0085145Y0034660D01*
X0085241Y0034772D01*
X0085341Y0034882D01*
X0085443Y0034988D01*
X0085549Y0035092D01*
X0085657Y0035193D01*
X0085768Y0035291D01*
X0085881Y0035387D01*
X0085997Y0035479D01*
X0086115Y0035568D01*
X0086236Y0035653D01*
X0086359Y0035736D01*
X0086484Y0035815D01*
X0086611Y0035891D01*
X0086740Y0035963D01*
X0086871Y0036032D01*
X0087004Y0036097D01*
X0087139Y0036158D01*
X0087275Y0036216D01*
X0087412Y0036271D01*
X0087551Y0036321D01*
X0087692Y0036368D01*
X0087833Y0036411D01*
X0087976Y0036451D01*
X0088120Y0036486D01*
X0088264Y0036518D01*
X0088410Y0036545D01*
X0088556Y0036569D01*
X0088703Y0036589D01*
X0088850Y0036605D01*
X0088997Y0036617D01*
X0089145Y0036625D01*
X0089293Y0036629D01*
X0089441Y0036629D01*
X0089589Y0036625D01*
X0089737Y0036617D01*
X0089884Y0036605D01*
X0090031Y0036589D01*
X0090178Y0036569D01*
X0090324Y0036545D01*
X0090470Y0036518D01*
X0090614Y0036486D01*
X0090758Y0036451D01*
X0090901Y0036411D01*
X0091042Y0036368D01*
X0091183Y0036321D01*
X0091322Y0036271D01*
X0091459Y0036216D01*
X0091595Y0036158D01*
X0091730Y0036097D01*
X0091863Y0036032D01*
X0091994Y0035963D01*
X0092123Y0035891D01*
X0092250Y0035815D01*
X0092375Y0035736D01*
X0092498Y0035653D01*
X0092619Y0035568D01*
X0092737Y0035479D01*
X0092853Y0035387D01*
X0092966Y0035291D01*
X0093077Y0035193D01*
X0093185Y0035092D01*
X0093291Y0034988D01*
X0093393Y0034882D01*
X0093493Y0034772D01*
X0093589Y0034660D01*
X0093683Y0034545D01*
X0093774Y0034428D01*
X0093861Y0034309D01*
X0093945Y0034187D01*
X0094026Y0034063D01*
X0094103Y0033937D01*
X0094177Y0033809D01*
X0094248Y0033679D01*
X0094315Y0033547D01*
X0094378Y0033413D01*
X0094438Y0033278D01*
X0094494Y0033141D01*
X0094547Y0033002D01*
X0094595Y0032862D01*
X0094640Y0032721D01*
X0094681Y0032579D01*
X0094719Y0032436D01*
X0094752Y0032292D01*
X0094782Y0032147D01*
X0094808Y0032001D01*
X0094829Y0031855D01*
X0094847Y0031708D01*
X0094861Y0031561D01*
X0094871Y0031413D01*
X0094877Y0031265D01*
X0094879Y0031117D01*
X0094877Y0030969D01*
X0094871Y0030821D01*
X0094861Y0030673D01*
X0094847Y0030526D01*
X0094829Y0030379D01*
X0094808Y0030233D01*
X0094782Y0030087D01*
X0094752Y0029942D01*
X0094719Y0029798D01*
X0094681Y0029655D01*
X0094640Y0029513D01*
X0094595Y0029372D01*
X0094547Y0029232D01*
X0094494Y0029093D01*
X0094438Y0028956D01*
X0094378Y0028821D01*
X0094315Y0028687D01*
X0094248Y0028555D01*
X0094177Y0028425D01*
X0094103Y0028297D01*
X0094026Y0028171D01*
X0093945Y0028047D01*
X0093861Y0027925D01*
X0093774Y0027806D01*
X0093683Y0027689D01*
X0093589Y0027574D01*
X0093493Y0027462D01*
X0093393Y0027352D01*
X0093291Y0027246D01*
X0093185Y0027142D01*
X0093077Y0027041D01*
X0092966Y0026943D01*
X0092853Y0026847D01*
X0092737Y0026755D01*
X0092619Y0026666D01*
X0092498Y0026581D01*
X0092375Y0026498D01*
X0092250Y0026419D01*
X0092123Y0026343D01*
X0091994Y0026271D01*
X0091863Y0026202D01*
X0091730Y0026137D01*
X0091595Y0026076D01*
X0091459Y0026018D01*
X0091322Y0025963D01*
X0091183Y0025913D01*
X0091042Y0025866D01*
X0090901Y0025823D01*
X0090758Y0025783D01*
X0090614Y0025748D01*
X0090470Y0025716D01*
X0090324Y0025689D01*
X0090178Y0025665D01*
X0090031Y0025645D01*
X0089884Y0025629D01*
X0089737Y0025617D01*
X0089589Y0025609D01*
X0089441Y0025605D01*
X0089293Y0025605D01*
X0089145Y0025609D01*
X0088997Y0025617D01*
X0088850Y0025629D01*
X0088703Y0025645D01*
X0088556Y0025665D01*
X0088410Y0025689D01*
X0088264Y0025716D01*
X0088120Y0025748D01*
X0087976Y0025783D01*
X0087833Y0025823D01*
X0087692Y0025866D01*
X0087551Y0025913D01*
X0087412Y0025963D01*
X0087275Y0026018D01*
X0087139Y0026076D01*
X0087004Y0026137D01*
X0086871Y0026202D01*
X0086740Y0026271D01*
X0086611Y0026343D01*
X0086484Y0026419D01*
X0086359Y0026498D01*
X0086236Y0026581D01*
X0086115Y0026666D01*
X0085997Y0026755D01*
X0085881Y0026847D01*
X0085768Y0026943D01*
X0085657Y0027041D01*
X0085549Y0027142D01*
X0085443Y0027246D01*
X0085341Y0027352D01*
X0085241Y0027462D01*
X0085145Y0027574D01*
X0085051Y0027689D01*
X0084960Y0027806D01*
X0084873Y0027925D01*
X0084789Y0028047D01*
X0084708Y0028171D01*
X0084631Y0028297D01*
X0084557Y0028425D01*
X0084486Y0028555D01*
X0084419Y0028687D01*
X0084356Y0028821D01*
X0084296Y0028956D01*
X0084240Y0029093D01*
X0084187Y0029232D01*
X0084139Y0029372D01*
X0084094Y0029513D01*
X0084053Y0029655D01*
X0084015Y0029798D01*
X0083982Y0029942D01*
X0083952Y0030087D01*
X0083926Y0030233D01*
X0083905Y0030379D01*
X0083887Y0030526D01*
X0083873Y0030673D01*
X0083863Y0030821D01*
X0083857Y0030969D01*
X0083855Y0031117D01*
X0190154Y0038991D02*
X0190156Y0039139D01*
X0190162Y0039287D01*
X0190172Y0039435D01*
X0190186Y0039582D01*
X0190204Y0039729D01*
X0190225Y0039875D01*
X0190251Y0040021D01*
X0190281Y0040166D01*
X0190314Y0040310D01*
X0190352Y0040453D01*
X0190393Y0040595D01*
X0190438Y0040736D01*
X0190486Y0040876D01*
X0190539Y0041015D01*
X0190595Y0041152D01*
X0190655Y0041287D01*
X0190718Y0041421D01*
X0190785Y0041553D01*
X0190856Y0041683D01*
X0190930Y0041811D01*
X0191007Y0041937D01*
X0191088Y0042061D01*
X0191172Y0042183D01*
X0191259Y0042302D01*
X0191350Y0042419D01*
X0191444Y0042534D01*
X0191540Y0042646D01*
X0191640Y0042756D01*
X0191742Y0042862D01*
X0191848Y0042966D01*
X0191956Y0043067D01*
X0192067Y0043165D01*
X0192180Y0043261D01*
X0192296Y0043353D01*
X0192414Y0043442D01*
X0192535Y0043527D01*
X0192658Y0043610D01*
X0192783Y0043689D01*
X0192910Y0043765D01*
X0193039Y0043837D01*
X0193170Y0043906D01*
X0193303Y0043971D01*
X0193438Y0044032D01*
X0193574Y0044090D01*
X0193711Y0044145D01*
X0193850Y0044195D01*
X0193991Y0044242D01*
X0194132Y0044285D01*
X0194275Y0044325D01*
X0194419Y0044360D01*
X0194563Y0044392D01*
X0194709Y0044419D01*
X0194855Y0044443D01*
X0195002Y0044463D01*
X0195149Y0044479D01*
X0195296Y0044491D01*
X0195444Y0044499D01*
X0195592Y0044503D01*
X0195740Y0044503D01*
X0195888Y0044499D01*
X0196036Y0044491D01*
X0196183Y0044479D01*
X0196330Y0044463D01*
X0196477Y0044443D01*
X0196623Y0044419D01*
X0196769Y0044392D01*
X0196913Y0044360D01*
X0197057Y0044325D01*
X0197200Y0044285D01*
X0197341Y0044242D01*
X0197482Y0044195D01*
X0197621Y0044145D01*
X0197758Y0044090D01*
X0197894Y0044032D01*
X0198029Y0043971D01*
X0198162Y0043906D01*
X0198293Y0043837D01*
X0198422Y0043765D01*
X0198549Y0043689D01*
X0198674Y0043610D01*
X0198797Y0043527D01*
X0198918Y0043442D01*
X0199036Y0043353D01*
X0199152Y0043261D01*
X0199265Y0043165D01*
X0199376Y0043067D01*
X0199484Y0042966D01*
X0199590Y0042862D01*
X0199692Y0042756D01*
X0199792Y0042646D01*
X0199888Y0042534D01*
X0199982Y0042419D01*
X0200073Y0042302D01*
X0200160Y0042183D01*
X0200244Y0042061D01*
X0200325Y0041937D01*
X0200402Y0041811D01*
X0200476Y0041683D01*
X0200547Y0041553D01*
X0200614Y0041421D01*
X0200677Y0041287D01*
X0200737Y0041152D01*
X0200793Y0041015D01*
X0200846Y0040876D01*
X0200894Y0040736D01*
X0200939Y0040595D01*
X0200980Y0040453D01*
X0201018Y0040310D01*
X0201051Y0040166D01*
X0201081Y0040021D01*
X0201107Y0039875D01*
X0201128Y0039729D01*
X0201146Y0039582D01*
X0201160Y0039435D01*
X0201170Y0039287D01*
X0201176Y0039139D01*
X0201178Y0038991D01*
X0201176Y0038843D01*
X0201170Y0038695D01*
X0201160Y0038547D01*
X0201146Y0038400D01*
X0201128Y0038253D01*
X0201107Y0038107D01*
X0201081Y0037961D01*
X0201051Y0037816D01*
X0201018Y0037672D01*
X0200980Y0037529D01*
X0200939Y0037387D01*
X0200894Y0037246D01*
X0200846Y0037106D01*
X0200793Y0036967D01*
X0200737Y0036830D01*
X0200677Y0036695D01*
X0200614Y0036561D01*
X0200547Y0036429D01*
X0200476Y0036299D01*
X0200402Y0036171D01*
X0200325Y0036045D01*
X0200244Y0035921D01*
X0200160Y0035799D01*
X0200073Y0035680D01*
X0199982Y0035563D01*
X0199888Y0035448D01*
X0199792Y0035336D01*
X0199692Y0035226D01*
X0199590Y0035120D01*
X0199484Y0035016D01*
X0199376Y0034915D01*
X0199265Y0034817D01*
X0199152Y0034721D01*
X0199036Y0034629D01*
X0198918Y0034540D01*
X0198797Y0034455D01*
X0198674Y0034372D01*
X0198549Y0034293D01*
X0198422Y0034217D01*
X0198293Y0034145D01*
X0198162Y0034076D01*
X0198029Y0034011D01*
X0197894Y0033950D01*
X0197758Y0033892D01*
X0197621Y0033837D01*
X0197482Y0033787D01*
X0197341Y0033740D01*
X0197200Y0033697D01*
X0197057Y0033657D01*
X0196913Y0033622D01*
X0196769Y0033590D01*
X0196623Y0033563D01*
X0196477Y0033539D01*
X0196330Y0033519D01*
X0196183Y0033503D01*
X0196036Y0033491D01*
X0195888Y0033483D01*
X0195740Y0033479D01*
X0195592Y0033479D01*
X0195444Y0033483D01*
X0195296Y0033491D01*
X0195149Y0033503D01*
X0195002Y0033519D01*
X0194855Y0033539D01*
X0194709Y0033563D01*
X0194563Y0033590D01*
X0194419Y0033622D01*
X0194275Y0033657D01*
X0194132Y0033697D01*
X0193991Y0033740D01*
X0193850Y0033787D01*
X0193711Y0033837D01*
X0193574Y0033892D01*
X0193438Y0033950D01*
X0193303Y0034011D01*
X0193170Y0034076D01*
X0193039Y0034145D01*
X0192910Y0034217D01*
X0192783Y0034293D01*
X0192658Y0034372D01*
X0192535Y0034455D01*
X0192414Y0034540D01*
X0192296Y0034629D01*
X0192180Y0034721D01*
X0192067Y0034817D01*
X0191956Y0034915D01*
X0191848Y0035016D01*
X0191742Y0035120D01*
X0191640Y0035226D01*
X0191540Y0035336D01*
X0191444Y0035448D01*
X0191350Y0035563D01*
X0191259Y0035680D01*
X0191172Y0035799D01*
X0191088Y0035921D01*
X0191007Y0036045D01*
X0190930Y0036171D01*
X0190856Y0036299D01*
X0190785Y0036429D01*
X0190718Y0036561D01*
X0190655Y0036695D01*
X0190595Y0036830D01*
X0190539Y0036967D01*
X0190486Y0037106D01*
X0190438Y0037246D01*
X0190393Y0037387D01*
X0190352Y0037529D01*
X0190314Y0037672D01*
X0190281Y0037816D01*
X0190251Y0037961D01*
X0190225Y0038107D01*
X0190204Y0038253D01*
X0190186Y0038400D01*
X0190172Y0038547D01*
X0190162Y0038695D01*
X0190156Y0038843D01*
X0190154Y0038991D01*
X0129918Y0414975D02*
X0129920Y0415080D01*
X0129926Y0415185D01*
X0129936Y0415289D01*
X0129950Y0415393D01*
X0129968Y0415497D01*
X0129990Y0415599D01*
X0130015Y0415701D01*
X0130045Y0415802D01*
X0130078Y0415901D01*
X0130115Y0415999D01*
X0130156Y0416096D01*
X0130201Y0416191D01*
X0130249Y0416284D01*
X0130300Y0416376D01*
X0130356Y0416465D01*
X0130414Y0416552D01*
X0130476Y0416637D01*
X0130540Y0416720D01*
X0130608Y0416800D01*
X0130679Y0416877D01*
X0130753Y0416951D01*
X0130830Y0417023D01*
X0130909Y0417092D01*
X0130991Y0417157D01*
X0131075Y0417220D01*
X0131162Y0417279D01*
X0131251Y0417335D01*
X0131342Y0417388D01*
X0131435Y0417437D01*
X0131529Y0417482D01*
X0131625Y0417524D01*
X0131723Y0417562D01*
X0131822Y0417596D01*
X0131923Y0417627D01*
X0132024Y0417653D01*
X0132127Y0417676D01*
X0132230Y0417695D01*
X0132334Y0417710D01*
X0132438Y0417721D01*
X0132543Y0417728D01*
X0132648Y0417731D01*
X0132753Y0417730D01*
X0132858Y0417725D01*
X0132962Y0417716D01*
X0133066Y0417703D01*
X0133170Y0417686D01*
X0133273Y0417665D01*
X0133375Y0417640D01*
X0133476Y0417612D01*
X0133575Y0417579D01*
X0133674Y0417543D01*
X0133771Y0417503D01*
X0133866Y0417460D01*
X0133960Y0417412D01*
X0134052Y0417362D01*
X0134142Y0417308D01*
X0134230Y0417250D01*
X0134315Y0417189D01*
X0134398Y0417125D01*
X0134479Y0417058D01*
X0134557Y0416988D01*
X0134632Y0416914D01*
X0134704Y0416839D01*
X0134774Y0416760D01*
X0134840Y0416679D01*
X0134904Y0416595D01*
X0134964Y0416509D01*
X0135020Y0416421D01*
X0135074Y0416330D01*
X0135124Y0416238D01*
X0135170Y0416144D01*
X0135213Y0416048D01*
X0135252Y0415950D01*
X0135287Y0415852D01*
X0135318Y0415751D01*
X0135346Y0415650D01*
X0135370Y0415548D01*
X0135390Y0415445D01*
X0135406Y0415341D01*
X0135418Y0415237D01*
X0135426Y0415132D01*
X0135430Y0415027D01*
X0135430Y0414923D01*
X0135426Y0414818D01*
X0135418Y0414713D01*
X0135406Y0414609D01*
X0135390Y0414505D01*
X0135370Y0414402D01*
X0135346Y0414300D01*
X0135318Y0414199D01*
X0135287Y0414098D01*
X0135252Y0414000D01*
X0135213Y0413902D01*
X0135170Y0413806D01*
X0135124Y0413712D01*
X0135074Y0413620D01*
X0135020Y0413529D01*
X0134964Y0413441D01*
X0134904Y0413355D01*
X0134840Y0413271D01*
X0134774Y0413190D01*
X0134704Y0413111D01*
X0134632Y0413036D01*
X0134557Y0412962D01*
X0134479Y0412892D01*
X0134398Y0412825D01*
X0134315Y0412761D01*
X0134230Y0412700D01*
X0134142Y0412642D01*
X0134052Y0412588D01*
X0133960Y0412538D01*
X0133866Y0412490D01*
X0133771Y0412447D01*
X0133674Y0412407D01*
X0133575Y0412371D01*
X0133476Y0412338D01*
X0133375Y0412310D01*
X0133273Y0412285D01*
X0133170Y0412264D01*
X0133066Y0412247D01*
X0132962Y0412234D01*
X0132858Y0412225D01*
X0132753Y0412220D01*
X0132648Y0412219D01*
X0132543Y0412222D01*
X0132438Y0412229D01*
X0132334Y0412240D01*
X0132230Y0412255D01*
X0132127Y0412274D01*
X0132024Y0412297D01*
X0131923Y0412323D01*
X0131822Y0412354D01*
X0131723Y0412388D01*
X0131625Y0412426D01*
X0131529Y0412468D01*
X0131435Y0412513D01*
X0131342Y0412562D01*
X0131251Y0412615D01*
X0131162Y0412671D01*
X0131075Y0412730D01*
X0130991Y0412793D01*
X0130909Y0412858D01*
X0130830Y0412927D01*
X0130753Y0412999D01*
X0130679Y0413073D01*
X0130608Y0413150D01*
X0130540Y0413230D01*
X0130476Y0413313D01*
X0130414Y0413398D01*
X0130356Y0413485D01*
X0130300Y0413574D01*
X0130249Y0413666D01*
X0130201Y0413759D01*
X0130156Y0413854D01*
X0130115Y0413951D01*
X0130078Y0414049D01*
X0130045Y0414148D01*
X0130015Y0414249D01*
X0129990Y0414351D01*
X0129968Y0414453D01*
X0129950Y0414557D01*
X0129936Y0414661D01*
X0129926Y0414765D01*
X0129920Y0414870D01*
X0129918Y0414975D01*
X0129918Y0450408D02*
X0129920Y0450513D01*
X0129926Y0450618D01*
X0129936Y0450722D01*
X0129950Y0450826D01*
X0129968Y0450930D01*
X0129990Y0451032D01*
X0130015Y0451134D01*
X0130045Y0451235D01*
X0130078Y0451334D01*
X0130115Y0451432D01*
X0130156Y0451529D01*
X0130201Y0451624D01*
X0130249Y0451717D01*
X0130300Y0451809D01*
X0130356Y0451898D01*
X0130414Y0451985D01*
X0130476Y0452070D01*
X0130540Y0452153D01*
X0130608Y0452233D01*
X0130679Y0452310D01*
X0130753Y0452384D01*
X0130830Y0452456D01*
X0130909Y0452525D01*
X0130991Y0452590D01*
X0131075Y0452653D01*
X0131162Y0452712D01*
X0131251Y0452768D01*
X0131342Y0452821D01*
X0131435Y0452870D01*
X0131529Y0452915D01*
X0131625Y0452957D01*
X0131723Y0452995D01*
X0131822Y0453029D01*
X0131923Y0453060D01*
X0132024Y0453086D01*
X0132127Y0453109D01*
X0132230Y0453128D01*
X0132334Y0453143D01*
X0132438Y0453154D01*
X0132543Y0453161D01*
X0132648Y0453164D01*
X0132753Y0453163D01*
X0132858Y0453158D01*
X0132962Y0453149D01*
X0133066Y0453136D01*
X0133170Y0453119D01*
X0133273Y0453098D01*
X0133375Y0453073D01*
X0133476Y0453045D01*
X0133575Y0453012D01*
X0133674Y0452976D01*
X0133771Y0452936D01*
X0133866Y0452893D01*
X0133960Y0452845D01*
X0134052Y0452795D01*
X0134142Y0452741D01*
X0134230Y0452683D01*
X0134315Y0452622D01*
X0134398Y0452558D01*
X0134479Y0452491D01*
X0134557Y0452421D01*
X0134632Y0452347D01*
X0134704Y0452272D01*
X0134774Y0452193D01*
X0134840Y0452112D01*
X0134904Y0452028D01*
X0134964Y0451942D01*
X0135020Y0451854D01*
X0135074Y0451763D01*
X0135124Y0451671D01*
X0135170Y0451577D01*
X0135213Y0451481D01*
X0135252Y0451383D01*
X0135287Y0451285D01*
X0135318Y0451184D01*
X0135346Y0451083D01*
X0135370Y0450981D01*
X0135390Y0450878D01*
X0135406Y0450774D01*
X0135418Y0450670D01*
X0135426Y0450565D01*
X0135430Y0450460D01*
X0135430Y0450356D01*
X0135426Y0450251D01*
X0135418Y0450146D01*
X0135406Y0450042D01*
X0135390Y0449938D01*
X0135370Y0449835D01*
X0135346Y0449733D01*
X0135318Y0449632D01*
X0135287Y0449531D01*
X0135252Y0449433D01*
X0135213Y0449335D01*
X0135170Y0449239D01*
X0135124Y0449145D01*
X0135074Y0449053D01*
X0135020Y0448962D01*
X0134964Y0448874D01*
X0134904Y0448788D01*
X0134840Y0448704D01*
X0134774Y0448623D01*
X0134704Y0448544D01*
X0134632Y0448469D01*
X0134557Y0448395D01*
X0134479Y0448325D01*
X0134398Y0448258D01*
X0134315Y0448194D01*
X0134230Y0448133D01*
X0134142Y0448075D01*
X0134052Y0448021D01*
X0133960Y0447971D01*
X0133866Y0447923D01*
X0133771Y0447880D01*
X0133674Y0447840D01*
X0133575Y0447804D01*
X0133476Y0447771D01*
X0133375Y0447743D01*
X0133273Y0447718D01*
X0133170Y0447697D01*
X0133066Y0447680D01*
X0132962Y0447667D01*
X0132858Y0447658D01*
X0132753Y0447653D01*
X0132648Y0447652D01*
X0132543Y0447655D01*
X0132438Y0447662D01*
X0132334Y0447673D01*
X0132230Y0447688D01*
X0132127Y0447707D01*
X0132024Y0447730D01*
X0131923Y0447756D01*
X0131822Y0447787D01*
X0131723Y0447821D01*
X0131625Y0447859D01*
X0131529Y0447901D01*
X0131435Y0447946D01*
X0131342Y0447995D01*
X0131251Y0448048D01*
X0131162Y0448104D01*
X0131075Y0448163D01*
X0130991Y0448226D01*
X0130909Y0448291D01*
X0130830Y0448360D01*
X0130753Y0448432D01*
X0130679Y0448506D01*
X0130608Y0448583D01*
X0130540Y0448663D01*
X0130476Y0448746D01*
X0130414Y0448831D01*
X0130356Y0448918D01*
X0130300Y0449007D01*
X0130249Y0449099D01*
X0130201Y0449192D01*
X0130156Y0449287D01*
X0130115Y0449384D01*
X0130078Y0449482D01*
X0130045Y0449581D01*
X0130015Y0449682D01*
X0129990Y0449784D01*
X0129968Y0449886D01*
X0129950Y0449990D01*
X0129936Y0450094D01*
X0129926Y0450198D01*
X0129920Y0450303D01*
X0129918Y0450408D01*
X0083855Y0444503D02*
X0083857Y0444651D01*
X0083863Y0444799D01*
X0083873Y0444947D01*
X0083887Y0445094D01*
X0083905Y0445241D01*
X0083926Y0445387D01*
X0083952Y0445533D01*
X0083982Y0445678D01*
X0084015Y0445822D01*
X0084053Y0445965D01*
X0084094Y0446107D01*
X0084139Y0446248D01*
X0084187Y0446388D01*
X0084240Y0446527D01*
X0084296Y0446664D01*
X0084356Y0446799D01*
X0084419Y0446933D01*
X0084486Y0447065D01*
X0084557Y0447195D01*
X0084631Y0447323D01*
X0084708Y0447449D01*
X0084789Y0447573D01*
X0084873Y0447695D01*
X0084960Y0447814D01*
X0085051Y0447931D01*
X0085145Y0448046D01*
X0085241Y0448158D01*
X0085341Y0448268D01*
X0085443Y0448374D01*
X0085549Y0448478D01*
X0085657Y0448579D01*
X0085768Y0448677D01*
X0085881Y0448773D01*
X0085997Y0448865D01*
X0086115Y0448954D01*
X0086236Y0449039D01*
X0086359Y0449122D01*
X0086484Y0449201D01*
X0086611Y0449277D01*
X0086740Y0449349D01*
X0086871Y0449418D01*
X0087004Y0449483D01*
X0087139Y0449544D01*
X0087275Y0449602D01*
X0087412Y0449657D01*
X0087551Y0449707D01*
X0087692Y0449754D01*
X0087833Y0449797D01*
X0087976Y0449837D01*
X0088120Y0449872D01*
X0088264Y0449904D01*
X0088410Y0449931D01*
X0088556Y0449955D01*
X0088703Y0449975D01*
X0088850Y0449991D01*
X0088997Y0450003D01*
X0089145Y0450011D01*
X0089293Y0450015D01*
X0089441Y0450015D01*
X0089589Y0450011D01*
X0089737Y0450003D01*
X0089884Y0449991D01*
X0090031Y0449975D01*
X0090178Y0449955D01*
X0090324Y0449931D01*
X0090470Y0449904D01*
X0090614Y0449872D01*
X0090758Y0449837D01*
X0090901Y0449797D01*
X0091042Y0449754D01*
X0091183Y0449707D01*
X0091322Y0449657D01*
X0091459Y0449602D01*
X0091595Y0449544D01*
X0091730Y0449483D01*
X0091863Y0449418D01*
X0091994Y0449349D01*
X0092123Y0449277D01*
X0092250Y0449201D01*
X0092375Y0449122D01*
X0092498Y0449039D01*
X0092619Y0448954D01*
X0092737Y0448865D01*
X0092853Y0448773D01*
X0092966Y0448677D01*
X0093077Y0448579D01*
X0093185Y0448478D01*
X0093291Y0448374D01*
X0093393Y0448268D01*
X0093493Y0448158D01*
X0093589Y0448046D01*
X0093683Y0447931D01*
X0093774Y0447814D01*
X0093861Y0447695D01*
X0093945Y0447573D01*
X0094026Y0447449D01*
X0094103Y0447323D01*
X0094177Y0447195D01*
X0094248Y0447065D01*
X0094315Y0446933D01*
X0094378Y0446799D01*
X0094438Y0446664D01*
X0094494Y0446527D01*
X0094547Y0446388D01*
X0094595Y0446248D01*
X0094640Y0446107D01*
X0094681Y0445965D01*
X0094719Y0445822D01*
X0094752Y0445678D01*
X0094782Y0445533D01*
X0094808Y0445387D01*
X0094829Y0445241D01*
X0094847Y0445094D01*
X0094861Y0444947D01*
X0094871Y0444799D01*
X0094877Y0444651D01*
X0094879Y0444503D01*
X0094877Y0444355D01*
X0094871Y0444207D01*
X0094861Y0444059D01*
X0094847Y0443912D01*
X0094829Y0443765D01*
X0094808Y0443619D01*
X0094782Y0443473D01*
X0094752Y0443328D01*
X0094719Y0443184D01*
X0094681Y0443041D01*
X0094640Y0442899D01*
X0094595Y0442758D01*
X0094547Y0442618D01*
X0094494Y0442479D01*
X0094438Y0442342D01*
X0094378Y0442207D01*
X0094315Y0442073D01*
X0094248Y0441941D01*
X0094177Y0441811D01*
X0094103Y0441683D01*
X0094026Y0441557D01*
X0093945Y0441433D01*
X0093861Y0441311D01*
X0093774Y0441192D01*
X0093683Y0441075D01*
X0093589Y0440960D01*
X0093493Y0440848D01*
X0093393Y0440738D01*
X0093291Y0440632D01*
X0093185Y0440528D01*
X0093077Y0440427D01*
X0092966Y0440329D01*
X0092853Y0440233D01*
X0092737Y0440141D01*
X0092619Y0440052D01*
X0092498Y0439967D01*
X0092375Y0439884D01*
X0092250Y0439805D01*
X0092123Y0439729D01*
X0091994Y0439657D01*
X0091863Y0439588D01*
X0091730Y0439523D01*
X0091595Y0439462D01*
X0091459Y0439404D01*
X0091322Y0439349D01*
X0091183Y0439299D01*
X0091042Y0439252D01*
X0090901Y0439209D01*
X0090758Y0439169D01*
X0090614Y0439134D01*
X0090470Y0439102D01*
X0090324Y0439075D01*
X0090178Y0439051D01*
X0090031Y0439031D01*
X0089884Y0439015D01*
X0089737Y0439003D01*
X0089589Y0438995D01*
X0089441Y0438991D01*
X0089293Y0438991D01*
X0089145Y0438995D01*
X0088997Y0439003D01*
X0088850Y0439015D01*
X0088703Y0439031D01*
X0088556Y0439051D01*
X0088410Y0439075D01*
X0088264Y0439102D01*
X0088120Y0439134D01*
X0087976Y0439169D01*
X0087833Y0439209D01*
X0087692Y0439252D01*
X0087551Y0439299D01*
X0087412Y0439349D01*
X0087275Y0439404D01*
X0087139Y0439462D01*
X0087004Y0439523D01*
X0086871Y0439588D01*
X0086740Y0439657D01*
X0086611Y0439729D01*
X0086484Y0439805D01*
X0086359Y0439884D01*
X0086236Y0439967D01*
X0086115Y0440052D01*
X0085997Y0440141D01*
X0085881Y0440233D01*
X0085768Y0440329D01*
X0085657Y0440427D01*
X0085549Y0440528D01*
X0085443Y0440632D01*
X0085341Y0440738D01*
X0085241Y0440848D01*
X0085145Y0440960D01*
X0085051Y0441075D01*
X0084960Y0441192D01*
X0084873Y0441311D01*
X0084789Y0441433D01*
X0084708Y0441557D01*
X0084631Y0441683D01*
X0084557Y0441811D01*
X0084486Y0441941D01*
X0084419Y0442073D01*
X0084356Y0442207D01*
X0084296Y0442342D01*
X0084240Y0442479D01*
X0084187Y0442618D01*
X0084139Y0442758D01*
X0084094Y0442899D01*
X0084053Y0443041D01*
X0084015Y0443184D01*
X0083982Y0443328D01*
X0083952Y0443473D01*
X0083926Y0443619D01*
X0083905Y0443765D01*
X0083887Y0443912D01*
X0083873Y0444059D01*
X0083863Y0444207D01*
X0083857Y0444355D01*
X0083855Y0444503D01*
D15*
X0129032Y0379089D02*
X0140253Y0379089D01*
X0140253Y0349089D02*
X0129032Y0349089D01*
X0192024Y0370743D02*
X0203245Y0370743D01*
X0203245Y0400743D02*
X0192024Y0400743D01*
X0192024Y0238735D02*
X0203245Y0238735D01*
X0203245Y0208735D02*
X0192024Y0208735D01*
X0140253Y0217081D02*
X0129032Y0217081D01*
X0129032Y0187081D02*
X0140253Y0187081D01*
X0483363Y0206766D02*
X0494583Y0206766D01*
X0494583Y0236766D02*
X0483363Y0236766D01*
X0546355Y0215113D02*
X0557575Y0215113D01*
X0557575Y0185113D02*
X0546355Y0185113D01*
X0546355Y0347121D02*
X0557575Y0347121D01*
X0557575Y0377121D02*
X0546355Y0377121D01*
X0494583Y0368774D02*
X0483363Y0368774D01*
X0483363Y0398774D02*
X0494583Y0398774D01*
D16*
X0420390Y0447948D02*
X0420390Y0456806D01*
X0410390Y0456806D02*
X0410390Y0447948D01*
X0400390Y0447948D02*
X0400390Y0456806D01*
X0379052Y0456806D02*
X0379052Y0447948D01*
X0369052Y0447948D02*
X0369052Y0456806D01*
X0359052Y0456806D02*
X0359052Y0447948D01*
X0337713Y0447948D02*
X0337713Y0456806D01*
X0327713Y0456806D02*
X0327713Y0447948D01*
X0317713Y0447948D02*
X0317713Y0456806D01*
X0294879Y0456806D02*
X0294879Y0447948D01*
X0284879Y0447948D02*
X0284879Y0456806D01*
X0274879Y0456806D02*
X0274879Y0447948D01*
X0264879Y0447948D02*
X0264879Y0456806D01*
X0254879Y0456806D02*
X0254879Y0447948D01*
X0244879Y0447948D02*
X0244879Y0456806D01*
X0143009Y0157101D02*
X0134150Y0157101D01*
X0134150Y0147101D02*
X0143009Y0147101D01*
X0143009Y0137101D02*
X0134150Y0137101D01*
X0134150Y0115763D02*
X0143009Y0115763D01*
X0143009Y0105763D02*
X0134150Y0105763D01*
X0134150Y0095763D02*
X0143009Y0095763D01*
X0545568Y0096077D02*
X0554426Y0096077D01*
X0554426Y0106077D02*
X0545568Y0106077D01*
X0545568Y0116077D02*
X0554426Y0116077D01*
X0554426Y0135448D02*
X0545568Y0135448D01*
X0545568Y0145448D02*
X0554426Y0145448D01*
X0554426Y0155448D02*
X0545568Y0155448D01*
D17*
X0601178Y0269306D03*
X0083461Y0182692D03*
D18*
X0242753Y0195064D03*
X0252753Y0195064D03*
X0262753Y0195064D03*
X0423855Y0195064D03*
X0433855Y0195064D03*
X0443855Y0195064D03*
D19*
X0604131Y0377574D03*
D20*
X0594288Y0377574D03*
X0594288Y0361826D03*
X0604131Y0361826D03*
X0604131Y0346077D03*
X0594288Y0346077D03*
D21*
X0596178Y0418912D03*
X0447635Y0242810D03*
X0238973Y0244778D03*
X0076493Y0369700D03*
X0076493Y0395290D03*
X0076493Y0420881D03*
D22*
X0086493Y0420881D03*
X0086493Y0395290D03*
X0086493Y0369700D03*
X0238973Y0234778D03*
X0447635Y0232810D03*
X0606178Y0418912D03*
D23*
X0386060Y0394739D03*
X0386060Y0384739D03*
X0386060Y0374739D03*
X0386060Y0364739D03*
X0386060Y0354739D03*
X0386060Y0344739D03*
X0386060Y0334739D03*
X0386060Y0324739D03*
X0386060Y0314739D03*
X0386060Y0304739D03*
X0376060Y0304739D03*
X0366060Y0304739D03*
X0366060Y0314739D03*
X0376060Y0314739D03*
X0376060Y0324739D03*
X0366060Y0324739D03*
X0366060Y0334739D03*
X0376060Y0334739D03*
X0376060Y0344739D03*
X0376060Y0354739D03*
X0366060Y0354739D03*
X0366060Y0344739D03*
X0356060Y0344739D03*
X0356060Y0354739D03*
X0356060Y0364739D03*
X0366060Y0364739D03*
X0376060Y0364739D03*
X0376060Y0374739D03*
X0366060Y0374739D03*
X0366060Y0384739D03*
X0376060Y0384739D03*
X0376060Y0394739D03*
X0366060Y0394739D03*
X0356060Y0394739D03*
X0356060Y0384739D03*
X0356060Y0374739D03*
X0346060Y0374739D03*
X0336060Y0374739D03*
X0336060Y0384739D03*
X0346060Y0384739D03*
X0346060Y0394739D03*
X0336060Y0394739D03*
X0326060Y0394739D03*
X0316060Y0394739D03*
X0316060Y0384739D03*
X0326060Y0384739D03*
X0326060Y0374739D03*
X0316060Y0374739D03*
X0316060Y0364739D03*
X0326060Y0364739D03*
X0336060Y0364739D03*
X0346060Y0364739D03*
X0346060Y0354739D03*
X0346060Y0344739D03*
X0336060Y0344739D03*
X0336060Y0354739D03*
X0326060Y0354739D03*
X0326060Y0344739D03*
X0316060Y0344739D03*
X0316060Y0354739D03*
X0306060Y0354739D03*
X0306060Y0344739D03*
X0296060Y0344739D03*
X0296060Y0354739D03*
X0296060Y0364739D03*
X0306060Y0364739D03*
X0306060Y0374739D03*
X0296060Y0374739D03*
X0296060Y0384739D03*
X0306060Y0384739D03*
X0306060Y0394739D03*
X0296060Y0394739D03*
X0296060Y0334739D03*
X0306060Y0334739D03*
X0316060Y0334739D03*
X0326060Y0334739D03*
X0336060Y0334739D03*
X0346060Y0334739D03*
X0356060Y0334739D03*
X0356060Y0324739D03*
X0356060Y0314739D03*
X0356060Y0304739D03*
X0346060Y0304739D03*
X0336060Y0304739D03*
X0336060Y0314739D03*
X0346060Y0314739D03*
X0346060Y0324739D03*
X0336060Y0324739D03*
X0326060Y0324739D03*
X0316060Y0324739D03*
X0316060Y0314739D03*
X0326060Y0314739D03*
X0326060Y0304739D03*
X0316060Y0304739D03*
X0306060Y0304739D03*
X0296060Y0304739D03*
X0296060Y0314739D03*
X0306060Y0314739D03*
X0306060Y0324739D03*
X0296060Y0324739D03*
D24*
X0252910Y0333125D03*
X0252910Y0343125D03*
X0252910Y0353125D03*
X0252910Y0363125D03*
X0252910Y0373125D03*
X0252910Y0383125D03*
X0252910Y0393125D03*
X0252910Y0403125D03*
X0252910Y0313125D03*
X0252910Y0303125D03*
X0252910Y0293125D03*
X0252910Y0283125D03*
X0252910Y0273125D03*
X0252910Y0263125D03*
X0252910Y0253125D03*
X0262910Y0253125D03*
X0422910Y0273625D03*
X0422910Y0283625D03*
X0422910Y0293625D03*
X0442910Y0293125D03*
X0442910Y0303125D03*
X0442910Y0313125D03*
X0442910Y0323125D03*
X0442910Y0333125D03*
X0442910Y0349125D03*
X0442910Y0359125D03*
X0442910Y0369125D03*
X0442910Y0379125D03*
X0442910Y0389125D03*
X0442910Y0399125D03*
X0442910Y0409125D03*
X0442910Y0419125D03*
X0442910Y0429125D03*
X0442910Y0439125D03*
X0422910Y0399125D03*
X0422910Y0389125D03*
X0422910Y0379125D03*
X0422910Y0369125D03*
X0422910Y0359125D03*
X0422910Y0349125D03*
X0422910Y0339125D03*
X0422910Y0329125D03*
X0442910Y0283125D03*
X0442910Y0273125D03*
X0442910Y0263125D03*
D25*
X0422910Y0263625D03*
D26*
X0406296Y0293597D03*
X0406296Y0399227D03*
X0400390Y0432692D03*
X0359052Y0432692D03*
X0317713Y0432692D03*
X0244879Y0432692D03*
D27*
X0254879Y0432692D03*
X0264879Y0432692D03*
X0274879Y0432692D03*
X0284879Y0432692D03*
X0294879Y0432692D03*
X0327713Y0432692D03*
X0337713Y0432692D03*
X0369052Y0432692D03*
X0379052Y0432692D03*
X0410390Y0432692D03*
X0420390Y0432692D03*
X0406296Y0389227D03*
X0406296Y0379227D03*
X0406296Y0369227D03*
X0406296Y0283597D03*
X0406296Y0273597D03*
X0406296Y0263597D03*
D28*
X0537201Y0428755D03*
X0194682Y0438597D03*
D29*
X0204524Y0438597D03*
X0566729Y0428755D03*
D30*
X0157674Y0397259D03*
X0127359Y0397259D03*
X0102556Y0350014D03*
X0072241Y0350014D03*
D31*
X0191804Y0386310D03*
X0280804Y0413310D03*
X0305304Y0417810D03*
X0344804Y0458310D03*
X0370804Y0408810D03*
X0361804Y0399810D03*
X0423304Y0425310D03*
X0224304Y0298810D03*
X0497804Y0190310D03*
D32*
X0447635Y0232810D02*
X0447304Y0232810D01*
X0441804Y0227310D01*
X0196804Y0227310D01*
X0186804Y0217310D01*
X0134804Y0217310D01*
X0134642Y0217081D01*
X0224304Y0298810D02*
X0238804Y0284310D01*
X0238804Y0244810D01*
X0238973Y0244778D01*
X0254304Y0320810D02*
X0268804Y0320810D01*
X0337304Y0252310D01*
X0473304Y0252310D01*
X0488804Y0236810D01*
X0488973Y0236766D01*
X0593804Y0346310D02*
X0594288Y0346077D01*
X0596804Y0346310D01*
X0603804Y0346310D01*
X0604131Y0346077D01*
X0593804Y0346310D02*
X0585804Y0354310D01*
X0585804Y0362310D01*
X0566804Y0381310D01*
X0566804Y0428310D01*
X0566729Y0428755D01*
X0563804Y0435810D02*
X0569804Y0435810D01*
X0585804Y0419810D01*
X0585804Y0372310D01*
X0593804Y0364310D01*
X0593804Y0362310D01*
X0594288Y0361826D01*
X0596804Y0361810D01*
X0603804Y0361810D01*
X0604131Y0361826D01*
X0556804Y0428810D02*
X0537304Y0428810D01*
X0537201Y0428755D01*
X0534804Y0430310D01*
X0518304Y0446810D01*
X0439304Y0446810D01*
X0434804Y0442310D01*
X0434804Y0436810D01*
X0423304Y0425310D01*
X0359052Y0432692D02*
X0358804Y0432310D01*
X0338304Y0411810D01*
X0303304Y0411810D01*
X0301804Y0413310D01*
X0280804Y0413310D01*
X0244804Y0342810D02*
X0207304Y0380310D01*
X0187804Y0380310D01*
X0146804Y0339310D01*
X0107804Y0339310D01*
X0085804Y0317310D01*
X0085804Y0314810D01*
X0085430Y0314581D01*
X0197804Y0370310D02*
X0197635Y0370743D01*
X0197804Y0370310D02*
X0204804Y0370310D01*
X0254304Y0320810D01*
X0252910Y0333125D02*
X0252804Y0333310D01*
X0251804Y0333310D01*
X0244804Y0340310D01*
X0244804Y0342810D01*
X0556804Y0428810D02*
X0563804Y0435810D01*
M02*
